<svg xmlns="http://www.w3.org/2000/svg" xmlns:xlink="http://www.w3.org/1999/xlink" width="852" zoomAndPan="magnify" viewBox="0 0 639 549.750006" height="733" preserveAspectRatio="xMidYMid meet" version="1.0"><defs><clipPath id="bdf1930214"><path d="M 0.144531 47 L 638.855469 47 L 638.855469 546 L 0.144531 546 Z M 0.144531 47 " clip-rule="nonzero"/></clipPath><clipPath id="e7eadc5691"><path d="M 144.972656 117.976562 C 150.382812 117.976562 155.523438 118.246094 160.667969 118.789062 C 198.007812 123.117188 235.617188 113.375 264.839844 89.835938 C 285.949219 73.058594 312.734375 62.777344 341.957031 62.777344 C 359.816406 62.777344 377.136719 66.5625 392.558594 73.597656 C 409.875 81.445312 430.167969 79.550781 445.863281 69 C 467.511719 54.386719 493.757812 46.539062 521.898438 48.164062 C 585.214844 51.953125 638.519531 103.632812 638.519531 166.953125 C 638.519531 240.550781 591.167969 272.210938 554.910156 285.738281 C 532.992188 293.855469 519.734375 316.585938 522.980469 339.855469 C 525.144531 355.820312 526.769531 372.867188 525.957031 386.125 C 521.085938 471.902344 451.273438 541.171875 365.230469 545.5 C 290.546875 549.289062 226.148438 504.644531 199.628906 440.515625 C 190.429688 418.324219 168.511719 404.253906 144.429688 404.527344 C 144.160156 404.527344 144.160156 404.527344 143.890625 404.527344 C 64.609375 404.527344 0.480469 340.398438 0.75 261.117188 C 1.292969 182.375 66.230469 117.433594 144.972656 117.976562 Z M 144.972656 117.976562 " clip-rule="nonzero"/></clipPath><clipPath id="49a5088812"><path d="M 142 0 L 233 0 L 233 90 L 142 90 Z M 142 0 " clip-rule="nonzero"/></clipPath><clipPath id="2c8d46be5f"><path d="M 142.808594 44.648438 C 142.808594 46.109375 142.878906 47.566406 143.023438 49.023438 C 143.164062 50.476562 143.378906 51.921875 143.664062 53.355469 C 143.949219 54.789062 144.304688 56.207031 144.730469 57.605469 C 145.15625 59.007812 145.644531 60.382812 146.207031 61.730469 C 146.765625 63.082031 147.390625 64.402344 148.078125 65.691406 C 148.769531 66.984375 149.519531 68.234375 150.332031 69.449219 C 151.144531 70.667969 152.015625 71.839844 152.941406 72.96875 C 153.871094 74.101562 154.851562 75.183594 155.882812 76.214844 C 156.917969 77.25 158 78.230469 159.128906 79.160156 C 160.261719 80.085938 161.433594 80.957031 162.648438 81.769531 C 163.867188 82.582031 165.117188 83.332031 166.40625 84.023438 C 167.699219 84.710938 169.019531 85.335938 170.367188 85.894531 C 171.71875 86.453125 173.09375 86.945312 174.492188 87.371094 C 175.894531 87.796875 177.308594 88.148438 178.742188 88.433594 C 180.179688 88.722656 181.621094 88.933594 183.078125 89.078125 C 184.53125 89.222656 185.992188 89.292969 187.453125 89.292969 C 188.917969 89.292969 190.375 89.222656 191.832031 89.078125 C 193.285156 88.933594 194.730469 88.722656 196.164062 88.433594 C 197.597656 88.148438 199.015625 87.796875 200.414062 87.371094 C 201.8125 86.945312 203.1875 86.453125 204.539062 85.894531 C 205.890625 85.335938 207.210938 84.710938 208.5 84.023438 C 209.789062 83.332031 211.042969 82.582031 212.257812 81.769531 C 213.472656 80.957031 214.648438 80.085938 215.777344 79.160156 C 216.90625 78.230469 217.988281 77.25 219.023438 76.214844 C 220.058594 75.183594 221.039062 74.101562 221.964844 72.96875 C 222.894531 71.839844 223.765625 70.667969 224.578125 69.449219 C 225.390625 68.234375 226.140625 66.984375 226.828125 65.691406 C 227.519531 64.402344 228.144531 63.082031 228.703125 61.730469 C 229.261719 60.382812 229.753906 59.007812 230.179688 57.605469 C 230.601562 56.207031 230.957031 54.789062 231.242188 53.355469 C 231.527344 51.921875 231.742188 50.476562 231.886719 49.023438 C 232.027344 47.566406 232.101562 46.109375 232.101562 44.648438 C 232.101562 43.183594 232.027344 41.726562 231.886719 40.269531 C 231.742188 38.816406 231.527344 37.371094 231.242188 35.9375 C 230.957031 34.503906 230.601562 33.085938 230.179688 31.6875 C 229.753906 30.289062 229.261719 28.910156 228.703125 27.5625 C 228.144531 26.210938 227.519531 24.890625 226.828125 23.601562 C 226.140625 22.3125 225.390625 21.058594 224.578125 19.84375 C 223.765625 18.625 222.894531 17.453125 221.964844 16.324219 C 221.039062 15.191406 220.058594 14.109375 219.023438 13.078125 C 217.988281 12.042969 216.90625 11.0625 215.777344 10.132812 C 214.648438 9.207031 213.472656 8.335938 212.257812 7.523438 C 211.042969 6.710938 209.789062 5.960938 208.5 5.273438 C 207.210938 4.582031 205.890625 3.957031 204.539062 3.398438 C 203.1875 2.839844 201.8125 2.347656 200.414062 1.921875 C 199.015625 1.496094 197.597656 1.144531 196.164062 0.859375 C 194.730469 0.574219 193.285156 0.359375 191.832031 0.214844 C 190.375 0.0703125 188.917969 0 187.453125 0 C 185.992188 0 184.53125 0.0703125 183.078125 0.214844 C 181.621094 0.359375 180.179688 0.574219 178.742188 0.859375 C 177.308594 1.144531 175.894531 1.496094 174.492188 1.921875 C 173.09375 2.347656 171.71875 2.839844 170.367188 3.398438 C 169.019531 3.957031 167.699219 4.582031 166.40625 5.273438 C 165.117188 5.960938 163.867188 6.710938 162.648438 7.523438 C 161.433594 8.335938 160.261719 9.207031 159.128906 10.132812 C 158 11.0625 156.917969 12.042969 155.882812 13.078125 C 154.851562 14.109375 153.871094 15.191406 152.941406 16.324219 C 152.015625 17.453125 151.144531 18.625 150.332031 19.84375 C 149.519531 21.058594 148.769531 22.3125 148.078125 23.601562 C 147.390625 24.890625 146.765625 26.210938 146.207031 27.5625 C 145.644531 28.910156 145.15625 30.289062 144.730469 31.6875 C 144.304688 33.085938 143.949219 34.503906 143.664062 35.9375 C 143.378906 37.371094 143.164062 38.816406 143.023438 40.269531 C 142.878906 41.726562 142.808594 43.183594 142.808594 44.648438 Z M 142.808594 44.648438 " clip-rule="nonzero"/></clipPath><clipPath id="64870e0a39"><path d="M 109 451 L 158 451 L 158 500 L 109 500 Z M 109 451 " clip-rule="nonzero"/></clipPath><clipPath id="8303241d4e"><path d="M 109.796875 475.691406 C 109.796875 476.480469 109.835938 477.265625 109.910156 478.050781 C 109.988281 478.835938 110.105469 479.613281 110.257812 480.386719 C 110.414062 481.160156 110.605469 481.925781 110.832031 482.679688 C 111.0625 483.433594 111.328125 484.175781 111.628906 484.90625 C 111.929688 485.632812 112.269531 486.347656 112.640625 487.042969 C 113.011719 487.738281 113.417969 488.414062 113.855469 489.070312 C 114.292969 489.726562 114.761719 490.359375 115.261719 490.96875 C 115.761719 491.578125 116.292969 492.160156 116.847656 492.71875 C 117.40625 493.277344 117.992188 493.804688 118.601562 494.304688 C 119.210938 494.804688 119.84375 495.273438 120.5 495.714844 C 121.15625 496.152344 121.832031 496.558594 122.527344 496.929688 C 123.222656 497.300781 123.933594 497.636719 124.664062 497.9375 C 125.390625 498.242188 126.132812 498.507812 126.886719 498.734375 C 127.640625 498.964844 128.40625 499.15625 129.179688 499.308594 C 129.953125 499.464844 130.734375 499.578125 131.515625 499.65625 C 132.300781 499.734375 133.089844 499.773438 133.878906 499.773438 C 134.667969 499.773438 135.453125 499.734375 136.238281 499.65625 C 137.023438 499.578125 137.804688 499.464844 138.578125 499.308594 C 139.351562 499.15625 140.113281 498.964844 140.867188 498.734375 C 141.625 498.507812 142.367188 498.242188 143.09375 497.9375 C 143.824219 497.636719 144.535156 497.300781 145.230469 496.929688 C 145.925781 496.558594 146.601562 496.152344 147.257812 495.714844 C 147.914062 495.273438 148.546875 494.804688 149.15625 494.304688 C 149.765625 493.804688 150.347656 493.277344 150.90625 492.71875 C 151.464844 492.160156 151.992188 491.578125 152.492188 490.96875 C 152.996094 490.359375 153.464844 489.726562 153.902344 489.070312 C 154.339844 488.414062 154.746094 487.738281 155.117188 487.042969 C 155.488281 486.347656 155.824219 485.632812 156.128906 484.90625 C 156.429688 484.175781 156.695312 483.433594 156.921875 482.679688 C 157.152344 481.925781 157.34375 481.160156 157.496094 480.386719 C 157.652344 479.613281 157.765625 478.835938 157.84375 478.050781 C 157.921875 477.265625 157.960938 476.480469 157.960938 475.691406 C 157.960938 474.902344 157.921875 474.113281 157.84375 473.328125 C 157.765625 472.542969 157.652344 471.765625 157.496094 470.992188 C 157.34375 470.21875 157.152344 469.453125 156.921875 468.699219 C 156.695312 467.945312 156.429688 467.203125 156.128906 466.472656 C 155.824219 465.746094 155.488281 465.035156 155.117188 464.335938 C 154.746094 463.640625 154.339844 462.964844 153.902344 462.3125 C 153.464844 461.65625 152.996094 461.023438 152.492188 460.414062 C 151.992188 459.800781 151.464844 459.21875 150.90625 458.660156 C 150.347656 458.105469 149.765625 457.574219 149.15625 457.074219 C 148.546875 456.574219 147.914062 456.105469 147.257812 455.667969 C 146.601562 455.226562 145.925781 454.824219 145.230469 454.453125 C 144.535156 454.078125 143.824219 453.742188 143.09375 453.441406 C 142.367188 453.140625 141.625 452.875 140.867188 452.644531 C 140.113281 452.414062 139.351562 452.222656 138.578125 452.070312 C 137.804688 451.917969 137.023438 451.800781 136.238281 451.722656 C 135.453125 451.644531 134.667969 451.609375 133.878906 451.609375 C 133.089844 451.609375 132.300781 451.644531 131.515625 451.722656 C 130.734375 451.800781 129.953125 451.917969 129.179688 452.070312 C 128.40625 452.222656 127.640625 452.414062 126.886719 452.644531 C 126.132812 452.875 125.390625 453.140625 124.664062 453.441406 C 123.933594 453.742188 123.222656 454.078125 122.527344 454.453125 C 121.832031 454.824219 121.15625 455.226562 120.5 455.667969 C 119.84375 456.105469 119.210938 456.574219 118.601562 457.074219 C 117.992188 457.574219 117.40625 458.105469 116.847656 458.660156 C 116.292969 459.21875 115.761719 459.800781 115.261719 460.414062 C 114.761719 461.023438 114.292969 461.65625 113.855469 462.3125 C 113.417969 462.964844 113.011719 463.640625 112.640625 464.335938 C 112.269531 465.035156 111.929688 465.746094 111.628906 466.472656 C 111.328125 467.203125 111.0625 467.945312 110.832031 468.699219 C 110.605469 469.453125 110.414062 470.21875 110.257812 470.992188 C 110.105469 471.765625 109.988281 472.542969 109.910156 473.328125 C 109.835938 474.113281 109.796875 474.902344 109.796875 475.691406 Z M 109.796875 475.691406 " clip-rule="nonzero"/></clipPath><clipPath id="eeb1d71b75"><path d="M 551 305 L 612 305 L 612 366 L 551 366 Z M 551 305 " clip-rule="nonzero"/></clipPath><clipPath id="c62204a0a9"><path d="M 551.664062 335.253906 C 551.664062 336.230469 551.710938 337.203125 551.804688 338.171875 C 551.902344 339.144531 552.042969 340.105469 552.234375 341.0625 C 552.425781 342.019531 552.660156 342.964844 552.945312 343.894531 C 553.226562 344.828125 553.554688 345.746094 553.929688 346.644531 C 554.300781 347.546875 554.71875 348.425781 555.175781 349.285156 C 555.636719 350.144531 556.136719 350.980469 556.679688 351.792969 C 557.21875 352.601562 557.800781 353.382812 558.417969 354.136719 C 559.039062 354.890625 559.691406 355.613281 560.378906 356.300781 C 561.070312 356.992188 561.792969 357.644531 562.542969 358.265625 C 563.296875 358.882812 564.082031 359.460938 564.890625 360.003906 C 565.703125 360.546875 566.535156 361.046875 567.394531 361.503906 C 568.257812 361.964844 569.136719 362.382812 570.035156 362.753906 C 570.9375 363.128906 571.855469 363.457031 572.785156 363.738281 C 573.71875 364.023438 574.664062 364.257812 575.621094 364.449219 C 576.578125 364.636719 577.539062 364.78125 578.507812 364.878906 C 579.480469 364.972656 580.453125 365.019531 581.425781 365.019531 C 582.402344 365.019531 583.375 364.972656 584.34375 364.878906 C 585.316406 364.78125 586.277344 364.636719 587.234375 364.449219 C 588.191406 364.257812 589.132812 364.023438 590.066406 363.738281 C 591 363.457031 591.917969 363.128906 592.816406 362.753906 C 593.71875 362.382812 594.597656 361.964844 595.457031 361.503906 C 596.316406 361.046875 597.152344 360.546875 597.964844 360.003906 C 598.773438 359.460938 599.554688 358.882812 600.308594 358.265625 C 601.0625 357.644531 601.785156 356.992188 602.472656 356.300781 C 603.164062 355.613281 603.816406 354.890625 604.433594 354.136719 C 605.054688 353.382812 605.632812 352.601562 606.175781 351.792969 C 606.71875 350.980469 607.21875 350.144531 607.675781 349.285156 C 608.136719 348.425781 608.554688 347.546875 608.925781 346.644531 C 609.300781 345.746094 609.625 344.828125 609.910156 343.894531 C 610.191406 342.964844 610.429688 342.019531 610.621094 341.0625 C 610.808594 340.105469 610.953125 339.144531 611.046875 338.171875 C 611.144531 337.203125 611.191406 336.230469 611.191406 335.253906 C 611.191406 334.28125 611.144531 333.308594 611.046875 332.339844 C 610.953125 331.367188 610.808594 330.40625 610.621094 329.449219 C 610.429688 328.492188 610.191406 327.546875 609.910156 326.617188 C 609.625 325.683594 609.300781 324.765625 608.925781 323.867188 C 608.554688 322.964844 608.136719 322.085938 607.675781 321.226562 C 607.21875 320.367188 606.71875 319.53125 606.175781 318.71875 C 605.632812 317.910156 605.054688 317.128906 604.433594 316.375 C 603.816406 315.621094 603.164062 314.898438 602.472656 314.210938 C 601.785156 313.519531 601.0625 312.867188 600.308594 312.246094 C 599.554688 311.628906 598.773438 311.050781 597.964844 310.507812 C 597.152344 309.964844 596.316406 309.464844 595.457031 309.007812 C 594.597656 308.546875 593.71875 308.128906 592.816406 307.757812 C 591.917969 307.382812 591 307.054688 590.066406 306.773438 C 589.132812 306.488281 588.191406 306.253906 587.234375 306.0625 C 586.277344 305.875 585.316406 305.730469 584.34375 305.632812 C 583.375 305.539062 582.402344 305.492188 581.425781 305.492188 C 580.453125 305.492188 579.480469 305.539062 578.507812 305.632812 C 577.539062 305.730469 576.578125 305.875 575.621094 306.0625 C 574.664062 306.253906 573.71875 306.488281 572.785156 306.773438 C 571.855469 307.054688 570.9375 307.382812 570.035156 307.757812 C 569.136719 308.128906 568.257812 308.546875 567.394531 309.007812 C 566.535156 309.464844 565.703125 309.964844 564.890625 310.507812 C 564.082031 311.050781 563.296875 311.628906 562.542969 312.246094 C 561.792969 312.867188 561.070312 313.519531 560.378906 314.210938 C 559.691406 314.898438 559.039062 315.621094 558.417969 316.375 C 557.800781 317.128906 557.21875 317.910156 556.679688 318.71875 C 556.136719 319.53125 555.636719 320.367188 555.175781 321.226562 C 554.71875 322.085938 554.300781 322.964844 553.929688 323.867188 C 553.554688 324.765625 553.226562 325.683594 552.945312 326.617188 C 552.660156 327.546875 552.425781 328.492188 552.234375 329.449219 C 552.042969 330.40625 551.902344 331.367188 551.804688 332.339844 C 551.710938 333.308594 551.664062 334.28125 551.664062 335.253906 Z M 551.664062 335.253906 " clip-rule="nonzero"/></clipPath><clipPath id="8a7aa5fbf6"><path d="M 340 112.71875 L 482.453125 112.71875 L 482.453125 306 L 340 306 Z M 340 112.71875 " clip-rule="nonzero"/></clipPath><clipPath id="c1311b8b5b"><path d="M 407 112.71875 L 413 112.71875 L 413 306 L 407 306 Z M 407 112.71875 " clip-rule="nonzero"/></clipPath><clipPath id="670fb4a5d5"><path d="M 340 192 L 482.453125 192 L 482.453125 198 L 340 198 Z M 340 192 " clip-rule="nonzero"/></clipPath><clipPath id="c117c816ba"><path d="M 259 299 L 423 299 L 423 436.570312 L 259 436.570312 Z M 259 299 " clip-rule="nonzero"/></clipPath></defs><g clip-path="url(#bdf1930214)"><g clip-path="url(#e7eadc5691)"><path fill="#e0f2f1" d="M 638.519531 46.539062 L 638.519531 549.289062 L 0.480469 549.289062 L 0.480469 46.539062 Z M 638.519531 46.539062 " fill-opacity="1" fill-rule="nonzero"/></g></g><g clip-path="url(#49a5088812)"><g clip-path="url(#2c8d46be5f)"><path fill="#e0f2f1" d="M 232.101562 0 L 232.101562 89.292969 L 142.808594 89.292969 L 142.808594 0 Z M 232.101562 0 " fill-opacity="1" fill-rule="nonzero"/></g></g><g clip-path="url(#64870e0a39)"><g clip-path="url(#8303241d4e)"><path fill="#e0f2f1" d="M 157.960938 451.609375 L 157.960938 499.773438 L 109.796875 499.773438 L 109.796875 451.609375 Z M 157.960938 451.609375 " fill-opacity="1" fill-rule="nonzero"/></g></g><g clip-path="url(#eeb1d71b75)"><g clip-path="url(#c62204a0a9)"><path fill="#e0f2f1" d="M 611.191406 305.492188 L 611.191406 365.019531 L 551.664062 365.019531 L 551.664062 305.492188 Z M 611.191406 305.492188 " fill-opacity="1" fill-rule="nonzero"/></g></g><g clip-path="url(#8a7aa5fbf6)"><path fill="#dce7ea" d="M 340.546875 112.71875 L 482.445312 112.71875 L 482.445312 305.40625 L 340.546875 305.40625 Z M 340.546875 112.71875 " fill-opacity="1" fill-rule="nonzero"/></g><path fill="#ffffff" d="M 447.796875 177.226562 C 439.839844 177.226562 433.371094 183.679688 433.371094 191.679688 C 433.371094 183.699219 426.90625 177.226562 418.949219 177.226562 C 426.925781 177.226562 433.371094 170.757812 433.371094 162.796875 C 433.355469 170.757812 439.820312 177.226562 447.796875 177.226562 Z M 447.796875 177.226562 " fill-opacity="1" fill-rule="nonzero"/><path fill="#ffffff" d="M 460.0625 152.085938 C 455.171875 152.085938 451.191406 156.050781 451.191406 160.960938 C 451.191406 156.050781 447.214844 152.085938 442.324219 152.085938 C 447.230469 152.085938 451.191406 148.121094 451.191406 143.214844 C 451.191406 148.121094 455.171875 152.085938 460.0625 152.085938 Z M 460.0625 152.085938 " fill-opacity="1" fill-rule="nonzero"/><path fill="#ffffff" d="M 431.109375 144.414062 C 427.796875 144.414062 425.121094 147.09375 425.121094 150.421875 C 425.121094 147.109375 422.449219 144.414062 419.136719 144.414062 C 422.449219 144.414062 425.121094 141.738281 425.121094 138.425781 C 425.105469 141.738281 427.796875 144.414062 431.109375 144.414062 Z M 431.109375 144.414062 " fill-opacity="1" fill-rule="nonzero"/><path fill="#ffffff" d="M 408.367188 113.441406 L 411.503906 113.441406 L 411.503906 304.6875 L 408.367188 304.6875 Z M 408.367188 113.441406 " fill-opacity="1" fill-rule="nonzero"/><g clip-path="url(#c1311b8b5b)"><path fill="#dce7ea" d="M 411.488281 305.371094 L 408.347656 305.371094 C 407.972656 305.371094 407.664062 305.0625 407.664062 304.6875 L 407.664062 113.441406 C 407.664062 113.0625 407.972656 112.753906 408.347656 112.753906 L 411.488281 112.753906 C 411.863281 112.753906 412.171875 113.0625 412.171875 113.441406 L 412.171875 304.6875 C 412.171875 305.0625 411.863281 305.371094 411.488281 305.371094 Z M 409.050781 304 L 410.820312 304 L 410.820312 114.125 L 409.050781 114.125 Z M 409.050781 304 " fill-opacity="1" fill-rule="nonzero"/></g><path fill="#ffffff" d="M 341.269531 192.898438 L 481.722656 192.898438 L 481.722656 196.757812 L 341.269531 196.757812 Z M 341.269531 192.898438 " fill-opacity="1" fill-rule="nonzero"/><g clip-path="url(#670fb4a5d5)"><path fill="#dce7ea" d="M 481.722656 197.445312 L 341.269531 197.445312 C 340.890625 197.445312 340.582031 197.136719 340.582031 196.757812 L 340.582031 192.898438 C 340.582031 192.519531 340.890625 192.210938 341.269531 192.210938 L 481.722656 192.210938 C 482.101562 192.210938 482.410156 192.519531 482.410156 192.898438 L 482.410156 196.757812 C 482.410156 197.136719 482.101562 197.445312 481.722656 197.445312 Z M 341.957031 196.070312 L 481.035156 196.070312 L 481.035156 193.582031 L 341.957031 193.582031 Z M 341.957031 196.070312 " fill-opacity="1" fill-rule="nonzero"/></g><path fill="#292c56" d="M 357.425781 169.402344 C 339.109375 181.226562 338.628906 157.714844 327.546875 144.570312 C 316.46875 131.425781 304.71875 145.050781 304.71875 145.050781 L 307.789062 153.976562 C 307.789062 153.976562 318.097656 149.273438 314.082031 173.539062 C 310.070312 197.804688 319.246094 190.871094 327.015625 211.414062 C 334.785156 231.957031 323.671875 239.59375 323.671875 239.59375 C 355.351562 240.074219 372.84375 207.039062 372.84375 207.039062 C 372.84375 207.039062 375.726562 157.578125 357.425781 169.402344 Z M 357.425781 169.402344 " fill-opacity="1" fill-rule="nonzero"/><path fill="#ffffff" d="M 160.628906 299.246094 C 160.628906 299.246094 156.785156 267.496094 183.441406 250.78125 L 193.234375 280.847656 L 180.214844 297.410156 Z M 160.628906 299.246094 " fill-opacity="1" fill-rule="nonzero"/><path fill="#292c56" d="M 160.628906 299.933594 C 160.285156 299.933594 159.996094 299.675781 159.941406 299.332031 C 159.910156 299.003906 156.359375 266.949219 183.082031 250.214844 C 183.457031 249.976562 183.957031 250.164062 184.09375 250.59375 L 193.886719 280.660156 C 193.953125 280.882812 193.921875 281.125 193.765625 281.296875 L 180.746094 297.855469 C 180.628906 298.011719 180.457031 298.097656 180.265625 298.113281 Z M 183.082031 251.847656 C 159.960938 266.898438 160.921875 293.925781 161.261719 298.507812 L 179.875 296.757812 L 192.480469 280.730469 Z M 183.082031 251.847656 " fill-opacity="1" fill-rule="nonzero"/><g clip-path="url(#c117c816ba)"><path fill="#292c56" d="M 275.511719 299.246094 C 275.511719 299.246094 260.210938 326.328125 259.492188 352.636719 C 258.769531 378.945312 271.53125 436.570312 271.53125 436.570312 L 336.105469 436.570312 L 320.6875 360.855469 L 349.605469 436.570312 L 422.378906 436.570312 L 359.003906 299.246094 Z M 275.511719 299.246094 " fill-opacity="1" fill-rule="nonzero"/></g><path fill="#ffffff" d="M 436.921875 253.320312 C 434.453125 243.660156 427.746094 236.125 416.875 226.910156 C 408.503906 238.101562 400.132812 249.289062 391.761719 260.476562 C 393.203125 261.472656 394.644531 262.46875 396.066406 263.449219 C 387.988281 280.335938 379.929688 297.203125 371.851562 314.089844 C 378.230469 318.191406 384.628906 322.292969 391.007812 326.394531 C 423.460938 305.597656 442.789062 276.265625 436.921875 253.320312 Z M 436.921875 253.320312 " fill-opacity="1" fill-rule="nonzero"/><path fill="#292c56" d="M 391.007812 327.066406 C 390.699219 327.066406 390.941406 327.152344 371.472656 314.65625 C 371.179688 314.46875 371.078125 314.089844 371.234375 313.78125 L 395.195312 263.671875 L 391.367188 261.027344 C 391.042969 260.804688 390.972656 260.359375 391.214844 260.050781 L 416.324219 226.480469 C 416.546875 226.171875 417.011719 226.105469 417.320312 226.363281 C 427.609375 235.078125 434.984375 242.957031 437.59375 253.132812 C 443.40625 275.871094 424.847656 305.527344 391.386719 326.945312 C 391.265625 327.03125 391.144531 327.066406 391.007812 327.066406 Z M 372.726562 313.832031 L 391.007812 325.570312 C 423.734375 304.496094 441.898438 275.582031 436.253906 253.492188 C 433.785156 243.816406 427.042969 236.488281 416.976562 227.90625 L 392.742188 260.308594 L 396.460938 262.882812 C 396.738281 263.070312 396.839844 263.429688 396.6875 263.738281 Z M 372.726562 313.832031 " fill-opacity="1" fill-rule="nonzero"/><path fill="#ffffff" d="M 418.65625 224.492188 C 410.457031 218.5 383.1875 198.867188 376.945312 194.972656 C 361.285156 185.207031 346.65625 189.84375 306.3125 192.621094 C 265.835938 195.417969 253.882812 192.589844 239.476562 203.398438 C 231.363281 209.492188 214.261719 226.191406 200.4375 244.550781 L 237.261719 278.34375 L 260.84375 256.6875 C 267.484375 278.601562 275.492188 299.246094 275.492188 299.246094 L 358.988281 299.246094 C 358.988281 299.246094 361.78125 274.859375 363.960938 249.890625 L 389.226562 263.808594 C 399.050781 250.695312 408.863281 237.601562 418.65625 224.492188 Z M 418.65625 224.492188 " fill-opacity="1" fill-rule="nonzero"/><path fill="#292c56" d="M 359.019531 299.933594 L 275.511719 299.933594 C 275.21875 299.933594 274.976562 299.761719 274.875 299.484375 C 274.789062 299.28125 267.039062 279.21875 260.535156 257.921875 L 237.742188 278.859375 C 237.484375 279.097656 237.089844 279.097656 236.832031 278.875 L 199.992188 245.066406 C 199.734375 244.828125 199.699219 244.433594 199.90625 244.140625 C 206.957031 234.769531 214.757812 225.777344 223.09375 217.386719 C 245.238281 195.109375 249.472656 194.613281 281.101562 193.273438 C 300.757812 192.449219 309.691406 191.851562 330 189.960938 C 353.292969 187.800781 364.988281 186.71875 377.304688 194.390625 C 383.71875 198.386719 410.785156 217.882812 419.050781 223.941406 C 419.359375 224.164062 419.429688 224.59375 419.1875 224.902344 L 389.789062 264.203125 C 389.585938 264.476562 389.207031 264.5625 388.917969 264.390625 L 364.5625 250.988281 C 362.433594 275.339844 359.707031 299.074219 359.671875 299.316406 C 359.65625 299.675781 359.363281 299.933594 359.019531 299.933594 Z M 275.992188 298.558594 L 358.402344 298.558594 C 358.847656 294.628906 361.351562 272.335938 363.308594 249.820312 C 363.34375 249.324219 363.890625 249.050781 364.320312 249.273438 L 389.070312 262.898438 L 417.695312 224.628906 C 409.636719 218.742188 382.722656 199.367188 376.585938 195.539062 C 361.148438 185.914062 346.328125 190.546875 306.367188 193.292969 C 266.28125 196.054688 254.085938 193.273438 239.902344 203.929688 C 232.015625 209.851562 215.171875 226.222656 201.382812 244.449219 L 237.296875 277.398438 L 260.417969 256.1875 C 260.792969 255.84375 261.394531 256.015625 261.53125 256.496094 C 267.550781 276.386719 274.789062 295.453125 275.992188 298.558594 Z M 275.992188 298.558594 " fill-opacity="1" fill-rule="nonzero"/><path fill="#60afbd" d="M 280.621094 193.121094 C 276.332031 207.570312 272.046875 222.003906 267.773438 236.433594 C 262.644531 245.324219 257.519531 254.199219 252.390625 263.085938 L 257.808594 299.246094 C 249.421875 338.597656 247.964844 379.082031 253.46875 418.964844 C 303.105469 419.359375 352.761719 419.769531 402.398438 420.164062 L 361.183594 299.246094 L 363.601562 266.8125 L 347.683594 231.371094 L 336.722656 189.207031 L 330.359375 189.773438 C 330.859375 199.589844 331.355469 209.40625 331.851562 219.222656 C 329.828125 220.957031 317.582031 231.113281 301.496094 228.472656 C 294.515625 227.324219 289.386719 224.183594 286.402344 221.96875 C 287.035156 212.238281 287.6875 202.523438 288.320312 192.792969 C 285.75 192.898438 283.175781 193.015625 280.621094 193.121094 Z M 280.621094 193.121094 " fill-opacity="1" fill-rule="nonzero"/><path fill="#ffffff" d="M 306.144531 168.339844 L 308.800781 168.339844 C 312.984375 168.339844 316.382812 171.738281 316.382812 175.925781 L 316.382812 194.097656 C 316.382812 198.285156 312.984375 201.683594 308.800781 201.683594 L 306.144531 201.683594 C 301.957031 201.683594 298.5625 198.285156 298.5625 194.097656 L 298.5625 175.925781 C 298.5625 171.738281 301.957031 168.339844 306.144531 168.339844 Z M 306.144531 168.339844 " fill-opacity="1" fill-rule="nonzero"/><path fill="#292c56" d="M 308.816406 202.351562 L 306.160156 202.351562 C 301.597656 202.351562 297.894531 198.644531 297.894531 194.082031 L 297.894531 175.925781 C 297.894531 171.359375 301.597656 167.652344 306.160156 167.652344 L 308.816406 167.652344 C 313.378906 167.652344 317.085938 171.359375 317.085938 175.925781 L 317.085938 194.097656 C 317.085938 198.644531 313.363281 202.351562 308.816406 202.351562 Z M 306.144531 169.023438 C 302.335938 169.023438 299.246094 172.113281 299.246094 175.925781 L 299.246094 194.097656 C 299.246094 197.90625 302.335938 200.996094 306.144531 200.996094 L 308.800781 200.996094 C 312.609375 200.996094 315.695312 197.90625 315.695312 194.097656 L 315.695312 175.925781 C 315.695312 172.113281 312.609375 169.023438 308.800781 169.023438 Z M 306.144531 169.023438 " fill-opacity="1" fill-rule="nonzero"/><path fill="#ffffff" d="M 329.296875 164.324219 C 328.132812 162.296875 325.164062 161.800781 322.574219 163.140625 C 321.9375 151.519531 308.921875 146.027344 299.554688 151.160156 C 294.683594 153.835938 292.421875 157.785156 292.351562 162.96875 C 289.847656 161.851562 287.105469 162.382812 285.988281 164.324219 C 284.773438 166.433594 285.9375 169.386719 288.597656 170.914062 C 290.414062 171.960938 292.472656 172.078125 293.964844 171.375 C 296.589844 178.191406 302.027344 184.058594 307.617188 184.058594 C 313.191406 184.058594 318.75 178.191406 321.234375 171.34375 C 322.746094 172.078125 324.820312 171.976562 326.671875 170.914062 C 329.332031 169.386719 330.515625 166.433594 329.296875 164.324219 Z M 329.296875 164.324219 " fill-opacity="1" fill-rule="nonzero"/><path fill="#292c56" d="M 307.636719 184.746094 C 301.511719 184.746094 296.160156 178.394531 293.605469 172.269531 C 288.578125 173.8125 282.972656 168.234375 285.40625 163.996094 C 286.539062 162.023438 289.144531 161.25 291.71875 162.007812 C 292.0625 156.824219 294.683594 153.066406 299.246094 150.578125 C 305.386719 147.195312 313.757812 148.261719 318.714844 153.046875 C 321.066406 155.3125 322.796875 158.558594 323.191406 162.144531 C 325.867188 161.183594 328.695312 161.902344 329.898438 163.996094 C 331.304688 166.433594 330.019531 169.816406 327.035156 171.53125 C 325.300781 172.527344 323.3125 172.785156 321.648438 172.25 C 319.296875 178.136719 313.914062 184.746094 307.636719 184.746094 Z M 294.617188 171.136719 C 297.394531 178.34375 302.746094 183.371094 307.617188 183.371094 C 312.558594 183.371094 318.011719 178.222656 320.585938 171.117188 C 320.722656 170.742188 321.167969 170.550781 321.527344 170.742188 C 322.882812 171.410156 324.71875 171.257812 326.3125 170.328125 C 328.644531 168.992188 329.707031 166.449219 328.679688 164.667969 C 327.703125 162.96875 325.148438 162.574219 322.867188 163.738281 C 322.660156 163.84375 322.417969 163.84375 322.214844 163.722656 C 321.628906 163.378906 322.042969 162.898438 321.527344 160.652344 C 319.261719 151.058594 307.839844 147.386719 299.882812 151.761719 C 295.234375 154.300781 293.109375 158.042969 293.039062 162.96875 C 293.039062 163.464844 292.523438 163.792969 292.078125 163.585938 C 288.511719 162.007812 285.167969 164.253906 286.488281 167.582031 C 287.566406 170.3125 291.203125 171.925781 293.691406 170.757812 C 294.050781 170.585938 294.480469 170.757812 294.617188 171.136719 Z M 294.617188 171.136719 " fill-opacity="1" fill-rule="nonzero"/><path fill="#292c56" d="M 304.703125 183.527344 C 304.703125 183.527344 309.042969 188.210938 316.398438 186.375 L 316.398438 179.921875 C 316.398438 179.941406 310.84375 185.242188 304.703125 183.527344 Z M 304.703125 183.527344 " fill-opacity="1" fill-rule="nonzero"/><path fill="#292c56" d="M 288.921875 162.453125 C 288.921875 162.453125 290.980469 161.9375 293.449219 165.300781 C 295.921875 168.683594 310.535156 152.515625 310.535156 152.515625 C 310.535156 152.515625 316.226562 170.65625 324.289062 163.242188 L 326.878906 162.554688 C 331.148438 149.890625 322.761719 137.035156 308.800781 138.167969 C 307.15625 137.84375 298.355469 136.230469 292.234375 141.601562 C 288.21875 145.121094 287.054688 150.113281 285.972656 154.988281 C 284.976562 159.414062 284.910156 163.207031 285.011719 165.765625 C 286.332031 164.667969 287.617188 163.566406 288.921875 162.453125 Z M 288.921875 162.453125 " fill-opacity="1" fill-rule="nonzero"/><path fill="#60afbd" d="M 285.027344 165.78125 C 280.414062 154.421875 284.910156 141.617188 294.855469 136.144531 C 303.722656 131.253906 315.558594 132.933594 322.453125 140.726562 C 330.480469 149.789062 327.136719 161.800781 326.914062 162.574219 C 326.449219 150.335938 317.617188 140.914062 308.113281 140.003906 C 296.554688 138.890625 283.949219 150.335938 285.027344 165.78125 Z M 285.027344 165.78125 " fill-opacity="1" fill-rule="nonzero"/><path fill="#60afbd" d="M 185.980469 220.234375 L 213.746094 213.0625 C 215.941406 212.496094 218.171875 213.816406 218.738281 216.011719 L 229.457031 257.542969 C 230.023438 259.742188 228.703125 261.972656 226.507812 262.539062 L 198.738281 269.710938 C 196.542969 270.277344 194.316406 268.957031 193.75 266.757812 L 183.027344 225.230469 C 182.464844 223.03125 183.785156 220.800781 185.980469 220.234375 Z M 185.980469 220.234375 " fill-opacity="1" fill-rule="nonzero"/><path fill="#ffffff" d="M 206.714844 213.371094 L 207.28125 213.214844 C 208.15625 212.992188 209.066406 213.523438 209.289062 214.398438 L 225.460938 276.78125 C 225.683594 277.65625 225.152344 278.566406 224.277344 278.789062 L 223.710938 278.945312 C 222.835938 279.167969 221.929688 278.636719 221.707031 277.761719 L 205.53125 215.378906 C 205.292969 214.503906 205.824219 213.609375 206.714844 213.371094 Z M 206.714844 213.371094 " fill-opacity="1" fill-rule="nonzero"/><path fill="#292c56" d="M 223.300781 279.699219 C 222.253906 279.699219 221.3125 278.996094 221.035156 277.949219 L 204.863281 215.566406 C 204.535156 214.3125 205.292969 213.042969 206.542969 212.71875 L 207.109375 212.582031 C 208.363281 212.253906 209.632812 213.011719 209.957031 214.261719 L 226.128906 276.644531 C 226.457031 277.898438 225.703125 279.167969 224.449219 279.492188 C 223.917969 279.613281 223.679688 279.699219 223.300781 279.699219 Z M 207.691406 213.851562 C 207.519531 213.851562 207.46875 213.886719 206.886719 214.023438 C 206.371094 214.160156 206.0625 214.691406 206.199219 215.207031 L 222.375 277.589844 C 222.511719 278.101562 223.042969 278.410156 223.558594 278.273438 L 224.125 278.136719 C 224.636719 278 224.949219 277.46875 224.808594 276.953125 L 208.636719 214.570312 C 208.515625 214.144531 208.121094 213.867188 207.691406 213.851562 Z M 207.691406 213.851562 " fill-opacity="1" fill-rule="nonzero"/><path fill="#292c56" d="M 212.511719 234.582031 C 210.503906 226.824219 212.804688 235.699219 212.511719 234.582031 L 211.707031 231.457031 L 212.511719 234.582031 L 211.707031 231.457031 L 212.511719 234.582031 C 210.4375 235.113281 207.96875 232.195312 205.910156 232.179688 C 203.78125 232.160156 201.261719 235.027344 199.269531 234.480469 C 197.246094 233.914062 196.5625 230.152344 194.761719 229.089844 C 192.960938 228.027344 189.339844 229.261719 187.867188 227.769531 C 186.40625 226.292969 187.695312 222.6875 186.648438 220.851562 C 185.636719 219.066406 181.878906 218.328125 181.347656 216.253906 C 180.800781 214.144531 183.921875 213.335938 183.371094 211.207031 C 182.824219 209.097656 179.703125 209.902344 179.152344 207.792969 C 178.605469 205.683594 181.726562 204.875 181.175781 202.746094 C 180.628906 200.636719 177.507812 201.441406 176.957031 199.332031 C 176.410156 197.222656 179.53125 196.398438 178.980469 194.285156 C 178.433594 192.175781 175.3125 192.984375 174.761719 190.855469 C 174.230469 188.777344 177.144531 186.308594 177.164062 184.246094 C 177.179688 182.121094 174.316406 179.597656 174.863281 177.605469 C 175.429688 175.582031 179.1875 174.894531 180.25 173.09375 C 181.3125 171.289062 180.078125 167.667969 181.570312 166.195312 C 183.046875 164.734375 186.648438 166.023438 188.484375 164.976562 C 190.265625 163.960938 191.003906 160.203125 193.078125 159.671875 L 193.886719 162.796875 L 193.078125 159.671875 L 193.886719 162.796875 L 193.078125 159.671875 L 193.886719 162.796875 L 193.078125 159.671875 C 195.15625 159.140625 197.625 162.058594 199.683594 162.074219 C 201.808594 162.09375 204.332031 159.226562 206.320312 159.773438 C 208.34375 160.339844 209.03125 164.101562 210.832031 165.164062 C 212.632812 166.226562 216.25 164.992188 217.726562 166.484375 C 219.183594 167.960938 217.898438 171.566406 218.945312 173.402344 C 219.957031 175.1875 223.710938 175.925781 224.242188 178 C 224.792969 180.113281 221.671875 180.917969 222.21875 183.046875 C 222.769531 185.15625 225.890625 184.351562 226.441406 186.460938 C 226.988281 188.570312 223.867188 189.378906 224.414062 191.507812 C 224.964844 193.617188 228.085938 192.8125 228.636719 194.921875 C 229.183594 197.03125 226.0625 197.855469 226.609375 199.96875 C 227.160156 202.078125 230.28125 201.273438 230.832031 203.398438 C 231.363281 205.476562 228.445312 207.949219 228.429688 210.007812 C 228.410156 212.117188 231.277344 214.65625 230.726562 216.648438 C 230.160156 218.671875 226.40625 219.359375 225.34375 221.160156 C 224.277344 222.964844 225.511719 226.585938 224.019531 228.058594 C 222.546875 229.519531 218.945312 228.230469 217.109375 229.277344 C 215.324219 230.292969 214.585938 234.050781 212.511719 234.582031 Z M 212.511719 234.582031 " fill-opacity="1" fill-rule="nonzero"/><path fill="#ffffff" d="M 277.464844 263.929688 L 270.417969 199.574219 C 265.066406 199.863281 259.695312 200.171875 254.34375 200.464844 L 252.886719 218.347656 C 252.75 219.960938 251.429688 221.214844 249.816406 221.246094 L 243.128906 221.402344 C 233.179688 221.625 225.03125 229.398438 224.347656 239.335938 L 222.582031 265.164062 C 222.1875 270.878906 226.800781 275.71875 232.527344 275.582031 L 267.980469 274.773438 C 273.726562 274.652344 278.117188 269.625 277.464844 263.929688 Z M 277.464844 263.929688 " fill-opacity="1" fill-rule="nonzero"/><path fill="#292c56" d="M 232.324219 276.265625 C 226.269531 276.265625 221.5 271.136719 221.910156 265.113281 L 223.679688 239.285156 C 224.382812 228.917969 232.75 220.9375 243.109375 220.699219 L 249.800781 220.542969 C 251.070312 220.507812 252.097656 219.53125 252.199219 218.277344 L 253.660156 200.394531 C 253.691406 200.054688 253.96875 199.777344 254.3125 199.761719 L 270.382812 198.867188 C 270.742188 198.851562 271.066406 199.125 271.101562 199.488281 L 278.152344 263.84375 C 278.835938 269.933594 274.15625 275.324219 268.015625 275.460938 Z M 254.980469 201.101562 L 253.574219 218.382812 C 253.417969 220.355469 251.804688 221.867188 249.835938 221.917969 L 243.144531 222.070312 C 233.488281 222.292969 225.703125 229.726562 225.050781 239.371094 L 223.285156 265.199219 C 222.90625 270.605469 227.332031 275.03125 232.527344 274.875 L 267.980469 274.070312 C 273.296875 273.949219 277.378906 269.265625 276.777344 263.980469 L 269.796875 200.257812 Z M 254.980469 201.101562 " fill-opacity="1" fill-rule="nonzero"/><path fill="#60afbd" d="M 233.023438 180.507812 L 241.046875 180.328125 L 241.214844 187.789062 L 233.191406 187.972656 Z M 233.023438 180.507812 " fill-opacity="1" fill-rule="nonzero"/><path fill="#60afbd" d="M 246.796875 211.019531 L 245.5625 211.054688 C 244.292969 211.085938 243.230469 210.074219 243.230469 208.804688 C 243.179688 202.078125 242.148438 195.453125 240.246094 189.070312 C 239.816406 187.609375 240.898438 186.152344 242.425781 186.136719 C 243.695312 186.136719 245.117188 186.117188 246.285156 186.101562 C 247.535156 186.101562 248.546875 187.097656 248.582031 188.332031 L 249.046875 208.683594 C 249.0625 209.957031 248.066406 211.003906 246.796875 211.019531 Z M 246.796875 211.019531 " fill-opacity="1" fill-rule="nonzero"/><path fill="#ffffff" d="M 253.777344 198.183594 C 252.714844 195.488281 249.628906 191.078125 240.726562 188.949219 C 239.199219 188.589844 238.101562 187.25 238.066406 185.671875 L 238.015625 183.199219 C 237.984375 181.296875 239.476562 179.734375 241.378906 179.683594 L 278.269531 178.839844 C 279.351562 178.824219 280.382812 179.304688 281.050781 180.164062 L 286.796875 187.492188 C 288.289062 189.394531 287.394531 192.210938 285.082031 192.914062 C 281.222656 194.082031 277.34375 195.246094 273.484375 196.433594 C 272.335938 196.773438 271.855469 197.496094 271.375 198.164062 C 270.777344 199.007812 269.816406 199.539062 268.769531 199.605469 L 257.15625 200.292969 C 255.699219 200.378906 254.328125 199.539062 253.777344 198.183594 Z M 253.777344 198.183594 " fill-opacity="1" fill-rule="nonzero"/><path fill="#292c56" d="M 256.953125 200.980469 C 255.269531 200.980469 253.761719 199.984375 253.144531 198.441406 C 252.199219 196.039062 249.300781 191.710938 240.574219 189.617188 C 238.738281 189.171875 237.433594 187.558594 237.382812 185.6875 L 237.332031 183.21875 C 237.277344 180.933594 239.082031 179.046875 241.363281 178.996094 L 278.253906 178.15625 C 279.539062 178.136719 280.792969 178.722656 281.597656 179.734375 L 287.34375 187.0625 C 289.128906 189.34375 288.066406 192.726562 285.285156 193.550781 L 273.691406 197.066406 C 272.714844 197.359375 272.335938 197.992188 271.941406 198.542969 C 271.222656 199.574219 270.074219 200.191406 268.820312 200.257812 Z M 278.339844 179.546875 L 241.378906 180.386719 C 239.851562 180.421875 238.652344 181.671875 238.6875 183.199219 L 238.738281 185.671875 C 238.769531 186.925781 239.644531 187.988281 240.882812 188.296875 C 250.230469 190.527344 253.367188 195.300781 254.414062 197.941406 C 254.84375 199.007812 255.90625 199.675781 257.105469 199.605469 L 268.71875 198.921875 C 269.558594 198.867188 270.3125 198.457031 270.792969 197.769531 L 271.101562 197.339844 C 271.632812 196.605469 272.386719 196.054688 273.261719 195.796875 L 284.859375 192.277344 C 286.710938 191.710938 287.429688 189.464844 286.230469 187.9375 L 280.484375 180.609375 C 279.988281 179.941406 279.199219 179.546875 278.339844 179.546875 Z M 278.339844 179.546875 " fill-opacity="1" fill-rule="nonzero"/><path fill="#60afbd" d="M 254.035156 196.84375 L 270.621094 196.464844 C 271.789062 196.433594 272.765625 197.375 272.78125 198.542969 L 272.886719 202.902344 C 272.921875 204.070312 271.976562 205.046875 270.808594 205.0625 L 254.226562 205.441406 C 253.058594 205.476562 252.082031 204.53125 252.0625 203.367188 L 251.960938 199.007812 C 251.945312 197.839844 252.871094 196.859375 254.035156 196.84375 Z M 254.035156 196.84375 " fill-opacity="1" fill-rule="nonzero"/><path fill="#60afbd" d="M 263.402344 269.078125 L 236.886719 269.675781 C 232.597656 269.78125 229.148438 266.160156 229.441406 261.886719 L 230.726562 243.230469 C 231.257812 235.421875 237.65625 229.3125 245.476562 229.140625 L 260.160156 228.816406 C 263.933594 228.730469 267.140625 231.527344 267.570312 235.285156 L 270.5 260.976562 C 270.964844 265.230469 267.6875 268.992188 263.402344 269.078125 Z M 263.402344 269.078125 " fill-opacity="1" fill-rule="nonzero"/><path fill="#ffffff" d="M 278.820312 353.339844 L 187.351562 353.339844 L 180.234375 247.332031 L 285.9375 247.332031 Z M 278.820312 353.339844 " fill-opacity="1" fill-rule="nonzero"/><path fill="#292c56" d="M 278.820312 354.023438 L 187.351562 354.023438 C 186.992188 354.023438 186.683594 353.75 186.664062 353.390625 L 179.546875 247.382812 C 179.511719 246.988281 179.839844 246.644531 180.234375 246.644531 L 285.9375 246.644531 C 286.332031 246.644531 286.660156 246.988281 286.625 247.382812 L 279.507812 353.390625 C 279.488281 353.734375 279.179688 354.023438 278.820312 354.023438 Z M 187.984375 352.652344 L 278.1875 352.652344 L 285.21875 248.019531 L 180.972656 248.019531 Z M 187.984375 352.652344 " fill-opacity="1" fill-rule="nonzero"/><path fill="#ffffff" d="M 174.710938 245.171875 L 291.460938 245.171875 L 291.460938 253.132812 L 174.710938 253.132812 Z M 174.710938 245.171875 " fill-opacity="1" fill-rule="nonzero"/><path fill="#292c56" d="M 291.460938 253.800781 L 174.710938 253.800781 C 174.332031 253.800781 174.023438 253.492188 174.023438 253.117188 L 174.023438 245.152344 C 174.023438 244.777344 174.332031 244.46875 174.710938 244.46875 L 291.460938 244.46875 C 291.839844 244.46875 292.148438 244.777344 292.148438 245.152344 L 292.148438 253.117188 C 292.148438 253.492188 291.839844 253.800781 291.460938 253.800781 Z M 175.398438 252.429688 L 290.773438 252.429688 L 290.773438 245.839844 L 175.398438 245.839844 Z M 175.398438 252.429688 " fill-opacity="1" fill-rule="nonzero"/><path fill="#60afbd" d="M 184.402344 309.421875 C 184.402344 309.421875 192.53125 310.347656 198.636719 314.605469 C 204.742188 318.863281 208.515625 315.085938 209.082031 319.101562 C 209.648438 323.117188 196.304688 324.558594 189.957031 322.3125 C 189.957031 322.3125 197.660156 331.476562 202.804688 334.050781 C 207.949219 336.625 217.914062 337.824219 217.109375 341.292969 C 216.304688 344.742188 202.976562 344.5 196.0625 340.640625 C 196.0625 340.640625 215.101562 346.921875 214.535156 350.128906 C 213.96875 353.339844 201.605469 352.136719 192.53125 347.230469 C 192.53125 347.230469 206.507812 352.859375 204.742188 356.71875 C 202.976562 360.582031 190.730469 356.238281 184.402344 350.765625 C 190.574219 357.21875 198.089844 365.761719 189.804688 362.503906 C 178.722656 358.125 171.246094 343.933594 171.246094 343.933594 C 161.453125 325.332031 159.066406 302.144531 158.398438 293.460938 C 166.648438 292.554688 174.898438 291.625 183.148438 290.714844 C 183.5625 296.945312 183.972656 303.191406 184.402344 309.421875 Z M 184.402344 309.421875 " fill-opacity="1" fill-rule="nonzero"/><path fill="#292c56" d="M 164.96875 299.089844 C 161.519531 293.257812 162.773438 285.824219 167.9375 281.449219 L 179.273438 271.582031 C 180.148438 270.84375 181.433594 270.945312 182.171875 271.820312 C 182.910156 272.699219 182.804688 273.984375 181.929688 274.722656 L 170.59375 284.589844 C 166.957031 287.679688 166.082031 292.894531 168.5 296.996094 C 171.589844 302.214844 178.621094 303.382812 183.21875 299.453125 L 239.164062 251.726562 C 240.023438 250.988281 241.328125 251.089844 242.066406 251.949219 C 242.800781 252.808594 242.699219 254.113281 241.839844 254.847656 L 185.894531 302.574219 C 179.359375 308.1875 169.34375 306.503906 164.96875 299.089844 Z M 164.96875 299.089844 " fill-opacity="1" fill-rule="nonzero"/><path fill="#292c56" d="M 247.863281 250.148438 C 247.863281 250.628906 247.816406 251.101562 247.722656 251.574219 C 247.628906 252.042969 247.488281 252.5 247.304688 252.945312 C 247.121094 253.386719 246.898438 253.808594 246.628906 254.207031 C 246.363281 254.609375 246.0625 254.976562 245.722656 255.316406 C 245.382812 255.65625 245.011719 255.960938 244.613281 256.226562 C 244.214844 256.492188 243.792969 256.71875 243.351562 256.902344 C 242.90625 257.085938 242.453125 257.222656 241.980469 257.316406 C 241.511719 257.410156 241.035156 257.457031 240.554688 257.457031 C 240.074219 257.457031 239.601562 257.410156 239.128906 257.316406 C 238.660156 257.222656 238.203125 257.085938 237.757812 256.902344 C 237.316406 256.71875 236.894531 256.492188 236.496094 256.226562 C 236.097656 255.960938 235.726562 255.65625 235.390625 255.316406 C 235.050781 254.976562 234.746094 254.609375 234.480469 254.207031 C 234.214844 253.808594 233.988281 253.386719 233.804688 252.945312 C 233.621094 252.5 233.484375 252.042969 233.390625 251.574219 C 233.296875 251.101562 233.25 250.628906 233.25 250.148438 C 233.25 249.667969 233.296875 249.191406 233.390625 248.722656 C 233.484375 248.25 233.621094 247.792969 233.804688 247.347656 C 233.988281 246.90625 234.214844 246.484375 234.480469 246.085938 C 234.746094 245.6875 235.050781 245.316406 235.390625 244.976562 C 235.726562 244.636719 236.097656 244.335938 236.496094 244.070312 C 236.894531 243.800781 237.316406 243.578125 237.757812 243.394531 C 238.203125 243.210938 238.660156 243.070312 239.128906 242.976562 C 239.601562 242.882812 240.074219 242.835938 240.554688 242.835938 C 241.035156 242.835938 241.511719 242.882812 241.980469 242.976562 C 242.453125 243.070312 242.90625 243.210938 243.351562 243.394531 C 243.792969 243.578125 244.214844 243.800781 244.613281 244.070312 C 245.011719 244.335938 245.382812 244.636719 245.722656 244.976562 C 246.0625 245.316406 246.363281 245.6875 246.628906 246.085938 C 246.898438 246.484375 247.121094 246.90625 247.304688 247.347656 C 247.488281 247.792969 247.628906 248.25 247.722656 248.722656 C 247.816406 249.191406 247.863281 249.667969 247.863281 250.148438 Z M 247.863281 250.148438 " fill-opacity="1" fill-rule="nonzero"/><path fill="#60afbd" d="M 382.742188 284.796875 L 368.523438 313.730469 C 368.523438 313.730469 351.902344 339.402344 352.984375 345.085938 C 354.0625 350.746094 361.421875 347.261719 361.421875 347.261719 C 361.421875 347.261719 359.382812 357.40625 366.960938 353.355469 C 366.960938 353.355469 366.378906 362.367188 373.035156 357.957031 C 373.035156 357.957031 372.140625 365.027344 378.332031 363.585938 C 384.523438 362.140625 392.707031 352.015625 393.597656 348.789062 C 394.492188 345.582031 388.453125 345.734375 388.453125 345.734375 C 388.453125 345.734375 402.515625 333.996094 396.171875 326.394531 L 414.488281 310.367188 Z M 382.742188 284.796875 " fill-opacity="1" fill-rule="nonzero"/><path fill="#292c56" d="M 376.910156 364.714844 C 373.976562 364.714844 372.691406 361.953125 372.398438 359.035156 C 368.488281 360.871094 366.34375 358.554688 366.257812 354.300781 C 361.078125 355.914062 359.089844 353.289062 360.308594 348.480469 C 356.535156 349.855469 353.328125 349.066406 352.316406 345.253906 C 350.71875 339.179688 363.976562 319.460938 365.503906 317.25 C 365.710938 316.9375 366.140625 316.855469 366.464844 317.058594 C 366.773438 317.265625 366.859375 317.695312 366.652344 318.019531 C 362.621094 323.925781 352.433594 340.277344 353.652344 344.914062 C 353.996094 346.234375 354.628906 347.058594 355.574219 347.46875 C 357.820312 348.429688 361.0625 346.679688 361.097656 346.664062 C 361.664062 346.355469 362.296875 346.921875 362.058594 347.519531 C 361.628906 348.621094 360.753906 351.742188 361.917969 352.925781 C 362.675781 353.683594 364.335938 353.613281 366.722656 352.722656 C 367.203125 352.550781 367.683594 352.925781 367.648438 353.425781 C 367.5625 354.4375 367.664062 357.269531 369.003906 358.09375 C 369.996094 358.710938 371.558594 358.039062 372.691406 357.371094 C 373.152344 357.097656 373.738281 357.441406 373.738281 357.972656 C 373.71875 359.085938 374.0625 362.195312 375.761719 363.105469 C 377.289062 363.925781 379.550781 362.761719 381.179688 361.644531 C 381.488281 361.4375 381.917969 361.507812 382.140625 361.816406 C 382.347656 362.125 382.277344 362.554688 381.96875 362.777344 C 380.015625 364.046875 378.332031 364.714844 376.910156 364.714844 Z M 376.910156 364.714844 " fill-opacity="1" fill-rule="nonzero"/></svg>