<svg xmlns="http://www.w3.org/2000/svg" xmlns:xlink="http://www.w3.org/1999/xlink" width="923" zoomAndPan="magnify" viewBox="0 0 692.25 889.499977" height="1186" preserveAspectRatio="xMidYMid meet" version="1.0"><defs><g/><clipPath id="9b0b774625"><path d="M 55 322 L 609 322 L 609 809 L 55 809 Z M 55 322 " clip-rule="nonzero"/></clipPath><clipPath id="2f8ffdd6b4"><path d="M 0 400.507812 L 566.9375 255.785156 L 691.457031 743.597656 L 124.523438 888.320312 Z M 0 400.507812 " clip-rule="nonzero"/></clipPath><clipPath id="c1e1c1ccd4"><path d="M 566.890625 255.796875 L -0.0429688 400.519531 L 124.476562 888.332031 L 691.414062 743.609375 Z M 566.890625 255.796875 " clip-rule="nonzero"/></clipPath><clipPath id="797f602741"><path d="M 155.269531 472.40625 C 160.074219 471.179688 164.699219 470.253906 169.382812 469.570312 C 203.507812 464.953125 234.683594 447.785156 255.285156 420.269531 C 270.21875 400.597656 291.664062 385.402344 317.601562 378.78125 C 333.453125 374.734375 349.683594 374.175781 364.964844 376.925781 C 382.113281 379.964844 399.695312 373.6875 411.234375 360.765625 C 427.136719 342.890625 448.65625 329.980469 474 325.046875 C 531.054688 314.0625 590.078125 347.855469 604.421875 404.054688 C 621.097656 469.378906 586.242188 508.203125 557.125 528.429688 C 539.511719 540.597656 532.894531 563.777344 541.046875 583.695312 C 546.585938 597.375 551.886719 612.136719 554.171875 624.085938 C 569.28125 701.324219 523.015625 778.621094 447.625 801.957031 C 382.199219 822.242188 314.925781 797.203125 276.859375 746.292969 C 263.667969 728.683594 241.027344 721.164062 219.710938 726.859375 C 219.472656 726.921875 219.472656 726.921875 219.230469 726.980469 C 148.863281 744.945312 77.417969 702.554688 59.695312 632.125 C 42.335938 562.117188 85.261719 489.765625 155.269531 472.40625 Z M 155.269531 472.40625 " clip-rule="nonzero"/></clipPath><clipPath id="ddaee2f47b"><path d="M 135 356 L 218 356 L 218 439 L 135 439 Z M 135 356 " clip-rule="nonzero"/></clipPath><clipPath id="9e0476be10"><path d="M 0 400.507812 L 566.9375 255.785156 L 691.457031 743.597656 L 124.523438 888.320312 Z M 0 400.507812 " clip-rule="nonzero"/></clipPath><clipPath id="f1aa101975"><path d="M 566.890625 255.796875 L -0.0429688 400.519531 L 124.476562 888.332031 L 691.414062 743.609375 Z M 566.890625 255.796875 " clip-rule="nonzero"/></clipPath><clipPath id="7d9bafd898"><path d="M 136.734375 407.8125 C 137.066406 409.109375 137.460938 410.386719 137.917969 411.648438 C 138.375 412.90625 138.890625 414.140625 139.46875 415.347656 C 140.046875 416.554688 140.683594 417.734375 141.378906 418.878906 C 142.070312 420.023438 142.820312 421.132812 143.625 422.207031 C 144.425781 423.277344 145.277344 424.308594 146.183594 425.296875 C 147.085938 426.285156 148.039062 427.226562 149.035156 428.121094 C 150.03125 429.015625 151.066406 429.859375 152.148438 430.652344 C 153.226562 431.445312 154.34375 432.183594 155.496094 432.867188 C 156.648438 433.550781 157.828125 434.175781 159.042969 434.746094 C 160.257812 435.3125 161.496094 435.820312 162.757812 436.265625 C 164.019531 436.710938 165.304688 437.09375 166.605469 437.410156 C 167.902344 437.730469 169.21875 437.988281 170.542969 438.175781 C 171.871094 438.367188 173.199219 438.492188 174.539062 438.550781 C 175.878906 438.613281 177.214844 438.605469 178.550781 438.535156 C 179.890625 438.464844 181.222656 438.324219 182.546875 438.125 C 183.867188 437.921875 185.179688 437.652344 186.476562 437.324219 C 187.777344 436.992188 189.054688 436.597656 190.3125 436.140625 C 191.574219 435.683594 192.804688 435.164062 194.015625 434.585938 C 195.222656 434.007812 196.398438 433.375 197.546875 432.679688 C 198.691406 431.984375 199.800781 431.238281 200.871094 430.433594 C 201.945312 429.632812 202.976562 428.777344 203.964844 427.875 C 204.953125 426.972656 205.894531 426.019531 206.789062 425.023438 C 207.683594 424.027344 208.527344 422.988281 209.320312 421.910156 C 210.113281 420.832031 210.851562 419.714844 211.535156 418.5625 C 212.21875 417.410156 212.84375 416.230469 213.410156 415.015625 C 213.980469 413.800781 214.484375 412.5625 214.929688 411.300781 C 215.375 410.039062 215.757812 408.753906 216.078125 407.453125 C 216.398438 406.152344 216.652344 404.839844 216.84375 403.515625 C 217.035156 402.1875 217.160156 400.855469 217.21875 399.519531 C 217.277344 398.179688 217.273438 396.84375 217.203125 395.503906 C 217.128906 394.167969 216.992188 392.835938 216.789062 391.511719 C 216.585938 390.1875 216.320312 388.878906 215.988281 387.582031 C 215.65625 386.28125 215.265625 385.003906 214.808594 383.746094 C 214.351562 382.484375 213.832031 381.253906 213.253906 380.042969 C 212.675781 378.835938 212.039062 377.660156 211.347656 376.511719 C 210.652344 375.367188 209.90625 374.257812 209.101562 373.1875 C 208.300781 372.113281 207.445312 371.082031 206.542969 370.09375 C 205.636719 369.105469 204.6875 368.164062 203.691406 367.269531 C 202.695312 366.375 201.65625 365.53125 200.578125 364.738281 C 199.496094 363.945312 198.382812 363.207031 197.230469 362.523438 C 196.078125 361.839844 194.894531 361.214844 193.683594 360.648438 C 192.46875 360.078125 191.230469 359.574219 189.96875 359.128906 C 188.703125 358.683594 187.421875 358.300781 186.121094 357.980469 C 184.820312 357.660156 183.507812 357.40625 182.183594 357.214844 C 180.855469 357.023438 179.523438 356.898438 178.1875 356.839844 C 176.847656 356.78125 175.511719 356.785156 174.171875 356.855469 C 172.835938 356.929688 171.503906 357.066406 170.179688 357.269531 C 168.855469 357.472656 167.546875 357.738281 166.246094 358.070312 C 164.949219 358.402344 163.671875 358.792969 162.410156 359.25 C 161.152344 359.707031 159.917969 360.226562 158.710938 360.804688 C 157.503906 361.382812 156.324219 362.019531 155.179688 362.710938 C 154.035156 363.40625 152.925781 364.152344 151.851562 364.957031 C 150.78125 365.757812 149.75 366.613281 148.761719 367.515625 C 147.773438 368.421875 146.832031 369.371094 145.9375 370.367188 C 145.042969 371.363281 144.199219 372.402344 143.40625 373.480469 C 142.609375 374.5625 141.871094 375.675781 141.191406 376.828125 C 140.507812 377.980469 139.878906 379.164062 139.3125 380.375 C 138.746094 381.589844 138.238281 382.828125 137.792969 384.089844 C 137.347656 385.355469 136.964844 386.636719 136.648438 387.9375 C 136.328125 389.238281 136.070312 390.550781 135.882812 391.875 C 135.691406 393.203125 135.566406 394.535156 135.503906 395.871094 C 135.445312 397.210938 135.453125 398.546875 135.523438 399.886719 C 135.59375 401.222656 135.734375 402.554688 135.933594 403.878906 C 136.136719 405.203125 136.40625 406.511719 136.734375 407.8125 Z M 136.734375 407.8125 " clip-rule="nonzero"/></clipPath><clipPath id="45207685c8"><path d="M 204 770 L 249 770 L 249 815 L 204 815 Z M 204 770 " clip-rule="nonzero"/></clipPath><clipPath id="a9c69432f4"><path d="M 0 400.507812 L 566.9375 255.785156 L 691.457031 743.597656 L 124.523438 888.320312 Z M 0 400.507812 " clip-rule="nonzero"/></clipPath><clipPath id="e15e9fb968"><path d="M 566.890625 255.796875 L -0.0429688 400.519531 L 124.476562 888.332031 L 691.414062 743.609375 Z M 566.890625 255.796875 " clip-rule="nonzero"/></clipPath><clipPath id="2be7cfb5c5"><path d="M 205.09375 797.867188 C 205.273438 798.570312 205.484375 799.257812 205.734375 799.9375 C 205.980469 800.617188 206.257812 801.28125 206.570312 801.933594 C 206.882812 802.585938 207.226562 803.21875 207.597656 803.839844 C 207.972656 804.457031 208.378906 805.054688 208.808594 805.632812 C 209.242188 806.210938 209.703125 806.765625 210.191406 807.300781 C 210.679688 807.832031 211.191406 808.339844 211.726562 808.824219 C 212.265625 809.308594 212.824219 809.761719 213.40625 810.191406 C 213.992188 810.617188 214.59375 811.015625 215.214844 811.382812 C 215.835938 811.753906 216.472656 812.089844 217.128906 812.394531 C 217.78125 812.703125 218.449219 812.976562 219.132812 813.214844 C 219.8125 813.457031 220.503906 813.664062 221.207031 813.835938 C 221.90625 814.007812 222.617188 814.144531 223.332031 814.246094 C 224.046875 814.351562 224.765625 814.417969 225.484375 814.449219 C 226.207031 814.484375 226.929688 814.480469 227.652344 814.441406 C 228.371094 814.402344 229.089844 814.328125 229.804688 814.21875 C 230.519531 814.109375 231.226562 813.964844 231.925781 813.785156 C 232.625 813.609375 233.316406 813.394531 233.996094 813.148438 C 234.671875 812.902344 235.339844 812.625 235.992188 812.3125 C 236.640625 812 237.277344 811.65625 237.894531 811.28125 C 238.511719 810.910156 239.113281 810.503906 239.691406 810.070312 C 240.269531 809.640625 240.824219 809.179688 241.355469 808.691406 C 241.890625 808.203125 242.398438 807.691406 242.882812 807.152344 C 243.363281 806.617188 243.820312 806.054688 244.246094 805.472656 C 244.675781 804.890625 245.074219 804.289062 245.441406 803.667969 C 245.808594 803.046875 246.148438 802.410156 246.453125 801.753906 C 246.757812 801.101562 247.03125 800.433594 247.273438 799.75 C 247.511719 799.070312 247.71875 798.378906 247.890625 797.675781 C 248.0625 796.976562 248.203125 796.265625 248.304688 795.550781 C 248.40625 794.835938 248.476562 794.117188 248.507812 793.394531 C 248.539062 792.675781 248.535156 791.953125 248.496094 791.230469 C 248.457031 790.507812 248.386719 789.792969 248.277344 789.078125 C 248.167969 788.363281 248.023438 787.65625 247.84375 786.957031 C 247.664062 786.257812 247.453125 785.566406 247.207031 784.886719 C 246.960938 784.207031 246.679688 783.542969 246.367188 782.890625 C 246.058594 782.238281 245.714844 781.605469 245.339844 780.988281 C 244.964844 780.367188 244.5625 779.769531 244.128906 779.191406 C 243.695312 778.613281 243.234375 778.058594 242.746094 777.523438 C 242.261719 776.992188 241.746094 776.484375 241.210938 776 C 240.671875 775.519531 240.113281 775.0625 239.53125 774.636719 C 238.949219 774.207031 238.347656 773.808594 237.726562 773.441406 C 237.105469 773.070312 236.464844 772.734375 235.8125 772.429688 C 235.15625 772.121094 234.488281 771.847656 233.808594 771.609375 C 233.125 771.367188 232.433594 771.164062 231.734375 770.988281 C 231.03125 770.816406 230.324219 770.679688 229.609375 770.578125 C 228.894531 770.472656 228.175781 770.40625 227.453125 770.375 C 226.730469 770.34375 226.007812 770.34375 225.289062 770.382812 C 224.566406 770.421875 223.847656 770.496094 223.132812 770.605469 C 222.421875 770.714844 221.714844 770.859375 221.011719 771.039062 C 220.3125 771.214844 219.625 771.429688 218.945312 771.675781 C 218.265625 771.921875 217.601562 772.203125 216.949219 772.511719 C 216.296875 772.824219 215.660156 773.167969 215.042969 773.542969 C 214.425781 773.917969 213.828125 774.320312 213.25 774.753906 C 212.671875 775.1875 212.113281 775.644531 211.582031 776.132812 C 211.046875 776.621094 210.539062 777.132812 210.058594 777.671875 C 209.574219 778.207031 209.121094 778.769531 208.691406 779.351562 C 208.265625 779.933594 207.867188 780.535156 207.496094 781.15625 C 207.128906 781.777344 206.792969 782.414062 206.484375 783.070312 C 206.179688 783.726562 205.90625 784.394531 205.664062 785.074219 C 205.425781 785.753906 205.21875 786.445312 205.046875 787.148438 C 204.875 787.851562 204.738281 788.558594 204.632812 789.273438 C 204.53125 789.988281 204.464844 790.707031 204.429688 791.429688 C 204.398438 792.152344 204.402344 792.871094 204.441406 793.59375 C 204.480469 794.316406 204.554688 795.03125 204.664062 795.746094 C 204.773438 796.460938 204.917969 797.167969 205.09375 797.867188 Z M 205.09375 797.867188 " clip-rule="nonzero"/></clipPath><clipPath id="9be5fb03e0"><path d="M 564 539 L 620 539 L 620 594 L 564 594 Z M 564 539 " clip-rule="nonzero"/></clipPath><clipPath id="3876c78885"><path d="M 0 400.507812 L 566.9375 255.785156 L 691.457031 743.597656 L 124.523438 888.320312 Z M 0 400.507812 " clip-rule="nonzero"/></clipPath><clipPath id="e2fb179c9d"><path d="M 566.890625 255.796875 L -0.0429688 400.519531 L 124.476562 888.332031 L 691.414062 743.609375 Z M 566.890625 255.796875 " clip-rule="nonzero"/></clipPath><clipPath id="b1e67644f4"><path d="M 565.460938 573.113281 C 565.683594 573.980469 565.945312 574.832031 566.25 575.671875 C 566.554688 576.507812 566.898438 577.332031 567.285156 578.136719 C 567.671875 578.941406 568.09375 579.726562 568.558594 580.492188 C 569.019531 581.253906 569.519531 581.996094 570.054688 582.710938 C 570.589844 583.425781 571.15625 584.113281 571.761719 584.769531 C 572.363281 585.429688 572.996094 586.058594 573.660156 586.652344 C 574.324219 587.25 575.015625 587.8125 575.738281 588.34375 C 576.457031 588.871094 577.199219 589.363281 577.96875 589.820312 C 578.734375 590.273438 579.523438 590.691406 580.332031 591.070312 C 581.140625 591.445312 581.96875 591.785156 582.808594 592.082031 C 583.652344 592.378906 584.507812 592.632812 585.375 592.847656 C 586.242188 593.058594 587.117188 593.230469 588 593.355469 C 588.882812 593.484375 589.773438 593.566406 590.664062 593.609375 C 591.554688 593.648438 592.449219 593.644531 593.339844 593.59375 C 594.230469 593.546875 595.117188 593.457031 596 593.320312 C 596.882812 593.1875 597.757812 593.007812 598.625 592.789062 C 599.488281 592.566406 600.339844 592.304688 601.179688 592 C 602.019531 591.695312 602.84375 591.351562 603.648438 590.964844 C 604.453125 590.578125 605.238281 590.15625 606 589.691406 C 606.765625 589.230469 607.503906 588.730469 608.21875 588.195312 C 608.933594 587.660156 609.621094 587.09375 610.28125 586.488281 C 610.9375 585.886719 611.566406 585.253906 612.164062 584.589844 C 612.761719 583.925781 613.324219 583.234375 613.851562 582.511719 C 614.378906 581.792969 614.871094 581.050781 615.328125 580.28125 C 615.785156 579.511719 616.199219 578.726562 616.578125 577.917969 C 616.957031 577.105469 617.296875 576.28125 617.59375 575.441406 C 617.890625 574.597656 618.144531 573.742188 618.355469 572.875 C 618.570312 572.007812 618.742188 571.132812 618.867188 570.25 C 618.996094 569.367188 619.078125 568.476562 619.117188 567.585938 C 619.15625 566.691406 619.152344 565.800781 619.105469 564.910156 C 619.058594 564.019531 618.964844 563.128906 618.832031 562.25 C 618.695312 561.367188 618.519531 560.492188 618.296875 559.625 C 618.078125 558.761719 617.8125 557.910156 617.507812 557.070312 C 617.203125 556.230469 616.859375 555.40625 616.472656 554.601562 C 616.089844 553.796875 615.664062 553.011719 615.203125 552.246094 C 614.738281 551.484375 614.242188 550.746094 613.707031 550.03125 C 613.171875 549.316406 612.601562 548.628906 612 547.96875 C 611.398438 547.308594 610.761719 546.683594 610.097656 546.085938 C 609.433594 545.488281 608.742188 544.925781 608.023438 544.398438 C 607.304688 543.867188 606.558594 543.375 605.792969 542.921875 C 605.023438 542.464844 604.234375 542.046875 603.425781 541.671875 C 602.617188 541.292969 601.792969 540.953125 600.949219 540.65625 C 600.109375 540.359375 599.253906 540.105469 598.386719 539.890625 C 597.519531 539.679688 596.644531 539.507812 595.757812 539.382812 C 594.875 539.253906 593.988281 539.171875 593.09375 539.132812 C 592.203125 539.09375 591.3125 539.097656 590.417969 539.144531 C 589.527344 539.191406 588.640625 539.285156 587.757812 539.417969 C 586.875 539.554688 586 539.730469 585.136719 539.953125 C 584.269531 540.171875 583.417969 540.4375 582.578125 540.738281 C 581.738281 541.042969 580.917969 541.390625 580.113281 541.773438 C 579.304688 542.160156 578.523438 542.585938 577.757812 543.046875 C 576.996094 543.507812 576.253906 544.007812 575.539062 544.542969 C 574.824219 545.078125 574.136719 545.648438 573.480469 546.25 C 572.820312 546.851562 572.191406 547.488281 571.597656 548.152344 C 571 548.816406 570.4375 549.507812 569.90625 550.226562 C 569.378906 550.945312 568.886719 551.691406 568.429688 552.457031 C 567.976562 553.226562 567.558594 554.015625 567.179688 554.824219 C 566.800781 555.632812 566.464844 556.457031 566.167969 557.300781 C 565.871094 558.140625 565.617188 558.996094 565.402344 559.863281 C 565.191406 560.730469 565.019531 561.605469 564.890625 562.492188 C 564.765625 563.375 564.683594 564.261719 564.640625 565.152344 C 564.601562 566.046875 564.605469 566.9375 564.652344 567.828125 C 564.703125 568.722656 564.792969 569.609375 564.929688 570.492188 C 565.0625 571.375 565.242188 572.25 565.460938 573.113281 Z M 565.460938 573.113281 " clip-rule="nonzero"/></clipPath><clipPath id="c62672be67"><path d="M 374 423.589844 L 504.324219 423.589844 L 504.324219 601 L 374 601 Z M 374 423.589844 " clip-rule="nonzero"/></clipPath><clipPath id="e1d55e6e24"><path d="M 435 423.589844 L 440 423.589844 L 440 601 L 435 601 Z M 435 423.589844 " clip-rule="nonzero"/></clipPath><clipPath id="450598b474"><path d="M 374 496 L 504.324219 496 L 504.324219 502 L 374 502 Z M 374 496 " clip-rule="nonzero"/></clipPath><clipPath id="9236c57b23"><path d="M 299 594 L 450 594 L 450 720.269531 L 299 720.269531 Z M 299 594 " clip-rule="nonzero"/></clipPath><clipPath id="e1a7b7e1c2"><path d="M 288 166 L 328 166 L 328 186 L 288 186 Z M 288 166 " clip-rule="nonzero"/></clipPath><clipPath id="ab0518ba85"><path d="M 346.722656 104.742188 L 453.722656 325.121094 L 248.171875 424.925781 L 141.167969 204.546875 Z M 346.722656 104.742188 " clip-rule="nonzero"/></clipPath><clipPath id="cc992397e1"><path d="M 346.722656 104.742188 L 453.722656 325.121094 L 248.171875 424.925781 L 141.167969 204.546875 Z M 346.722656 104.742188 " clip-rule="nonzero"/></clipPath><clipPath id="79cbb43fe8"><path d="M 298 156 L 318 156 L 318 196 L 298 196 Z M 298 156 " clip-rule="nonzero"/></clipPath><clipPath id="2f2349f3a3"><path d="M 346.722656 104.742188 L 453.722656 325.121094 L 248.171875 424.925781 L 141.167969 204.546875 Z M 346.722656 104.742188 " clip-rule="nonzero"/></clipPath><clipPath id="3e7854888b"><path d="M 346.722656 104.742188 L 453.722656 325.121094 L 248.171875 424.925781 L 141.167969 204.546875 Z M 346.722656 104.742188 " clip-rule="nonzero"/></clipPath><clipPath id="e574f4a662"><path d="M 222 168 L 248 168 L 248 181 L 222 181 Z M 222 168 " clip-rule="nonzero"/></clipPath><clipPath id="2affd23bf3"><path d="M 346.722656 104.742188 L 453.722656 325.121094 L 248.171875 424.925781 L 141.167969 204.546875 Z M 346.722656 104.742188 " clip-rule="nonzero"/></clipPath><clipPath id="a9e5df3424"><path d="M 346.722656 104.742188 L 453.722656 325.121094 L 248.171875 424.925781 L 141.167969 204.546875 Z M 346.722656 104.742188 " clip-rule="nonzero"/></clipPath><clipPath id="972545871a"><path d="M 229 161 L 242 161 L 242 187 L 229 187 Z M 229 161 " clip-rule="nonzero"/></clipPath><clipPath id="6ce8c5e2b8"><path d="M 346.722656 104.742188 L 453.722656 325.121094 L 248.171875 424.925781 L 141.167969 204.546875 Z M 346.722656 104.742188 " clip-rule="nonzero"/></clipPath><clipPath id="d7af4b02ce"><path d="M 346.722656 104.742188 L 453.722656 325.121094 L 248.171875 424.925781 L 141.167969 204.546875 Z M 346.722656 104.742188 " clip-rule="nonzero"/></clipPath><clipPath id="fc72ff35cc"><path d="M 299 246 L 325 246 L 325 259 L 299 259 Z M 299 246 " clip-rule="nonzero"/></clipPath><clipPath id="2abe37f557"><path d="M 346.722656 104.742188 L 453.722656 325.121094 L 248.171875 424.925781 L 141.167969 204.546875 Z M 346.722656 104.742188 " clip-rule="nonzero"/></clipPath><clipPath id="8268c47151"><path d="M 346.722656 104.742188 L 453.722656 325.121094 L 248.171875 424.925781 L 141.167969 204.546875 Z M 346.722656 104.742188 " clip-rule="nonzero"/></clipPath><clipPath id="9be08cfe5b"><path d="M 306 240 L 319 240 L 319 265 L 306 265 Z M 306 240 " clip-rule="nonzero"/></clipPath><clipPath id="342ec4dcf6"><path d="M 346.722656 104.742188 L 453.722656 325.121094 L 248.171875 424.925781 L 141.167969 204.546875 Z M 346.722656 104.742188 " clip-rule="nonzero"/></clipPath><clipPath id="2e85d61f12"><path d="M 346.722656 104.742188 L 453.722656 325.121094 L 248.171875 424.925781 L 141.167969 204.546875 Z M 346.722656 104.742188 " clip-rule="nonzero"/></clipPath><clipPath id="7af38f1edb"><path d="M 310 375 L 325 375 L 325 390 L 310 390 Z M 310 375 " clip-rule="nonzero"/></clipPath><clipPath id="ab4b7b5d21"><path d="M 346.722656 104.742188 L 453.722656 325.121094 L 248.171875 424.925781 L 141.167969 204.546875 Z M 346.722656 104.742188 " clip-rule="nonzero"/></clipPath><clipPath id="cffd2d5759"><path d="M 346.722656 104.742188 L 453.722656 325.121094 L 248.171875 424.925781 L 141.167969 204.546875 Z M 346.722656 104.742188 " clip-rule="nonzero"/></clipPath><clipPath id="429c58c63d"><path d="M 314 354 L 326 354 L 326 367 L 314 367 Z M 314 354 " clip-rule="nonzero"/></clipPath><clipPath id="9e58473b35"><path d="M 346.722656 104.742188 L 453.722656 325.121094 L 248.171875 424.925781 L 141.167969 204.546875 Z M 346.722656 104.742188 " clip-rule="nonzero"/></clipPath><clipPath id="7a0ac50a5a"><path d="M 346.722656 104.742188 L 453.722656 325.121094 L 248.171875 424.925781 L 141.167969 204.546875 Z M 346.722656 104.742188 " clip-rule="nonzero"/></clipPath><clipPath id="009f093336"><path d="M 338 338 L 350 338 L 350 350 L 338 350 Z M 338 338 " clip-rule="nonzero"/></clipPath><clipPath id="7417da0cfb"><path d="M 346.722656 104.742188 L 453.722656 325.121094 L 248.171875 424.925781 L 141.167969 204.546875 Z M 346.722656 104.742188 " clip-rule="nonzero"/></clipPath><clipPath id="97cc16d30e"><path d="M 346.722656 104.742188 L 453.722656 325.121094 L 248.171875 424.925781 L 141.167969 204.546875 Z M 346.722656 104.742188 " clip-rule="nonzero"/></clipPath><clipPath id="a28aff5632"><path d="M 287 371 L 296 371 L 296 381 L 287 381 Z M 287 371 " clip-rule="nonzero"/></clipPath><clipPath id="0e051b85b1"><path d="M 346.722656 104.742188 L 453.722656 325.121094 L 248.171875 424.925781 L 141.167969 204.546875 Z M 346.722656 104.742188 " clip-rule="nonzero"/></clipPath><clipPath id="e8d6e61b6b"><path d="M 346.722656 104.742188 L 453.722656 325.121094 L 248.171875 424.925781 L 141.167969 204.546875 Z M 346.722656 104.742188 " clip-rule="nonzero"/></clipPath><clipPath id="59f2cc089f"><path d="M 258 361 L 266 361 L 266 368 L 258 368 Z M 258 361 " clip-rule="nonzero"/></clipPath><clipPath id="3312195019"><path d="M 346.722656 104.742188 L 453.722656 325.121094 L 248.171875 424.925781 L 141.167969 204.546875 Z M 346.722656 104.742188 " clip-rule="nonzero"/></clipPath><clipPath id="f219f166a4"><path d="M 346.722656 104.742188 L 453.722656 325.121094 L 248.171875 424.925781 L 141.167969 204.546875 Z M 346.722656 104.742188 " clip-rule="nonzero"/></clipPath><clipPath id="27b43637b0"><path d="M 317 318 L 325 318 L 325 325 L 317 325 Z M 317 318 " clip-rule="nonzero"/></clipPath><clipPath id="a66d78d9aa"><path d="M 346.722656 104.742188 L 453.722656 325.121094 L 248.171875 424.925781 L 141.167969 204.546875 Z M 346.722656 104.742188 " clip-rule="nonzero"/></clipPath><clipPath id="e850897986"><path d="M 346.722656 104.742188 L 453.722656 325.121094 L 248.171875 424.925781 L 141.167969 204.546875 Z M 346.722656 104.742188 " clip-rule="nonzero"/></clipPath><clipPath id="5a4a54fa22"><path d="M 224 300 L 353 300 L 353 357 L 224 357 Z M 224 300 " clip-rule="nonzero"/></clipPath><clipPath id="ff294d2d4b"><path d="M 346.722656 104.742188 L 453.722656 325.121094 L 248.171875 424.925781 L 141.167969 204.546875 Z M 346.722656 104.742188 " clip-rule="nonzero"/></clipPath><clipPath id="dee86208e6"><path d="M 346.722656 104.742188 L 453.722656 325.121094 L 248.171875 424.925781 L 141.167969 204.546875 Z M 346.722656 104.742188 " clip-rule="nonzero"/></clipPath><clipPath id="0fa1d3d45b"><path d="M 229 227 L 273 227 L 273 315 L 229 315 Z M 229 227 " clip-rule="nonzero"/></clipPath><clipPath id="e2daa60563"><path d="M 346.722656 104.742188 L 453.722656 325.121094 L 248.171875 424.925781 L 141.167969 204.546875 Z M 346.722656 104.742188 " clip-rule="nonzero"/></clipPath><clipPath id="cb1cab0c6c"><path d="M 346.722656 104.742188 L 453.722656 325.121094 L 248.171875 424.925781 L 141.167969 204.546875 Z M 346.722656 104.742188 " clip-rule="nonzero"/></clipPath><clipPath id="e7d3c62117"><path d="M 194 190 L 315 190 L 315 347 L 194 347 Z M 194 190 " clip-rule="nonzero"/></clipPath><clipPath id="cec1c7c514"><path d="M 346.722656 104.742188 L 453.722656 325.121094 L 248.171875 424.925781 L 141.167969 204.546875 Z M 346.722656 104.742188 " clip-rule="nonzero"/></clipPath><clipPath id="ec5339f295"><path d="M 346.722656 104.742188 L 453.722656 325.121094 L 248.171875 424.925781 L 141.167969 204.546875 Z M 346.722656 104.742188 " clip-rule="nonzero"/></clipPath><clipPath id="8279edbc05"><path d="M 252 186 L 276 186 L 276 247 L 252 247 Z M 252 186 " clip-rule="nonzero"/></clipPath><clipPath id="b8e5b690a3"><path d="M 346.722656 104.742188 L 453.722656 325.121094 L 248.171875 424.925781 L 141.167969 204.546875 Z M 346.722656 104.742188 " clip-rule="nonzero"/></clipPath><clipPath id="2e90e0400e"><path d="M 346.722656 104.742188 L 453.722656 325.121094 L 248.171875 424.925781 L 141.167969 204.546875 Z M 346.722656 104.742188 " clip-rule="nonzero"/></clipPath><clipPath id="7993a631db"><path d="M 254 182 L 280 182 L 280 257 L 254 257 Z M 254 182 " clip-rule="nonzero"/></clipPath><clipPath id="572d3e181d"><path d="M 346.722656 104.742188 L 453.722656 325.121094 L 248.171875 424.925781 L 141.167969 204.546875 Z M 346.722656 104.742188 " clip-rule="nonzero"/></clipPath><clipPath id="de9c909942"><path d="M 346.722656 104.742188 L 453.722656 325.121094 L 248.171875 424.925781 L 141.167969 204.546875 Z M 346.722656 104.742188 " clip-rule="nonzero"/></clipPath><clipPath id="3ad60a3a5a"><path d="M 269 180 L 288 180 L 288 253 L 269 253 Z M 269 180 " clip-rule="nonzero"/></clipPath><clipPath id="5e6389e282"><path d="M 346.722656 104.742188 L 453.722656 325.121094 L 248.171875 424.925781 L 141.167969 204.546875 Z M 346.722656 104.742188 " clip-rule="nonzero"/></clipPath><clipPath id="cf2295cffc"><path d="M 346.722656 104.742188 L 453.722656 325.121094 L 248.171875 424.925781 L 141.167969 204.546875 Z M 346.722656 104.742188 " clip-rule="nonzero"/></clipPath><clipPath id="797e957272"><path d="M 279 193 L 392 193 L 392 223 L 279 223 Z M 279 193 " clip-rule="nonzero"/></clipPath><clipPath id="ed2d111f12"><path d="M 346.722656 104.742188 L 453.722656 325.121094 L 248.171875 424.925781 L 141.167969 204.546875 Z M 346.722656 104.742188 " clip-rule="nonzero"/></clipPath><clipPath id="4a45096bf0"><path d="M 346.722656 104.742188 L 453.722656 325.121094 L 248.171875 424.925781 L 141.167969 204.546875 Z M 346.722656 104.742188 " clip-rule="nonzero"/></clipPath></defs><g clip-path="url(#9b0b774625)"><g clip-path="url(#2f8ffdd6b4)"><g clip-path="url(#c1e1c1ccd4)"><g clip-path="url(#797f602741)"><path fill="#e0f2f1" d="M 585.691406 175.363281 L 742.882812 791.152344 L 77.742188 960.941406 L -79.449219 345.148438 Z M 585.691406 175.363281 " fill-opacity="1" fill-rule="nonzero"/></g></g></g></g><g clip-path="url(#ddaee2f47b)"><g clip-path="url(#9e0476be10)"><g clip-path="url(#f1aa101975)"><g clip-path="url(#7d9bafd898)"><path fill="#e0f2f1" d="M 212.273438 337.167969 L 236.890625 433.605469 L 140.453125 458.222656 L 115.835938 361.785156 Z M 212.273438 337.167969 " fill-opacity="1" fill-rule="nonzero"/></g></g></g></g><g clip-path="url(#45207685c8)"><g clip-path="url(#a9c69432f4)"><g clip-path="url(#e15e9fb968)"><g clip-path="url(#2be7cfb5c5)"><path fill="#e0f2f1" d="M 245.839844 759.765625 L 259.117188 811.78125 L 207.097656 825.0625 L 193.820312 773.042969 Z M 245.839844 759.765625 " fill-opacity="1" fill-rule="nonzero"/></g></g></g></g><g clip-path="url(#9be5fb03e0)"><g clip-path="url(#3876c78885)"><g clip-path="url(#e2fb179c9d)"><g clip-path="url(#b1e67644f4)"><path fill="#e0f2f1" d="M 615.820312 526.019531 L 632.230469 590.308594 L 567.941406 606.722656 L 551.527344 542.429688 Z M 615.820312 526.019531 " fill-opacity="1" fill-rule="nonzero"/></g></g></g></g><g clip-path="url(#c62672be67)"><path fill="#dce7ea" d="M 374.246094 423.589844 L 504.3125 423.589844 L 504.3125 600.109375 L 374.246094 600.109375 Z M 374.246094 423.589844 " fill-opacity="1" fill-rule="nonzero"/></g><path fill="#ffffff" d="M 472.554688 482.6875 C 465.261719 482.6875 459.332031 488.597656 459.332031 495.925781 C 459.332031 488.613281 453.40625 482.6875 446.109375 482.6875 C 453.421875 482.6875 459.332031 476.757812 459.332031 469.464844 C 459.316406 476.757812 465.242188 482.6875 472.554688 482.6875 Z M 472.554688 482.6875 " fill-opacity="1" fill-rule="nonzero"/><path fill="#ffffff" d="M 483.796875 459.65625 C 479.316406 459.65625 475.667969 463.285156 475.667969 467.78125 C 475.667969 463.285156 472.019531 459.65625 467.539062 459.65625 C 472.035156 459.65625 475.667969 456.023438 475.667969 451.527344 C 475.667969 456.023438 479.316406 459.65625 483.796875 459.65625 Z M 483.796875 459.65625 " fill-opacity="1" fill-rule="nonzero"/><path fill="#ffffff" d="M 457.257812 452.628906 C 454.222656 452.628906 451.769531 455.078125 451.769531 458.128906 C 451.769531 455.09375 449.316406 452.628906 446.285156 452.628906 C 449.316406 452.628906 451.769531 450.175781 451.769531 447.140625 C 451.753906 450.175781 454.222656 452.628906 457.257812 452.628906 Z M 457.257812 452.628906 " fill-opacity="1" fill-rule="nonzero"/><path fill="#ffffff" d="M 436.410156 424.25 L 439.285156 424.25 L 439.285156 599.449219 L 436.410156 599.449219 Z M 436.410156 424.25 " fill-opacity="1" fill-rule="nonzero"/><g clip-path="url(#e1d55e6e24)"><path fill="#dce7ea" d="M 439.269531 600.078125 L 436.394531 600.078125 C 436.046875 600.078125 435.765625 599.796875 435.765625 599.449219 L 435.765625 424.25 C 435.765625 423.90625 436.046875 423.621094 436.394531 423.621094 L 439.269531 423.621094 C 439.617188 423.621094 439.898438 423.90625 439.898438 424.25 L 439.898438 599.449219 C 439.898438 599.796875 439.617188 600.078125 439.269531 600.078125 Z M 437.039062 598.820312 L 438.65625 598.820312 L 438.65625 424.878906 L 437.039062 424.878906 Z M 437.039062 598.820312 " fill-opacity="1" fill-rule="nonzero"/></g><path fill="#ffffff" d="M 374.90625 497.039062 L 503.652344 497.039062 L 503.652344 500.578125 L 374.90625 500.578125 Z M 374.90625 497.039062 " fill-opacity="1" fill-rule="nonzero"/><g clip-path="url(#450598b474)"><path fill="#dce7ea" d="M 503.652344 501.207031 L 374.90625 501.207031 C 374.558594 501.207031 374.277344 500.921875 374.277344 500.578125 L 374.277344 497.039062 C 374.277344 496.695312 374.558594 496.410156 374.90625 496.410156 L 503.652344 496.410156 C 504 496.410156 504.28125 496.695312 504.28125 497.039062 L 504.28125 500.578125 C 504.28125 500.921875 504 501.207031 503.652344 501.207031 Z M 375.535156 499.949219 L 503.023438 499.949219 L 503.023438 497.667969 L 375.535156 497.667969 Z M 375.535156 499.949219 " fill-opacity="1" fill-rule="nonzero"/></g><path fill="#292c56" d="M 389.714844 475.519531 C 372.925781 486.351562 372.484375 464.8125 362.328125 452.769531 C 352.171875 440.726562 341.402344 453.210938 341.402344 453.210938 L 344.214844 461.382812 C 344.214844 461.382812 353.664062 457.078125 349.984375 479.304688 C 346.308594 501.535156 354.71875 495.183594 361.839844 514.003906 C 368.960938 532.820312 358.773438 539.816406 358.773438 539.816406 C 387.8125 540.257812 403.851562 509.996094 403.851562 509.996094 C 403.851562 509.996094 406.492188 464.6875 389.714844 475.519531 Z M 389.714844 475.519531 " fill-opacity="1" fill-rule="nonzero"/><path fill="#ffffff" d="M 209.320312 594.464844 C 209.320312 594.464844 205.800781 565.382812 230.230469 550.070312 L 239.207031 577.613281 L 227.277344 592.785156 Z M 209.320312 594.464844 " fill-opacity="1" fill-rule="nonzero"/><path fill="#292c56" d="M 209.320312 595.09375 C 209.007812 595.09375 208.738281 594.859375 208.691406 594.542969 C 208.660156 594.246094 205.40625 564.878906 229.902344 549.550781 C 230.246094 549.328125 230.703125 549.503906 230.828125 549.894531 L 239.804688 577.441406 C 239.867188 577.644531 239.835938 577.863281 239.695312 578.019531 L 227.761719 593.191406 C 227.652344 593.332031 227.496094 593.414062 227.324219 593.429688 Z M 229.902344 551.042969 C 208.707031 564.832031 209.589844 589.59375 209.902344 593.789062 L 226.960938 592.1875 L 238.515625 577.503906 Z M 229.902344 551.042969 " fill-opacity="1" fill-rule="nonzero"/><g clip-path="url(#9236c57b23)"><path fill="#292c56" d="M 314.628906 594.464844 C 314.628906 594.464844 300.601562 619.273438 299.941406 643.375 C 299.28125 667.476562 310.980469 720.269531 310.980469 720.269531 L 370.171875 720.269531 L 356.039062 650.90625 L 382.546875 720.269531 L 449.253906 720.269531 L 391.160156 594.464844 Z M 314.628906 594.464844 " fill-opacity="1" fill-rule="nonzero"/></g><path fill="#ffffff" d="M 462.585938 552.394531 C 460.324219 543.542969 454.175781 536.640625 444.207031 528.199219 C 436.535156 538.449219 428.863281 548.699219 421.191406 558.953125 C 422.511719 559.863281 423.832031 560.773438 425.136719 561.671875 C 417.730469 577.140625 410.34375 592.59375 402.9375 608.066406 C 408.785156 611.824219 414.652344 615.578125 420.5 619.335938 C 450.246094 600.28125 467.964844 573.414062 462.585938 552.394531 Z M 462.585938 552.394531 " fill-opacity="1" fill-rule="nonzero"/><path fill="#292c56" d="M 420.5 619.949219 C 420.214844 619.949219 420.4375 620.027344 402.59375 608.582031 C 402.324219 608.410156 402.230469 608.066406 402.371094 607.78125 L 424.335938 561.875 L 420.828125 559.453125 C 420.53125 559.25 420.46875 558.839844 420.6875 558.558594 L 443.703125 527.808594 C 443.910156 527.523438 444.332031 527.460938 444.617188 527.695312 C 454.050781 535.683594 460.808594 542.898438 463.199219 552.222656 C 468.53125 573.054688 451.519531 600.21875 420.84375 619.839844 C 420.734375 619.917969 420.625 619.949219 420.5 619.949219 Z M 403.738281 607.828125 L 420.5 618.582031 C 450.496094 599.277344 467.144531 572.785156 461.972656 552.550781 C 459.710938 543.6875 453.53125 536.972656 444.300781 529.113281 L 422.085938 558.792969 L 425.5 561.152344 C 425.75 561.324219 425.84375 561.65625 425.703125 561.9375 Z M 403.738281 607.828125 " fill-opacity="1" fill-rule="nonzero"/><path fill="#ffffff" d="M 445.84375 525.984375 C 438.328125 520.496094 413.328125 502.511719 407.605469 498.941406 C 393.253906 489.996094 379.84375 494.242188 342.863281 496.789062 C 305.761719 499.351562 294.800781 496.757812 281.59375 506.660156 C 274.160156 512.242188 258.484375 527.539062 245.8125 544.363281 L 279.566406 575.316406 L 301.183594 555.476562 C 307.269531 575.554688 314.613281 594.464844 314.613281 594.464844 L 391.144531 594.464844 C 391.144531 594.464844 393.710938 572.125 395.707031 549.25 L 418.863281 562 C 427.871094 549.988281 436.867188 537.996094 445.84375 525.984375 Z M 445.84375 525.984375 " fill-opacity="1" fill-rule="nonzero"/><path fill="#292c56" d="M 391.175781 595.09375 L 314.628906 595.09375 C 314.359375 595.09375 314.140625 594.9375 314.046875 594.6875 C 313.96875 594.496094 306.859375 576.117188 300.902344 556.609375 L 280.007812 575.789062 C 279.773438 576.007812 279.410156 576.007812 279.175781 575.804688 L 245.402344 544.832031 C 245.167969 544.613281 245.136719 544.25 245.324219 543.984375 C 251.785156 535.402344 258.941406 527.164062 266.582031 519.476562 C 286.878906 499.070312 290.761719 498.613281 319.753906 497.386719 C 337.769531 496.632812 345.960938 496.082031 364.574219 494.351562 C 385.925781 492.371094 396.648438 491.378906 407.9375 498.40625 C 413.816406 502.070312 438.625 519.929688 446.203125 525.480469 C 446.488281 525.683594 446.550781 526.078125 446.332031 526.359375 L 419.382812 562.363281 C 419.195312 562.613281 418.847656 562.691406 418.582031 562.535156 L 396.257812 550.257812 C 394.304688 572.566406 391.804688 594.308594 391.773438 594.527344 C 391.757812 594.859375 391.492188 595.09375 391.175781 595.09375 Z M 315.066406 593.835938 L 390.613281 593.835938 C 391.019531 590.238281 393.316406 569.816406 395.109375 549.1875 C 395.140625 548.730469 395.644531 548.480469 396.035156 548.683594 L 418.722656 561.167969 L 444.960938 526.109375 C 437.574219 520.714844 412.90625 502.96875 407.277344 499.460938 C 393.128906 490.640625 379.542969 494.886719 342.910156 497.402344 C 306.167969 499.933594 294.992188 497.386719 281.988281 507.148438 C 274.757812 512.574219 259.316406 527.570312 246.675781 544.265625 L 279.597656 574.453125 L 300.792969 555.019531 C 301.136719 554.707031 301.6875 554.863281 301.8125 555.304688 C 307.332031 573.523438 313.96875 590.992188 315.066406 593.835938 Z M 315.066406 593.835938 " fill-opacity="1" fill-rule="nonzero"/><path fill="#60afbd" d="M 319.3125 497.246094 C 315.382812 510.480469 311.453125 523.703125 307.535156 536.925781 C 302.835938 545.070312 298.136719 553.195312 293.433594 561.339844 L 298.402344 594.464844 C 290.714844 630.515625 289.378906 667.601562 294.425781 704.136719 C 339.925781 704.5 385.4375 704.878906 430.9375 705.238281 L 393.160156 594.464844 L 395.375 564.753906 L 380.785156 532.289062 L 370.738281 493.660156 L 364.90625 494.179688 C 365.363281 503.171875 365.816406 512.164062 366.273438 521.15625 C 364.417969 522.746094 353.191406 532.050781 338.445312 529.628906 C 332.046875 528.578125 327.347656 525.699219 324.609375 523.671875 C 325.191406 514.757812 325.789062 505.859375 326.371094 496.945312 C 324.011719 497.039062 321.65625 497.148438 319.3125 497.246094 Z M 319.3125 497.246094 " fill-opacity="1" fill-rule="nonzero"/><path fill="#ffffff" d="M 342.707031 474.542969 L 345.144531 474.542969 C 348.980469 474.542969 352.09375 477.65625 352.09375 481.492188 L 352.09375 498.140625 C 352.09375 501.976562 348.980469 505.089844 345.144531 505.089844 L 342.707031 505.089844 C 338.871094 505.089844 335.757812 501.976562 335.757812 498.140625 L 335.757812 481.492188 C 335.757812 477.65625 338.871094 474.542969 342.707031 474.542969 Z M 342.707031 474.542969 " fill-opacity="1" fill-rule="nonzero"/><path fill="#292c56" d="M 345.160156 505.703125 L 342.722656 505.703125 C 338.539062 505.703125 335.144531 502.308594 335.144531 498.125 L 335.144531 481.492188 C 335.144531 477.308594 338.539062 473.914062 342.722656 473.914062 L 345.160156 473.914062 C 349.339844 473.914062 352.738281 477.308594 352.738281 481.492188 L 352.738281 498.140625 C 352.738281 502.308594 349.324219 505.703125 345.160156 505.703125 Z M 342.707031 475.171875 C 339.214844 475.171875 336.386719 478 336.386719 481.492188 L 336.386719 498.140625 C 336.386719 501.632812 339.214844 504.460938 342.707031 504.460938 L 345.144531 504.460938 C 348.632812 504.460938 351.464844 501.632812 351.464844 498.140625 L 351.464844 481.492188 C 351.464844 478 348.632812 475.171875 345.144531 475.171875 Z M 342.707031 475.171875 " fill-opacity="1" fill-rule="nonzero"/><path fill="#ffffff" d="M 363.929688 470.863281 C 362.863281 469.007812 360.140625 468.554688 357.769531 469.78125 C 357.1875 459.136719 345.253906 454.105469 336.667969 458.804688 C 332.203125 461.257812 330.128906 464.875 330.066406 469.621094 C 327.769531 468.601562 325.253906 469.085938 324.234375 470.863281 C 323.117188 472.796875 324.1875 475.503906 326.625 476.902344 C 328.289062 477.859375 330.175781 477.96875 331.542969 477.324219 C 333.949219 483.566406 338.933594 488.945312 344.058594 488.945312 C 349.167969 488.945312 354.261719 483.566406 356.542969 477.292969 C 357.925781 477.96875 359.828125 477.875 361.527344 476.902344 C 363.964844 475.503906 365.046875 472.796875 363.929688 470.863281 Z M 363.929688 470.863281 " fill-opacity="1" fill-rule="nonzero"/><path fill="#292c56" d="M 344.074219 489.574219 C 338.460938 489.574219 333.554688 483.753906 331.214844 478.144531 C 326.609375 479.558594 321.464844 474.449219 323.699219 470.566406 C 324.738281 468.757812 327.125 468.050781 329.484375 468.742188 C 329.800781 463.992188 332.203125 460.550781 336.386719 458.269531 C 342.015625 455.175781 349.6875 456.148438 354.230469 460.535156 C 356.386719 462.609375 357.972656 465.582031 358.335938 468.867188 C 360.785156 467.988281 363.382812 468.648438 364.480469 470.566406 C 365.769531 472.796875 364.59375 475.894531 361.855469 477.46875 C 360.269531 478.378906 358.445312 478.613281 356.917969 478.128906 C 354.765625 483.519531 349.828125 489.574219 344.074219 489.574219 Z M 332.140625 477.105469 C 334.6875 483.707031 339.59375 488.316406 344.058594 488.316406 C 348.585938 488.316406 353.585938 483.597656 355.945312 477.089844 C 356.070312 476.742188 356.480469 476.570312 356.808594 476.742188 C 358.050781 477.355469 359.734375 477.214844 361.195312 476.367188 C 363.335938 475.140625 364.308594 472.8125 363.367188 471.179688 C 362.46875 469.621094 360.125 469.261719 358.035156 470.328125 C 357.847656 470.425781 357.625 470.425781 357.4375 470.3125 C 356.902344 470 357.28125 469.558594 356.808594 467.5 C 354.734375 458.710938 344.261719 455.347656 336.96875 459.355469 C 332.707031 461.683594 330.757812 465.109375 330.695312 469.621094 C 330.695312 470.078125 330.222656 470.375 329.816406 470.1875 C 326.542969 468.742188 323.480469 470.800781 324.6875 473.851562 C 325.679688 476.351562 329.011719 477.828125 331.292969 476.757812 C 331.621094 476.601562 332.015625 476.757812 332.140625 477.105469 Z M 332.140625 477.105469 " fill-opacity="1" fill-rule="nonzero"/><path fill="#292c56" d="M 341.386719 488.457031 C 341.386719 488.457031 345.363281 492.75 352.109375 491.066406 L 352.109375 485.15625 C 352.109375 485.171875 347.015625 490.027344 341.386719 488.457031 Z M 341.386719 488.457031 " fill-opacity="1" fill-rule="nonzero"/><path fill="#292c56" d="M 326.921875 469.152344 C 326.921875 469.152344 328.808594 468.679688 331.074219 471.761719 C 333.335938 474.855469 346.730469 460.046875 346.730469 460.046875 C 346.730469 460.046875 351.953125 476.664062 359.339844 469.875 L 361.714844 469.246094 C 365.628906 457.640625 357.941406 445.867188 345.144531 446.90625 C 343.632812 446.605469 335.570312 445.128906 329.957031 450.050781 C 326.277344 453.273438 325.207031 457.847656 324.21875 462.3125 C 323.304688 466.367188 323.242188 469.84375 323.335938 472.183594 C 324.546875 471.179688 325.726562 470.171875 326.921875 469.152344 Z M 326.921875 469.152344 " fill-opacity="1" fill-rule="nonzero"/><path fill="#60afbd" d="M 323.351562 472.199219 C 319.125 461.792969 323.242188 450.066406 332.363281 445.050781 C 340.488281 440.570312 351.339844 442.109375 357.660156 449.246094 C 365.015625 457.546875 361.949219 468.554688 361.746094 469.261719 C 361.320312 458.050781 353.226562 449.421875 344.515625 448.585938 C 333.917969 447.566406 322.363281 458.050781 323.351562 472.199219 Z M 323.351562 472.199219 " fill-opacity="1" fill-rule="nonzero"/><path fill="#60afbd" d="M 232.558594 522.085938 L 258.011719 515.511719 C 260.023438 514.996094 262.070312 516.203125 262.585938 518.21875 L 272.414062 556.261719 C 272.933594 558.273438 271.722656 560.320312 269.710938 560.835938 L 244.253906 567.410156 C 242.242188 567.929688 240.199219 566.71875 239.679688 564.707031 L 229.855469 526.660156 C 229.335938 524.648438 230.546875 522.601562 232.558594 522.085938 Z M 232.558594 522.085938 " fill-opacity="1" fill-rule="nonzero"/><path fill="#ffffff" d="M 251.566406 515.796875 L 252.085938 515.65625 C 252.886719 515.449219 253.71875 515.9375 253.925781 516.738281 L 268.75 573.886719 C 268.953125 574.6875 268.46875 575.523438 267.664062 575.726562 L 267.148438 575.867188 C 266.34375 576.070312 265.511719 575.585938 265.308594 574.78125 L 250.480469 517.636719 C 250.261719 516.832031 250.75 516.015625 251.566406 515.796875 Z M 251.566406 515.796875 " fill-opacity="1" fill-rule="nonzero"/><path fill="#292c56" d="M 266.769531 576.558594 C 265.808594 576.558594 264.945312 575.914062 264.695312 574.957031 L 249.867188 517.808594 C 249.570312 516.660156 250.261719 515.496094 251.410156 515.199219 L 251.929688 515.074219 C 253.074219 514.773438 254.238281 515.464844 254.539062 516.613281 L 269.363281 573.761719 C 269.664062 574.910156 268.96875 576.070312 267.824219 576.371094 C 267.335938 576.480469 267.117188 576.558594 266.769531 576.558594 Z M 252.460938 516.234375 C 252.304688 516.234375 252.257812 516.269531 251.722656 516.394531 C 251.25 516.519531 250.96875 517.007812 251.09375 517.476562 L 265.921875 574.625 C 266.046875 575.097656 266.535156 575.378906 267.003906 575.253906 L 267.523438 575.128906 C 267.996094 575.003906 268.277344 574.515625 268.152344 574.042969 L 253.328125 516.894531 C 253.21875 516.503906 252.855469 516.25 252.460938 516.234375 Z M 252.460938 516.234375 " fill-opacity="1" fill-rule="nonzero"/><path fill="#292c56" d="M 256.878906 535.226562 C 255.039062 528.121094 257.148438 536.25 256.878906 535.226562 L 256.140625 532.367188 L 256.878906 535.226562 L 256.140625 532.367188 L 256.878906 535.226562 C 254.976562 535.714844 252.714844 533.042969 250.828125 533.027344 C 248.878906 533.011719 246.566406 535.636719 244.742188 535.132812 C 242.886719 534.613281 242.257812 531.171875 240.609375 530.195312 C 238.957031 529.222656 235.640625 530.355469 234.289062 528.984375 C 232.953125 527.632812 234.128906 524.332031 233.171875 522.652344 C 232.242188 521.015625 228.800781 520.339844 228.3125 518.4375 C 227.808594 516.503906 230.671875 515.765625 230.167969 513.816406 C 229.664062 511.882812 226.804688 512.621094 226.300781 510.6875 C 225.796875 508.753906 228.660156 508.015625 228.15625 506.0625 C 227.652344 504.128906 224.792969 504.871094 224.289062 502.9375 C 223.785156 501.003906 226.648438 500.246094 226.144531 498.3125 C 225.640625 496.378906 222.78125 497.117188 222.277344 495.167969 C 221.789062 493.265625 224.460938 491.003906 224.476562 489.117188 C 224.492188 487.167969 221.867188 484.855469 222.371094 483.03125 C 222.890625 481.175781 226.332031 480.546875 227.308594 478.898438 C 228.28125 477.246094 227.148438 473.929688 228.519531 472.578125 C 229.871094 471.242188 233.171875 472.421875 234.855469 471.460938 C 236.488281 470.535156 237.164062 467.089844 239.066406 466.605469 L 239.804688 469.464844 L 239.066406 466.605469 L 239.804688 469.464844 L 239.066406 466.605469 L 239.804688 469.464844 L 239.066406 466.605469 C 240.96875 466.117188 243.234375 468.789062 245.121094 468.804688 C 247.070312 468.820312 249.382812 466.195312 251.203125 466.699219 C 253.058594 467.214844 253.6875 470.660156 255.339844 471.632812 C 256.992188 472.609375 260.308594 471.476562 261.660156 472.84375 C 262.996094 474.195312 261.816406 477.5 262.777344 479.179688 C 263.703125 480.816406 267.148438 481.492188 267.632812 483.394531 C 268.136719 485.328125 265.277344 486.066406 265.777344 488.015625 C 266.28125 489.949219 269.144531 489.210938 269.648438 491.144531 C 270.148438 493.078125 267.289062 493.816406 267.792969 495.765625 C 268.292969 497.699219 271.15625 496.960938 271.660156 498.894531 C 272.164062 500.828125 269.300781 501.582031 269.804688 503.515625 C 270.308594 505.453125 273.167969 504.710938 273.671875 506.660156 C 274.160156 508.5625 271.484375 510.828125 271.46875 512.714844 C 271.453125 514.648438 274.082031 516.976562 273.578125 518.796875 C 273.058594 520.652344 269.613281 521.28125 268.640625 522.933594 C 267.664062 524.585938 268.796875 527.902344 267.429688 529.253906 C 266.078125 530.589844 262.777344 529.410156 261.09375 530.371094 C 259.457031 531.296875 258.78125 534.742188 256.878906 535.226562 Z M 256.878906 535.226562 " fill-opacity="1" fill-rule="nonzero"/><path fill="#ffffff" d="M 316.417969 562.109375 L 309.957031 503.15625 C 305.050781 503.421875 300.132812 503.707031 295.226562 503.972656 L 293.890625 520.355469 C 293.765625 521.832031 292.554688 522.980469 291.074219 523.011719 L 284.945312 523.152344 C 275.824219 523.359375 268.355469 530.480469 267.726562 539.582031 L 266.109375 563.242188 C 265.746094 568.476562 269.976562 572.910156 275.226562 572.785156 L 307.726562 572.046875 C 312.992188 571.9375 317.015625 567.332031 316.417969 562.109375 Z M 316.417969 562.109375 " fill-opacity="1" fill-rule="nonzero"/><path fill="#292c56" d="M 275.039062 573.414062 C 269.488281 573.414062 265.117188 568.714844 265.496094 563.195312 L 267.117188 539.535156 C 267.761719 530.039062 275.433594 522.730469 284.929688 522.507812 L 291.058594 522.367188 C 292.222656 522.335938 293.167969 521.441406 293.261719 520.292969 L 294.597656 503.910156 C 294.628906 503.597656 294.878906 503.34375 295.195312 503.328125 L 309.925781 502.511719 C 310.257812 502.496094 310.554688 502.746094 310.585938 503.078125 L 317.046875 562.03125 C 317.675781 567.613281 313.386719 572.550781 307.757812 572.675781 Z M 295.808594 504.554688 L 294.519531 520.386719 C 294.378906 522.195312 292.898438 523.578125 291.089844 523.625 L 284.960938 523.765625 C 276.109375 523.972656 268.96875 530.777344 268.375 539.613281 L 266.753906 563.273438 C 266.40625 568.226562 270.464844 572.28125 275.226562 572.140625 L 307.726562 571.402344 C 312.597656 571.292969 316.339844 567 315.789062 562.160156 L 309.390625 503.785156 Z M 295.808594 504.554688 " fill-opacity="1" fill-rule="nonzero"/><path fill="#60afbd" d="M 275.683594 485.691406 L 283.039062 485.527344 L 283.191406 492.363281 L 275.835938 492.527344 Z M 275.683594 485.691406 " fill-opacity="1" fill-rule="nonzero"/><path fill="#60afbd" d="M 288.308594 513.640625 L 287.175781 513.671875 C 286.011719 513.703125 285.039062 512.777344 285.039062 511.613281 C 284.992188 505.453125 284.046875 499.382812 282.304688 493.535156 C 281.910156 492.199219 282.898438 490.863281 284.300781 490.847656 C 285.464844 490.847656 286.769531 490.832031 287.835938 490.816406 C 288.984375 490.816406 289.914062 491.726562 289.945312 492.859375 L 290.367188 511.503906 C 290.382812 512.667969 289.472656 513.625 288.308594 513.640625 Z M 288.308594 513.640625 " fill-opacity="1" fill-rule="nonzero"/><path fill="#ffffff" d="M 294.707031 501.882812 C 293.734375 499.414062 290.902344 495.375 282.742188 493.425781 C 281.34375 493.09375 280.335938 491.867188 280.304688 490.421875 L 280.257812 488.15625 C 280.226562 486.414062 281.59375 484.980469 283.339844 484.933594 L 317.160156 484.164062 C 318.148438 484.148438 319.09375 484.589844 319.707031 485.375 L 324.972656 492.089844 C 326.339844 493.832031 325.523438 496.410156 323.398438 497.054688 C 319.863281 498.125 316.308594 499.195312 312.773438 500.277344 C 311.71875 500.59375 311.277344 501.253906 310.839844 501.867188 C 310.289062 502.636719 309.40625 503.125 308.449219 503.1875 L 297.804688 503.816406 C 296.46875 503.894531 295.210938 503.125 294.707031 501.882812 Z M 294.707031 501.882812 " fill-opacity="1" fill-rule="nonzero"/><path fill="#292c56" d="M 297.617188 504.445312 C 296.074219 504.445312 294.691406 503.535156 294.125 502.117188 C 293.261719 499.917969 290.605469 495.957031 282.601562 494.039062 C 280.917969 493.628906 279.722656 492.152344 279.675781 490.4375 L 279.628906 488.171875 C 279.582031 486.082031 281.234375 484.351562 283.324219 484.304688 L 317.144531 483.535156 C 318.320312 483.519531 319.46875 484.054688 320.207031 484.980469 L 325.476562 491.695312 C 327.109375 493.785156 326.136719 496.882812 323.589844 497.636719 L 312.960938 500.859375 C 312.066406 501.128906 311.71875 501.710938 311.355469 502.210938 C 310.695312 503.15625 309.644531 503.722656 308.496094 503.785156 Z M 317.222656 484.808594 L 283.339844 485.578125 C 281.941406 485.609375 280.839844 486.757812 280.871094 488.15625 L 280.917969 490.421875 C 280.949219 491.570312 281.753906 492.542969 282.882812 492.828125 C 291.453125 494.871094 294.332031 499.242188 295.289062 501.664062 C 295.683594 502.636719 296.65625 503.25 297.757812 503.1875 L 308.402344 502.558594 C 309.171875 502.511719 309.863281 502.132812 310.304688 501.503906 L 310.585938 501.113281 C 311.074219 500.4375 311.765625 499.933594 312.566406 499.695312 L 323.195312 496.472656 C 324.894531 495.957031 325.554688 493.894531 324.453125 492.496094 L 319.1875 485.785156 C 318.730469 485.171875 318.007812 484.808594 317.222656 484.808594 Z M 317.222656 484.808594 " fill-opacity="1" fill-rule="nonzero"/><path fill="#60afbd" d="M 294.941406 500.65625 L 310.148438 500.308594 C 311.214844 500.277344 312.113281 501.144531 312.128906 502.210938 L 312.222656 506.207031 C 312.253906 507.273438 311.386719 508.171875 310.320312 508.1875 L 295.117188 508.53125 C 294.046875 508.5625 293.152344 507.699219 293.136719 506.628906 L 293.039062 502.636719 C 293.023438 501.566406 293.875 500.671875 294.941406 500.65625 Z M 294.941406 500.65625 " fill-opacity="1" fill-rule="nonzero"/><path fill="#60afbd" d="M 303.527344 566.828125 L 279.222656 567.378906 C 275.289062 567.472656 272.128906 564.15625 272.398438 560.242188 L 273.578125 543.152344 C 274.066406 535.996094 279.929688 530.402344 287.097656 530.242188 L 300.554688 529.945312 C 304.015625 529.867188 306.953125 532.429688 307.347656 535.871094 L 310.035156 559.40625 C 310.460938 563.304688 307.457031 566.75 303.527344 566.828125 Z M 303.527344 566.828125 " fill-opacity="1" fill-rule="nonzero"/><path fill="#ffffff" d="M 317.660156 644.019531 L 233.816406 644.019531 L 227.292969 546.910156 L 324.1875 546.910156 Z M 317.660156 644.019531 " fill-opacity="1" fill-rule="nonzero"/><path fill="#292c56" d="M 317.660156 644.648438 L 233.816406 644.648438 C 233.484375 644.648438 233.203125 644.398438 233.1875 644.066406 L 226.664062 546.957031 C 226.632812 546.59375 226.929688 546.28125 227.292969 546.28125 L 324.1875 546.28125 C 324.546875 546.28125 324.847656 546.59375 324.816406 546.957031 L 318.289062 644.066406 C 318.273438 644.382812 317.992188 644.648438 317.660156 644.648438 Z M 234.398438 643.390625 L 317.078125 643.390625 L 323.527344 547.539062 L 227.96875 547.539062 Z M 234.398438 643.390625 " fill-opacity="1" fill-rule="nonzero"/><path fill="#ffffff" d="M 222.230469 544.925781 L 329.25 544.925781 L 329.25 552.222656 L 222.230469 552.222656 Z M 222.230469 544.925781 " fill-opacity="1" fill-rule="nonzero"/><path fill="#292c56" d="M 329.25 552.835938 L 222.230469 552.835938 C 221.882812 552.835938 221.601562 552.550781 221.601562 552.207031 L 221.601562 544.910156 C 221.601562 544.566406 221.882812 544.28125 222.230469 544.28125 L 329.25 544.28125 C 329.59375 544.28125 329.878906 544.566406 329.878906 544.910156 L 329.878906 552.207031 C 329.878906 552.550781 329.59375 552.835938 329.25 552.835938 Z M 222.859375 551.578125 L 328.621094 551.578125 L 328.621094 545.539062 L 222.859375 545.539062 Z M 222.859375 551.578125 " fill-opacity="1" fill-rule="nonzero"/><path fill="#60afbd" d="M 231.113281 603.789062 C 231.113281 603.789062 238.5625 604.636719 244.160156 608.535156 C 249.757812 612.433594 253.21875 608.976562 253.734375 612.65625 C 254.253906 616.335938 242.023438 617.65625 236.207031 615.59375 C 236.207031 615.59375 243.265625 623.992188 247.980469 626.347656 C 252.699219 628.707031 261.832031 629.808594 261.09375 632.984375 C 260.355469 636.144531 248.140625 635.921875 241.804688 632.386719 C 241.804688 632.386719 259.253906 638.140625 258.734375 641.078125 C 258.214844 644.019531 246.882812 642.917969 238.5625 638.421875 C 238.5625 638.421875 251.378906 643.578125 249.757812 647.117188 C 248.140625 650.652344 236.914062 646.675781 231.113281 641.660156 C 236.773438 647.574219 243.65625 655.402344 236.0625 652.414062 C 225.90625 648.40625 219.054688 635.40625 219.054688 635.40625 C 210.074219 618.363281 207.890625 597.121094 207.277344 589.167969 C 214.839844 588.335938 222.402344 587.484375 229.964844 586.652344 C 230.339844 592.359375 230.71875 598.082031 231.113281 603.789062 Z M 231.113281 603.789062 " fill-opacity="1" fill-rule="nonzero"/><path fill="#292c56" d="M 213.300781 594.324219 C 210.140625 588.980469 211.285156 582.171875 216.019531 578.164062 L 226.410156 569.121094 C 227.214844 568.445312 228.390625 568.542969 229.066406 569.34375 C 229.746094 570.144531 229.648438 571.324219 228.847656 572 L 218.457031 581.039062 C 215.121094 583.871094 214.320312 588.648438 216.539062 592.40625 C 219.367188 597.1875 225.8125 598.253906 230.027344 594.65625 L 281.3125 550.933594 C 282.097656 550.257812 283.292969 550.351562 283.96875 551.136719 C 284.644531 551.921875 284.550781 553.117188 283.765625 553.792969 L 232.480469 597.515625 C 226.488281 602.65625 217.308594 601.117188 213.300781 594.324219 Z M 213.300781 594.324219 " fill-opacity="1" fill-rule="nonzero"/><path fill="#292c56" d="M 289.285156 549.488281 C 289.285156 549.925781 289.242188 550.363281 289.15625 550.792969 C 289.070312 551.226562 288.941406 551.644531 288.773438 552.050781 C 288.605469 552.457031 288.398438 552.84375 288.15625 553.207031 C 287.910156 553.574219 287.632812 553.910156 287.320312 554.222656 C 287.011719 554.535156 286.671875 554.8125 286.308594 555.054688 C 285.941406 555.300781 285.554688 555.507812 285.148438 555.675781 C 284.742188 555.84375 284.324219 555.96875 283.890625 556.054688 C 283.460938 556.140625 283.027344 556.183594 282.585938 556.183594 C 282.144531 556.183594 281.710938 556.140625 281.277344 556.054688 C 280.847656 555.96875 280.429688 555.84375 280.023438 555.675781 C 279.617188 555.507812 279.230469 555.300781 278.863281 555.054688 C 278.5 554.8125 278.160156 554.535156 277.851562 554.222656 C 277.539062 553.910156 277.261719 553.574219 277.015625 553.207031 C 276.773438 552.84375 276.566406 552.457031 276.398438 552.050781 C 276.230469 551.644531 276.101562 551.226562 276.015625 550.792969 C 275.929688 550.363281 275.886719 549.925781 275.886719 549.488281 C 275.886719 549.046875 275.929688 548.613281 276.015625 548.179688 C 276.101562 547.75 276.230469 547.332031 276.398438 546.925781 C 276.566406 546.519531 276.773438 546.132812 277.015625 545.765625 C 277.261719 545.402344 277.539062 545.0625 277.851562 544.75 C 278.160156 544.441406 278.5 544.164062 278.863281 543.917969 C 279.230469 543.675781 279.617188 543.46875 280.023438 543.300781 C 280.429688 543.132812 280.847656 543.003906 281.277344 542.917969 C 281.710938 542.832031 282.144531 542.789062 282.585938 542.789062 C 283.027344 542.789062 283.460938 542.832031 283.890625 542.917969 C 284.324219 543.003906 284.742188 543.132812 285.148438 543.300781 C 285.554688 543.46875 285.941406 543.675781 286.308594 543.917969 C 286.671875 544.164062 287.011719 544.441406 287.320312 544.75 C 287.632812 545.0625 287.910156 545.402344 288.15625 545.765625 C 288.398438 546.132812 288.605469 546.519531 288.773438 546.925781 C 288.941406 547.332031 289.070312 547.75 289.15625 548.179688 C 289.242188 548.613281 289.285156 549.046875 289.285156 549.488281 Z M 289.285156 549.488281 " fill-opacity="1" fill-rule="nonzero"/><path fill="#60afbd" d="M 412.921875 581.226562 L 399.886719 607.734375 C 399.886719 607.734375 384.652344 631.253906 385.644531 636.457031 C 386.632812 641.644531 393.378906 638.453125 393.378906 638.453125 C 393.378906 638.453125 391.507812 647.746094 398.457031 644.035156 C 398.457031 644.035156 397.921875 652.289062 404.023438 648.25 C 404.023438 648.25 403.203125 654.726562 408.878906 653.40625 C 414.554688 652.085938 422.054688 642.808594 422.875 639.855469 C 423.691406 636.914062 418.15625 637.054688 418.15625 637.054688 C 418.15625 637.054688 431.046875 626.300781 425.230469 619.335938 L 442.023438 604.652344 Z M 412.921875 581.226562 " fill-opacity="1" fill-rule="nonzero"/><path fill="#292c56" d="M 407.574219 654.441406 C 404.886719 654.441406 403.707031 651.910156 403.441406 649.238281 C 399.855469 650.921875 397.890625 648.800781 397.8125 644.898438 C 393.0625 646.378906 391.242188 643.972656 392.355469 639.570312 C 388.898438 640.828125 385.957031 640.105469 385.03125 636.613281 C 383.566406 631.050781 395.722656 612.984375 397.121094 610.957031 C 397.308594 610.675781 397.703125 610.597656 398 610.785156 C 398.285156 610.972656 398.363281 611.367188 398.175781 611.664062 C 394.480469 617.074219 385.140625 632.054688 386.257812 636.300781 C 386.570312 637.511719 387.152344 638.265625 388.015625 638.644531 C 390.078125 639.523438 393.046875 637.917969 393.078125 637.902344 C 393.597656 637.621094 394.179688 638.140625 393.960938 638.691406 C 393.566406 639.695312 392.765625 642.558594 393.835938 643.640625 C 394.527344 644.335938 396.050781 644.269531 398.238281 643.453125 C 398.675781 643.296875 399.117188 643.640625 399.085938 644.097656 C 399.007812 645.027344 399.101562 647.621094 400.328125 648.375 C 401.238281 648.941406 402.671875 648.328125 403.707031 647.714844 C 404.132812 647.460938 404.667969 647.777344 404.667969 648.265625 C 404.652344 649.285156 404.964844 652.132812 406.523438 652.964844 C 407.921875 653.71875 409.996094 652.652344 411.492188 651.628906 C 411.773438 651.441406 412.167969 651.503906 412.371094 651.785156 C 412.558594 652.070312 412.496094 652.460938 412.214844 652.667969 C 410.421875 653.828125 408.878906 654.441406 407.574219 654.441406 Z M 407.574219 654.441406 " fill-opacity="1" fill-rule="nonzero"/><g clip-path="url(#e1a7b7e1c2)"><g clip-path="url(#ab0518ba85)"><g clip-path="url(#cc992397e1)"><path fill="#286359" d="M 327.570312 166.808594 L 309.644531 179.40625 L 288.65625 185.703125 L 306.582031 173.101562 Z M 327.570312 166.808594 " fill-opacity="1" fill-rule="nonzero"/></g></g></g><g clip-path="url(#79cbb43fe8)"><g clip-path="url(#2f2349f3a3)"><g clip-path="url(#3e7854888b)"><path fill="#286359" d="M 298.667969 156.796875 L 311.265625 174.722656 L 317.558594 195.710938 L 304.960938 177.785156 Z M 298.667969 156.796875 " fill-opacity="1" fill-rule="nonzero"/></g></g></g><g clip-path="url(#e574f4a662)"><g clip-path="url(#2affd23bf3)"><g clip-path="url(#a9e5df3424)"><path fill="#286359" d="M 247.335938 168.164062 L 236.042969 176.097656 L 222.820312 180.066406 L 234.113281 172.128906 Z M 247.335938 168.164062 " fill-opacity="1" fill-rule="nonzero"/></g></g></g><g clip-path="url(#972545871a)"><g clip-path="url(#6ce8c5e2b8)"><g clip-path="url(#d7af4b02ce)"><path fill="#286359" d="M 229.125 161.855469 L 237.0625 173.148438 L 241.027344 186.371094 L 233.09375 175.078125 Z M 229.125 161.855469 " fill-opacity="1" fill-rule="nonzero"/></g></g></g><g clip-path="url(#fc72ff35cc)"><g clip-path="url(#2abe37f557)"><g clip-path="url(#8268c47151)"><path fill="#286359" d="M 324.496094 246.4375 L 313.203125 254.375 L 299.984375 258.339844 L 311.277344 250.40625 Z M 324.496094 246.4375 " fill-opacity="1" fill-rule="nonzero"/></g></g></g><g clip-path="url(#9be08cfe5b)"><g clip-path="url(#342ec4dcf6)"><g clip-path="url(#2e85d61f12)"><path fill="#286359" d="M 306.289062 240.132812 L 314.226562 251.425781 L 318.191406 264.648438 L 310.253906 253.355469 Z M 306.289062 240.132812 " fill-opacity="1" fill-rule="nonzero"/></g></g></g><g clip-path="url(#7af38f1edb)"><g clip-path="url(#ab4b7b5d21)"><g clip-path="url(#cffd2d5759)"><path fill="#286359" d="M 310.53125 382.378906 C 310.5 386.316406 313.664062 389.535156 317.59375 389.570312 C 321.53125 389.609375 324.753906 386.453125 324.785156 382.519531 C 324.828125 378.585938 321.671875 375.359375 317.738281 375.328125 C 313.796875 375.285156 310.578125 378.445312 310.53125 382.378906 Z M 313.101562 379.542969 C 314.085938 387.128906 322.152344 385.425781 322.152344 385.425781 C 319.5625 388.5625 314.675781 387.914062 313.125 385.113281 C 311.570312 382.308594 313.101562 379.542969 313.101562 379.542969 Z M 313.101562 379.542969 " fill-opacity="1" fill-rule="nonzero"/></g></g></g><g clip-path="url(#429c58c63d)"><g clip-path="url(#9e58473b35)"><g clip-path="url(#7a0ac50a5a)"><path fill="#286359" d="M 314.386719 360.519531 C 314.359375 363.667969 316.890625 366.242188 320.035156 366.269531 C 323.183594 366.300781 325.765625 363.777344 325.789062 360.628906 C 325.820312 357.480469 323.300781 354.902344 320.152344 354.875 C 317 354.839844 314.421875 357.371094 314.386719 360.519531 Z M 316.441406 358.25 C 317.230469 364.316406 323.683594 362.957031 323.683594 362.957031 C 321.613281 365.464844 317.699219 364.945312 316.460938 362.707031 C 315.214844 360.460938 316.441406 358.25 316.441406 358.25 Z M 316.441406 358.25 " fill-opacity="1" fill-rule="nonzero"/></g></g></g><g clip-path="url(#009f093336)"><g clip-path="url(#7417da0cfb)"><g clip-path="url(#97cc16d30e)"><path fill="#286359" d="M 343.710938 349.089844 C 340.714844 349.0625 338.316406 346.613281 338.34375 343.617188 C 338.375 340.628906 340.828125 338.226562 343.820312 338.257812 C 346.808594 338.28125 349.210938 340.738281 349.183594 343.726562 C 349.152344 346.71875 346.699219 349.125 343.710938 349.089844 Z M 343.710938 349.089844 " fill-opacity="1" fill-rule="nonzero"/></g></g></g><g clip-path="url(#a28aff5632)"><g clip-path="url(#0e051b85b1)"><g clip-path="url(#e8d6e61b6b)"><path fill="#286359" d="M 287.414062 375.875 C 287.4375 373.578125 289.3125 371.738281 291.609375 371.757812 C 293.90625 371.785156 295.75 373.664062 295.726562 375.953125 C 295.707031 378.257812 293.824219 380.097656 291.53125 380.070312 C 289.234375 380.058594 287.394531 378.171875 287.414062 375.875 Z M 287.414062 375.875 " fill-opacity="1" fill-rule="nonzero"/></g></g></g><g clip-path="url(#59f2cc089f)"><g clip-path="url(#3312195019)"><g clip-path="url(#f219f166a4)"><path fill="#286359" d="M 261.972656 361.183594 C 263.796875 361.210938 265.257812 362.703125 265.238281 364.527344 C 265.21875 366.347656 263.730469 367.808594 261.910156 367.789062 C 260.085938 367.773438 258.628906 366.277344 258.648438 364.457031 C 258.664062 362.640625 260.160156 361.179688 261.972656 361.183594 Z M 261.972656 361.183594 " fill-opacity="1" fill-rule="nonzero"/></g></g></g><g clip-path="url(#27b43637b0)"><g clip-path="url(#a66d78d9aa)"><g clip-path="url(#e850897986)"><path fill="#286359" d="M 320.796875 318.40625 C 322.617188 318.425781 324.078125 319.914062 324.058594 321.738281 C 324.042969 323.558594 322.550781 325.019531 320.726562 325 C 318.90625 324.984375 317.445312 323.492188 317.46875 321.675781 C 317.484375 319.851562 318.976562 318.390625 320.796875 318.40625 Z M 320.796875 318.40625 " fill-opacity="1" fill-rule="nonzero"/></g></g></g><g clip-path="url(#5a4a54fa22)"><g clip-path="url(#ff294d2d4b)"><g clip-path="url(#dee86208e6)"><path fill="#286359" d="M 342.316406 306.828125 C 336.171875 319.238281 299.476562 376.511719 224.589844 338.347656 C 224.589844 338.347656 241.21875 352.710938 271.71875 356.019531 C 302.230469 359.332031 334.667969 340.726562 346.90625 321.066406 C 359.136719 301.40625 348.457031 294.417969 342.316406 306.828125 Z M 324.78125 339.433594 C 333.738281 331.816406 343.226562 316.265625 344.5625 312.703125 C 345.902344 309.132812 348.042969 309.9375 348.042969 309.9375 C 345.636719 326.109375 324.78125 339.433594 324.78125 339.433594 Z M 324.78125 339.433594 " fill-opacity="1" fill-rule="nonzero"/></g></g></g><g clip-path="url(#0fa1d3d45b)"><g clip-path="url(#e2daa60563)"><g clip-path="url(#cb1cab0c6c)"><path fill="#286359" d="M 268.601562 227.226562 C 268.601562 227.226562 252.257812 231.054688 241.585938 244.988281 C 230.101562 259.980469 221.511719 285.050781 242.71875 314.507812 C 242.71875 314.507812 232.609375 298.683594 238.351562 273.667969 C 243.15625 252.742188 258.707031 244.539062 272.222656 242.863281 Z M 268.601562 227.226562 " fill-opacity="1" fill-rule="nonzero"/></g></g></g><g clip-path="url(#e7d3c62117)"><g clip-path="url(#cec1c7c514)"><g clip-path="url(#ec5339f295)"><path fill="#286359" d="M 310.667969 334.386719 C 312.949219 332.238281 315.015625 328.578125 313.527344 326.804688 C 312.023438 325.023438 309.101562 325.164062 307.566406 326.0625 C 302.789062 330.195312 294.804688 335.988281 285.097656 337.082031 C 247.785156 341.304688 206.402344 292.726562 232.0625 249.398438 C 240.785156 234.667969 254.820312 225.625 270.316406 221.9375 L 269.308594 216.441406 C 245.636719 221.675781 225.636719 237.199219 220.621094 261.324219 C 212.945312 298.242188 235.503906 321.257812 235.503906 321.257812 C 208.625 299.917969 202.164062 257.699219 233.839844 229.199219 C 244.867188 219.273438 257.25 214.789062 268.707031 213.15625 L 265.769531 190.5 C 205.164062 195.699219 174.332031 272.933594 207.882812 317.394531 C 234.550781 352.734375 285.980469 353.042969 310.667969 334.386719 Z M 203.992188 289.972656 C 194.5 249.453125 223.359375 219.351562 238.457031 214.769531 C 238.457031 214.769531 215.945312 227.867188 208.179688 262.917969 C 201.0625 295.03125 225.972656 328.910156 258.121094 339.972656 C 258.121094 339.972656 213.484375 330.503906 203.992188 289.972656 Z M 203.992188 289.972656 " fill-opacity="1" fill-rule="nonzero"/></g></g></g><g clip-path="url(#8279edbc05)"><g clip-path="url(#b8e5b690a3)"><g clip-path="url(#2e90e0400e)"><path fill="#ffffff" d="M 252.933594 191.441406 L 262.359375 246.535156 L 275.945312 243.789062 L 267.121094 186.960938 Z M 252.933594 191.441406 " fill-opacity="1" fill-rule="nonzero"/></g></g></g><g clip-path="url(#7993a631db)"><g clip-path="url(#572d3e181d)"><g clip-path="url(#de9c909942)"><path fill="#286359" d="M 254.0625 182.714844 L 266.644531 256.867188 L 279.144531 250.546875 L 273.773438 218.640625 L 273.777344 218.636719 L 273.589844 217.546875 L 273.40625 216.453125 L 273.402344 216.457031 L 267.949219 184.5625 Z M 254.0625 182.714844 " fill-opacity="1" fill-rule="nonzero"/></g></g></g><g clip-path="url(#3ad60a3a5a)"><g clip-path="url(#5e6389e282)"><g clip-path="url(#cf2295cffc)"><path fill="#286359" d="M 273.691406 180.980469 L 269.746094 181.648438 L 281.804688 252.703125 L 285.746094 252.035156 C 285.746094 252.035156 287.882812 251.816406 287.617188 249.398438 L 276.328125 182.851562 C 275.78125 180.480469 273.691406 180.980469 273.691406 180.980469 Z M 273.691406 180.980469 " fill-opacity="1" fill-rule="nonzero"/></g></g></g><g clip-path="url(#797e957272)"><g clip-path="url(#ed2d111f12)"><g clip-path="url(#4a45096bf0)"><path fill="#286359" d="M 279.433594 209.84375 L 280.28125 215.914062 L 280.269531 215.917969 L 280.304688 216.089844 L 280.328125 216.261719 L 280.339844 216.261719 L 281.542969 222.269531 C 294.171875 214.71875 355.527344 208.558594 374.433594 206.125 C 390.757812 204.023438 391.433594 198.816406 391.3125 197.429688 C 391.3125 197.429688 391.3125 197.367188 391.289062 197.257812 C 391.273438 197.148438 391.253906 197.085938 391.253906 197.085938 L 391.253906 197.089844 C 390.910156 195.742188 388.554688 191.046875 372.453125 194.449219 C 353.800781 198.382812 293.847656 212.808594 279.433594 209.84375 Z M 279.433594 209.84375 " fill-opacity="1" fill-rule="nonzero"/></g></g></g><g fill="#286359" fill-opacity="1"><g transform="translate(114.714923, 158.174669)"><g><path d="M 90.265625 -41.984375 L 90.265625 -3.1875 C 90.265625 -2.125 89.53125 -1.21875 88.0625 -0.46875 C 86.59375 0.28125 84.796875 0.65625 82.671875 0.65625 C 80.585938 0.65625 78.8125 0.28125 77.34375 -0.46875 C 75.875 -1.21875 75.140625 -2.125 75.140625 -3.1875 L 75.140625 -41.984375 C 75.140625 -43.722656 75.019531 -45.59375 74.78125 -47.59375 C 74.539062 -49.59375 74.101562 -51.472656 73.46875 -53.234375 C 72.84375 -55.003906 71.9375 -56.453125 70.75 -57.578125 C 69.570312 -58.710938 68.039062 -59.28125 66.15625 -59.28125 C 62.488281 -59.28125 59.847656 -57.914062 58.234375 -55.1875 C 56.617188 -52.46875 55.765625 -48.066406 55.671875 -41.984375 L 55.671875 -3.1875 C 55.671875 -2.125 54.945312 -1.21875 53.5 -0.46875 C 52.050781 0.28125 50.285156 0.65625 48.203125 0.65625 C 46.035156 0.65625 44.238281 0.28125 42.8125 -0.46875 C 41.394531 -1.21875 40.6875 -2.125 40.6875 -3.1875 L 40.6875 -41.984375 C 40.6875 -47.972656 39.875 -52.351562 38.25 -55.125 C 36.632812 -57.894531 33.921875 -59.28125 30.109375 -59.28125 C 28.328125 -59.28125 26.84375 -58.75 25.65625 -57.6875 C 24.476562 -56.625 23.570312 -55.25 22.9375 -53.5625 C 22.3125 -51.875 21.863281 -50.015625 21.59375 -47.984375 C 21.332031 -45.960938 21.203125 -43.960938 21.203125 -41.984375 L 21.203125 -3.1875 C 21.203125 -2.125 20.46875 -1.21875 19 -0.46875 C 17.53125 0.28125 15.757812 0.65625 13.6875 0.65625 C 11.601562 0.65625 9.828125 0.28125 8.359375 -0.46875 C 6.890625 -1.21875 6.15625 -2.125 6.15625 -3.1875 L 6.15625 -41.984375 C 6.15625 -44.679688 6.367188 -47.394531 6.796875 -50.125 C 7.234375 -52.851562 7.984375 -55.457031 9.046875 -57.9375 C 10.109375 -60.425781 11.539062 -62.632812 13.34375 -64.5625 C 15.15625 -66.5 17.4375 -68.035156 20.1875 -69.171875 C 22.945312 -70.304688 26.253906 -70.875 30.109375 -70.875 C 34.117188 -70.875 37.582031 -70.398438 40.5 -69.453125 C 43.414062 -68.515625 45.960938 -66.957031 48.140625 -64.78125 C 50.210938 -66.757812 52.804688 -68.269531 55.921875 -69.3125 C 59.035156 -70.351562 62.445312 -70.875 66.15625 -70.875 C 70.84375 -70.875 74.738281 -70.0625 77.84375 -68.4375 C 80.957031 -66.820312 83.421875 -64.640625 85.234375 -61.890625 C 87.046875 -59.140625 88.335938 -56.035156 89.109375 -52.578125 C 89.878906 -49.128906 90.265625 -45.597656 90.265625 -41.984375 Z M 90.265625 -41.984375 "/></g></g><g transform="translate(211.14026, 158.174669)"><g><path d="M 59.21875 -4.640625 C 59.457031 -3.578125 58.925781 -2.609375 57.625 -1.734375 C 56.320312 -0.867188 54.679688 -0.265625 52.703125 0.078125 C 50.765625 0.265625 49 0.128906 47.40625 -0.328125 C 45.820312 -0.785156 44.882812 -1.5 44.59375 -2.46875 L 44.375 -3.328125 C 39.882812 -0.722656 34.597656 0.578125 28.515625 0.578125 C 24.273438 0.578125 20.609375 -0.179688 17.515625 -1.703125 C 14.429688 -3.222656 11.882812 -5.285156 9.875 -7.890625 C 7.875 -10.492188 6.390625 -13.457031 5.421875 -16.78125 C 4.460938 -20.113281 3.984375 -23.59375 3.984375 -27.21875 C 3.984375 -31.269531 4.414062 -35.203125 5.28125 -39.015625 C 6.15625 -42.828125 7.648438 -46.253906 9.765625 -49.296875 C 11.890625 -52.335938 14.796875 -54.75 18.484375 -56.53125 C 22.179688 -58.320312 26.878906 -59.21875 32.578125 -59.21875 C 37.304688 -59.21875 41.515625 -58.359375 45.203125 -56.640625 C 48.898438 -54.929688 51.804688 -52.472656 53.921875 -49.265625 C 56.046875 -46.054688 57.109375 -42.207031 57.109375 -37.71875 L 57.109375 -22.078125 C 57.109375 -21.066406 57.164062 -19.75 57.28125 -18.125 C 57.40625 -16.507812 57.566406 -14.832031 57.765625 -13.09375 C 57.960938 -11.363281 58.191406 -9.738281 58.453125 -8.21875 C 58.710938 -6.695312 58.96875 -5.503906 59.21875 -4.640625 Z M 29.09375 -11.078125 C 30.789062 -10.929688 32.53125 -11.132812 34.3125 -11.6875 C 36.09375 -12.238281 37.707031 -13.117188 39.15625 -14.328125 C 40.601562 -15.535156 41.664062 -17.035156 42.34375 -18.828125 L 42.34375 -37.71875 C 42.34375 -40.894531 41.484375 -43.375 39.765625 -45.15625 C 38.054688 -46.945312 35.660156 -47.84375 32.578125 -47.84375 C 29.585938 -47.84375 27.195312 -47.273438 25.40625 -46.140625 C 23.625 -45.015625 22.285156 -43.472656 21.390625 -41.515625 C 20.492188 -39.554688 19.890625 -37.320312 19.578125 -34.8125 C 19.265625 -32.300781 19.082031 -29.695312 19.03125 -27 C 18.988281 -24.632812 19.289062 -22.253906 19.9375 -19.859375 C 20.59375 -17.472656 21.664062 -15.457031 23.15625 -13.8125 C 24.65625 -12.175781 26.632812 -11.265625 29.09375 -11.078125 Z M 29.09375 -11.078125 "/></g></g><g transform="translate(274.048382, 158.174669)"><g><path d="M 24.25 -55.515625 L 24.25 -3.40625 C 24.25 -2.34375 23.597656 -1.398438 22.296875 -0.578125 C 20.992188 0.242188 19.179688 0.65625 16.859375 0.65625 C 14.785156 0.65625 13.023438 0.28125 11.578125 -0.46875 C 10.128906 -1.21875 9.40625 -2.097656 9.40625 -3.109375 L 9.40625 -55.515625 C 9.40625 -56.484375 10.128906 -57.34375 11.578125 -58.09375 C 13.023438 -58.84375 14.785156 -59.21875 16.859375 -59.21875 C 18.835938 -59.21875 20.5625 -58.84375 22.03125 -58.09375 C 23.507812 -57.34375 24.25 -56.484375 24.25 -55.515625 Z M 7.171875 -75.859375 C 7.171875 -77.648438 7.601562 -79.28125 8.46875 -80.75 C 9.332031 -82.21875 10.5 -83.382812 11.96875 -84.25 C 13.445312 -85.125 15.078125 -85.5625 16.859375 -85.5625 C 18.648438 -85.5625 20.28125 -85.125 21.75 -84.25 C 23.21875 -83.382812 24.398438 -82.21875 25.296875 -80.75 C 26.191406 -79.28125 26.640625 -77.648438 26.640625 -75.859375 C 26.640625 -74.078125 26.191406 -72.445312 25.296875 -70.96875 C 24.398438 -69.5 23.21875 -68.316406 21.75 -67.421875 C 20.28125 -66.535156 18.648438 -66.09375 16.859375 -66.09375 C 15.078125 -66.09375 13.445312 -66.535156 11.96875 -67.421875 C 10.5 -68.316406 9.332031 -69.5 8.46875 -70.96875 C 7.601562 -72.445312 7.171875 -74.078125 7.171875 -75.859375 Z M 7.171875 -75.859375 "/></g></g><g transform="translate(307.710379, 158.174669)"><g><path d="M 30.40625 -59.140625 C 32.476562 -59.140625 34.550781 -58.96875 36.625 -58.625 C 38.695312 -58.289062 40.601562 -57.738281 42.34375 -56.96875 L 42.34375 -75.9375 C 42.34375 -76.894531 43.078125 -77.75 44.546875 -78.5 C 46.023438 -79.25 47.753906 -79.625 49.734375 -79.625 C 51.753906 -79.625 53.488281 -79.25 54.9375 -78.5 C 56.382812 -77.75 57.109375 -76.894531 57.109375 -75.9375 L 57.109375 -22.078125 C 57.109375 -19.128906 57.300781 -16.144531 57.6875 -13.125 C 58.070312 -10.113281 58.554688 -7.257812 59.140625 -4.5625 C 59.378906 -3.550781 58.859375 -2.617188 57.578125 -1.765625 C 56.304688 -0.921875 54.679688 -0.304688 52.703125 0.078125 C 50.765625 0.316406 49 0.195312 47.40625 -0.28125 C 45.820312 -0.769531 44.882812 -1.5 44.59375 -2.46875 L 44.453125 -2.890625 C 42.367188 -1.734375 40.179688 -0.851562 37.890625 -0.25 C 35.597656 0.351562 33.101562 0.65625 30.40625 0.65625 C 25.769531 0.65625 21.773438 -0.1875 18.421875 -1.875 C 15.066406 -3.570312 12.328125 -5.796875 10.203125 -8.546875 C 8.078125 -11.296875 6.507812 -14.347656 5.5 -17.703125 C 4.488281 -21.054688 3.984375 -24.394531 3.984375 -27.71875 C 3.984375 -31.726562 4.40625 -35.601562 5.25 -39.34375 C 6.09375 -43.082031 7.503906 -46.445312 9.484375 -49.4375 C 11.460938 -52.425781 14.164062 -54.789062 17.59375 -56.53125 C 21.019531 -58.269531 25.289062 -59.140625 30.40625 -59.140625 Z M 18.890625 -27.9375 C 18.890625 -24.894531 19.273438 -22.082031 20.046875 -19.5 C 20.816406 -16.925781 22.070312 -14.863281 23.8125 -13.3125 C 25.550781 -11.769531 27.867188 -11 30.765625 -11 C 33.367188 -11 35.644531 -11.734375 37.59375 -13.203125 C 39.550781 -14.679688 41.160156 -16.53125 42.421875 -18.75 C 42.367188 -19.375 42.34375 -20.046875 42.34375 -20.765625 C 42.34375 -21.492188 42.34375 -22.171875 42.34375 -22.796875 L 42.34375 -39.953125 C 40.851562 -42.515625 39.210938 -44.429688 37.421875 -45.703125 C 35.640625 -46.984375 33.421875 -47.625 30.765625 -47.625 C 28.015625 -47.625 25.828125 -47.019531 24.203125 -45.8125 C 22.585938 -44.613281 21.40625 -43.023438 20.65625 -41.046875 C 19.914062 -39.066406 19.4375 -36.929688 19.21875 -34.640625 C 19 -32.347656 18.890625 -30.113281 18.890625 -27.9375 Z M 18.890625 -27.9375 "/></g></g></g><g fill="#286359" fill-opacity="1"><g transform="translate(284.865345, 304.963479)"><g><path d="M 31.171875 -59.15625 C 36.035156 -59.15625 40.238281 -58.394531 43.78125 -56.875 C 47.332031 -55.351562 50.265625 -53.242188 52.578125 -50.546875 C 54.890625 -47.847656 56.613281 -44.675781 57.75 -41.03125 C 58.882812 -37.394531 59.453125 -33.484375 59.453125 -29.296875 C 59.453125 -22.878906 58.328125 -17.453125 56.078125 -13.015625 C 53.835938 -8.578125 50.609375 -5.203125 46.390625 -2.890625 C 42.171875 -0.578125 37.097656 0.578125 31.171875 0.578125 C 22.109375 0.578125 15.148438 -2.046875 10.296875 -7.296875 C 5.453125 -12.554688 3.03125 -19.890625 3.03125 -29.296875 C 3.03125 -38.929688 5.515625 -46.316406 10.484375 -51.453125 C 15.453125 -56.585938 22.347656 -59.15625 31.171875 -59.15625 Z M 31.171875 -10.84375 C 34.585938 -10.84375 37.285156 -11.660156 39.265625 -13.296875 C 41.242188 -14.941406 42.65625 -17.160156 43.5 -19.953125 C 44.34375 -22.753906 44.765625 -25.867188 44.765625 -29.296875 C 44.765625 -35.515625 43.664062 -40.148438 41.46875 -43.203125 C 39.28125 -46.265625 35.847656 -47.796875 31.171875 -47.796875 C 26.492188 -47.796875 23.082031 -46.265625 20.9375 -43.203125 C 18.789062 -40.148438 17.71875 -35.515625 17.71875 -29.296875 C 17.71875 -23.171875 18.789062 -18.5625 20.9375 -15.46875 C 23.082031 -12.382812 26.492188 -10.84375 31.171875 -10.84375 Z M 31.171875 -10.84375 "/></g></g><g transform="translate(347.346998, 304.963479)"><g><path d="M 61.25 -3.1875 C 61.25 -2.164062 60.523438 -1.28125 59.078125 -0.53125 C 57.640625 0.207031 55.90625 0.578125 53.875 0.578125 C 51.851562 0.578125 50.117188 0.207031 48.671875 -0.53125 C 47.222656 -1.28125 46.5 -2.164062 46.5 -3.1875 L 46.5 -30.8125 C 46.5 -36.976562 45.484375 -41.347656 43.453125 -43.921875 C 41.429688 -46.503906 38.109375 -47.796875 33.484375 -47.796875 C 28.804688 -47.796875 25.476562 -46.503906 23.5 -43.921875 C 21.519531 -41.347656 20.53125 -36.976562 20.53125 -30.8125 L 20.53125 -3.1875 C 20.53125 -2.164062 19.796875 -1.28125 18.328125 -0.53125 C 16.859375 0.207031 15.132812 0.578125 13.15625 0.578125 C 11.132812 0.578125 9.398438 0.207031 7.953125 -0.53125 C 6.503906 -1.28125 5.78125 -2.164062 5.78125 -3.1875 L 5.78125 -30.8125 C 5.78125 -35.96875 6.421875 -40.253906 7.703125 -43.671875 C 8.984375 -47.097656 10.660156 -49.847656 12.734375 -51.921875 C 14.804688 -53.992188 17.070312 -55.546875 19.53125 -56.578125 C 21.988281 -57.617188 24.445312 -58.304688 26.90625 -58.640625 C 29.363281 -58.984375 31.554688 -59.15625 33.484375 -59.15625 C 39.898438 -59.15625 45.144531 -58 49.21875 -55.6875 C 53.289062 -53.375 56.3125 -50.09375 58.28125 -45.84375 C 60.257812 -41.601562 61.25 -36.59375 61.25 -30.8125 Z M 61.25 -3.1875 "/></g></g><g transform="translate(414.384605, 304.963479)"><g><path d="M 61.25 -3.1875 C 61.25 -2.164062 60.523438 -1.28125 59.078125 -0.53125 C 57.640625 0.207031 55.90625 0.578125 53.875 0.578125 C 51.851562 0.578125 50.117188 0.207031 48.671875 -0.53125 C 47.222656 -1.28125 46.5 -2.164062 46.5 -3.1875 L 46.5 -30.8125 C 46.5 -36.976562 45.484375 -41.347656 43.453125 -43.921875 C 41.429688 -46.503906 38.109375 -47.796875 33.484375 -47.796875 C 28.804688 -47.796875 25.476562 -46.503906 23.5 -43.921875 C 21.519531 -41.347656 20.53125 -36.976562 20.53125 -30.8125 L 20.53125 -3.1875 C 20.53125 -2.164062 19.796875 -1.28125 18.328125 -0.53125 C 16.859375 0.207031 15.132812 0.578125 13.15625 0.578125 C 11.132812 0.578125 9.398438 0.207031 7.953125 -0.53125 C 6.503906 -1.28125 5.78125 -2.164062 5.78125 -3.1875 L 5.78125 -30.8125 C 5.78125 -35.96875 6.421875 -40.253906 7.703125 -43.671875 C 8.984375 -47.097656 10.660156 -49.847656 12.734375 -51.921875 C 14.804688 -53.992188 17.070312 -55.546875 19.53125 -56.578125 C 21.988281 -57.617188 24.445312 -58.304688 26.90625 -58.640625 C 29.363281 -58.984375 31.554688 -59.15625 33.484375 -59.15625 C 39.898438 -59.15625 45.144531 -58 49.21875 -55.6875 C 53.289062 -53.375 56.3125 -50.09375 58.28125 -45.84375 C 60.257812 -41.601562 61.25 -36.59375 61.25 -30.8125 Z M 61.25 -3.1875 "/></g></g><g transform="translate(481.422212, 304.963479)"><g><path d="M 55.109375 -34.78125 L 55.109375 -29.875 C 55.109375 -29 54.816406 -28.101562 54.234375 -27.1875 C 53.660156 -26.269531 52.84375 -25.507812 51.78125 -24.90625 C 50.71875 -24.3125 49.460938 -24.015625 48.015625 -24.015625 L 18 -24.015625 C 18.34375 -21.410156 18.910156 -19.117188 19.703125 -17.140625 C 20.503906 -15.160156 21.722656 -13.628906 23.359375 -12.546875 C 24.992188 -11.460938 27.234375 -10.921875 30.078125 -10.921875 C 32.015625 -10.921875 33.945312 -11.414062 35.875 -12.40625 C 37.800781 -13.394531 39.222656 -15 40.140625 -17.21875 C 40.523438 -18.132812 41.242188 -18.75 42.296875 -19.0625 C 43.359375 -19.375 44.476562 -19.492188 45.65625 -19.421875 C 46.84375 -19.347656 47.847656 -19.164062 48.671875 -18.875 C 50.410156 -18.394531 51.832031 -17.632812 52.9375 -16.59375 C 54.039062 -15.5625 54.425781 -14.609375 54.09375 -13.734375 C 52.644531 -10.554688 50.957031 -8.023438 49.03125 -6.140625 C 47.101562 -4.265625 45.050781 -2.84375 42.875 -1.875 C 40.707031 -0.914062 38.523438 -0.28125 36.328125 0.03125 C 34.140625 0.34375 32.054688 0.5 30.078125 0.5 C 25.015625 0.5 20.757812 -0.21875 17.3125 -1.65625 C 13.875 -3.101562 11.101562 -5.164062 9 -7.84375 C 6.90625 -10.519531 5.382812 -13.675781 4.4375 -17.3125 C 3.5 -20.957031 3.03125 -24.953125 3.03125 -29.296875 C 3.03125 -33.148438 3.460938 -36.847656 4.328125 -40.390625 C 5.203125 -43.929688 6.628906 -47.125 8.609375 -49.96875 C 10.585938 -52.8125 13.273438 -55.050781 16.671875 -56.6875 C 20.066406 -58.332031 24.296875 -59.15625 29.359375 -59.15625 C 32.585938 -59.15625 35.734375 -58.671875 38.796875 -57.703125 C 41.859375 -56.742188 44.617188 -55.273438 47.078125 -53.296875 C 49.535156 -51.316406 51.488281 -48.785156 52.9375 -45.703125 C 54.382812 -42.617188 55.109375 -38.976562 55.109375 -34.78125 Z M 29.359375 -47.796875 C 25.691406 -47.796875 23.023438 -46.613281 21.359375 -44.25 C 19.703125 -41.894531 18.582031 -38.71875 18 -34.71875 L 40.359375 -34.71875 L 40.359375 -34.78125 C 40.359375 -37.769531 39.910156 -40.144531 39.015625 -41.90625 C 38.117188 -43.664062 37.046875 -44.96875 35.796875 -45.8125 C 34.546875 -46.65625 33.316406 -47.195312 32.109375 -47.4375 C 30.898438 -47.675781 29.984375 -47.796875 29.359375 -47.796875 Z M 29.359375 -47.796875 "/></g></g><g transform="translate(539.564861, 304.963479)"><g><path d="M 48.671875 -18.875 C 50.503906 -18.394531 51.960938 -17.632812 53.046875 -16.59375 C 54.128906 -15.5625 54.503906 -14.585938 54.171875 -13.671875 C 52.378906 -8.847656 49.410156 -5.28125 45.265625 -2.96875 C 41.117188 -0.65625 36.054688 0.5 30.078125 0.5 C 25.066406 0.5 20.828125 -0.21875 17.359375 -1.65625 C 13.890625 -3.101562 11.101562 -5.164062 9 -7.84375 C 6.90625 -10.519531 5.382812 -13.675781 4.4375 -17.3125 C 3.5 -20.957031 3.03125 -24.953125 3.03125 -29.296875 C 3.03125 -33.335938 3.488281 -37.15625 4.40625 -40.75 C 5.320312 -44.34375 6.804688 -47.523438 8.859375 -50.296875 C 10.910156 -53.066406 13.679688 -55.234375 17.171875 -56.796875 C 20.671875 -58.367188 24.972656 -59.15625 30.078125 -59.15625 C 33.597656 -59.15625 36.9375 -58.632812 40.09375 -57.59375 C 43.257812 -56.5625 46.046875 -55.03125 48.453125 -53 C 50.859375 -50.976562 52.691406 -48.472656 53.953125 -45.484375 C 54.285156 -44.710938 53.992188 -43.769531 53.078125 -42.65625 C 52.160156 -41.550781 50.929688 -40.613281 49.390625 -39.84375 C 48.710938 -39.550781 47.734375 -39.320312 46.453125 -39.15625 C 45.179688 -38.988281 43.96875 -39.015625 42.8125 -39.234375 C 41.65625 -39.453125 40.859375 -39.96875 40.421875 -40.78125 C 39.222656 -43.101562 37.8125 -44.851562 36.1875 -46.03125 C 34.570312 -47.207031 32.535156 -47.796875 30.078125 -47.796875 C 26.660156 -47.796875 24.070312 -46.988281 22.3125 -45.375 C 20.550781 -43.757812 19.367188 -41.550781 18.765625 -38.75 C 18.160156 -35.957031 17.859375 -32.804688 17.859375 -29.296875 C 17.859375 -26.828125 17.988281 -24.492188 18.25 -22.296875 C 18.519531 -20.109375 19.078125 -18.160156 19.921875 -16.453125 C 20.765625 -14.742188 21.992188 -13.394531 23.609375 -12.40625 C 25.222656 -11.414062 27.378906 -10.921875 30.078125 -10.921875 C 32.054688 -10.921875 34.019531 -11.398438 35.96875 -12.359375 C 37.925781 -13.328125 39.335938 -14.921875 40.203125 -17.140625 C 40.585938 -18.054688 41.285156 -18.671875 42.296875 -18.984375 C 43.316406 -19.296875 44.414062 -19.414062 45.59375 -19.34375 C 46.78125 -19.269531 47.804688 -19.113281 48.671875 -18.875 Z M 48.671875 -18.875 "/></g></g><g transform="translate(596.116543, 304.963479)"><g><path d="M 48.234375 -15.46875 C 48.234375 -12.238281 47.4375 -9.421875 45.84375 -7.015625 C 44.257812 -4.609375 42.046875 -2.738281 39.203125 -1.40625 C 36.359375 -0.0820312 33.03125 0.578125 29.21875 0.578125 C 23.09375 0.578125 18.390625 -1.054688 15.109375 -4.328125 C 11.835938 -7.609375 10.203125 -12.238281 10.203125 -18.21875 L 10.203125 -46.578125 L 5.9375 -46.578125 C 4.4375 -46.578125 3.410156 -47.09375 2.859375 -48.125 C 2.304688 -49.164062 2.03125 -50.429688 2.03125 -51.921875 C 2.03125 -53.367188 2.304688 -54.597656 2.859375 -55.609375 C 3.410156 -56.617188 4.4375 -57.125 5.9375 -57.125 L 10.203125 -57.125 L 10.203125 -67.765625 C 10.203125 -68.722656 10.945312 -69.5625 12.4375 -70.28125 C 13.9375 -71.007812 15.648438 -71.375 17.578125 -71.375 C 19.546875 -71.375 21.265625 -71.007812 22.734375 -70.28125 C 24.210938 -69.5625 24.953125 -68.722656 24.953125 -67.765625 L 24.953125 -57.125 L 33.703125 -57.125 C 35.148438 -57.125 36.140625 -56.617188 36.671875 -55.609375 C 37.203125 -54.597656 37.46875 -53.367188 37.46875 -51.921875 C 37.46875 -50.429688 37.203125 -49.164062 36.671875 -48.125 C 36.140625 -47.09375 35.148438 -46.578125 33.703125 -46.578125 L 24.953125 -46.578125 L 24.953125 -18.21875 C 24.953125 -17.0625 25.035156 -15.914062 25.203125 -14.78125 C 25.367188 -13.65625 25.753906 -12.71875 26.359375 -11.96875 C 26.960938 -11.21875 27.914062 -10.84375 29.21875 -10.84375 C 30.664062 -10.84375 31.675781 -11.144531 32.25 -11.75 C 32.832031 -12.351562 33.179688 -13.015625 33.296875 -13.734375 C 33.421875 -14.460938 33.484375 -15.019531 33.484375 -15.40625 C 33.484375 -16.414062 34.15625 -17.28125 35.5 -18 C 36.851562 -18.726562 38.640625 -19.09375 40.859375 -19.09375 C 42.878906 -19.09375 44.613281 -18.742188 46.0625 -18.046875 C 47.507812 -17.347656 48.234375 -16.488281 48.234375 -15.46875 Z M 48.234375 -15.46875 "/></g></g></g></svg>