<svg xmlns="http://www.w3.org/2000/svg" xmlns:xlink="http://www.w3.org/1999/xlink" width="808" zoomAndPan="magnify" viewBox="0 0 606 837.749997" height="1117" preserveAspectRatio="xMidYMid meet" version="1.0"><defs><g/><clipPath id="5dff22eff2"><path d="M 27.695312 383 L 605 383 L 605 835 L 27.695312 835 Z M 27.695312 383 " clip-rule="nonzero"/></clipPath><clipPath id="e69283aae8"><path d="M 474.355469 447.277344 C 469.464844 447.277344 464.8125 447.523438 460.164062 448.011719 C 426.394531 451.925781 392.378906 443.117188 365.949219 421.828125 C 346.859375 406.65625 322.632812 397.355469 296.203125 397.355469 C 280.050781 397.355469 264.390625 400.78125 250.441406 407.144531 C 234.78125 414.242188 216.425781 412.527344 202.234375 402.984375 C 182.65625 389.769531 158.917969 382.671875 133.46875 384.140625 C 76.203125 387.566406 27.996094 434.308594 27.996094 491.570312 C 27.996094 558.132812 70.820312 586.765625 103.613281 599 C 123.433594 606.34375 135.425781 626.898438 132.488281 647.945312 C 130.53125 662.382812 129.0625 677.800781 129.796875 689.792969 C 134.203125 767.367188 197.339844 830.011719 275.160156 833.929688 C 342.699219 837.355469 400.941406 796.976562 424.925781 738.980469 C 433.246094 718.914062 453.066406 706.1875 474.847656 706.433594 C 475.089844 706.433594 475.089844 706.433594 475.335938 706.433594 C 547.039062 706.433594 605.035156 648.433594 604.789062 576.730469 C 604.300781 505.519531 545.570312 446.789062 474.355469 447.277344 Z M 474.355469 447.277344 " clip-rule="nonzero"/></clipPath><clipPath id="dcf36bf30a"><path d="M 395 340.582031 L 477 340.582031 L 477 422 L 395 422 Z M 395 340.582031 " clip-rule="nonzero"/></clipPath><clipPath id="4dc5315347"><path d="M 476.316406 380.960938 C 476.316406 382.28125 476.25 383.601562 476.121094 384.917969 C 475.992188 386.234375 475.796875 387.539062 475.539062 388.835938 C 475.28125 390.132812 474.960938 391.414062 474.578125 392.679688 C 474.191406 393.945312 473.746094 395.191406 473.242188 396.410156 C 472.734375 397.632812 472.171875 398.828125 471.546875 399.992188 C 470.921875 401.160156 470.246094 402.292969 469.511719 403.390625 C 468.773438 404.492188 467.988281 405.554688 467.148438 406.574219 C 466.3125 407.597656 465.421875 408.574219 464.488281 409.511719 C 463.554688 410.445312 462.574219 411.332031 461.550781 412.171875 C 460.53125 413.011719 459.46875 413.796875 458.371094 414.53125 C 457.269531 415.265625 456.136719 415.945312 454.972656 416.570312 C 453.804688 417.191406 452.609375 417.757812 451.390625 418.265625 C 450.167969 418.769531 448.921875 419.214844 447.65625 419.597656 C 446.390625 419.984375 445.109375 420.304688 443.8125 420.5625 C 442.515625 420.820312 441.210938 421.011719 439.894531 421.144531 C 438.578125 421.273438 437.257812 421.335938 435.9375 421.335938 C 434.613281 421.335938 433.296875 421.273438 431.980469 421.144531 C 430.664062 421.011719 429.355469 420.820312 428.058594 420.5625 C 426.761719 420.304688 425.480469 419.984375 424.214844 419.597656 C 422.949219 419.214844 421.707031 418.769531 420.484375 418.265625 C 419.261719 417.757812 418.070312 417.191406 416.902344 416.570312 C 415.738281 415.945312 414.601562 415.265625 413.503906 414.53125 C 412.40625 413.796875 411.34375 413.011719 410.320312 412.171875 C 409.300781 411.332031 408.320312 410.445312 407.386719 409.511719 C 406.449219 408.574219 405.5625 407.597656 404.722656 406.574219 C 403.886719 405.554688 403.097656 404.492188 402.363281 403.390625 C 401.628906 402.292969 400.949219 401.160156 400.328125 399.992188 C 399.703125 398.828125 399.136719 397.632812 398.632812 396.410156 C 398.125 395.191406 397.679688 393.945312 397.296875 392.679688 C 396.914062 391.414062 396.59375 390.132812 396.335938 388.835938 C 396.078125 387.539062 395.882812 386.234375 395.753906 384.917969 C 395.625 383.601562 395.558594 382.28125 395.558594 380.960938 C 395.558594 379.636719 395.625 378.316406 395.753906 377 C 395.882812 375.6875 396.078125 374.378906 396.335938 373.082031 C 396.59375 371.785156 396.914062 370.503906 397.296875 369.238281 C 397.679688 367.972656 398.125 366.730469 398.632812 365.507812 C 399.136719 364.285156 399.703125 363.089844 400.328125 361.925781 C 400.949219 360.757812 401.628906 359.625 402.363281 358.527344 C 403.097656 357.425781 403.886719 356.367188 404.722656 355.34375 C 405.5625 354.320312 406.449219 353.34375 407.386719 352.40625 C 408.320312 351.472656 409.300781 350.585938 410.320312 349.746094 C 411.34375 348.90625 412.40625 348.121094 413.503906 347.386719 C 414.601562 346.652344 415.738281 345.972656 416.902344 345.347656 C 418.070312 344.726562 419.261719 344.160156 420.484375 343.65625 C 421.707031 343.148438 422.949219 342.703125 424.214844 342.320312 C 425.480469 341.9375 426.761719 341.613281 428.058594 341.355469 C 429.355469 341.097656 430.664062 340.90625 431.980469 340.777344 C 433.296875 340.644531 434.613281 340.582031 435.9375 340.582031 C 437.257812 340.582031 438.578125 340.644531 439.894531 340.777344 C 441.210938 340.90625 442.515625 341.097656 443.8125 341.355469 C 445.109375 341.613281 446.390625 341.9375 447.65625 342.320312 C 448.921875 342.703125 450.167969 343.148438 451.390625 343.65625 C 452.609375 344.160156 453.804688 344.726562 454.972656 345.347656 C 456.136719 345.972656 457.269531 346.652344 458.371094 347.386719 C 459.46875 348.121094 460.53125 348.90625 461.550781 349.746094 C 462.574219 350.585938 463.554688 351.472656 464.488281 352.40625 C 465.421875 353.34375 466.3125 354.320312 467.148438 355.34375 C 467.988281 356.367188 468.773438 357.425781 469.511719 358.527344 C 470.246094 359.625 470.921875 360.757812 471.546875 361.925781 C 472.171875 363.089844 472.734375 364.285156 473.242188 365.507812 C 473.746094 366.730469 474.191406 367.972656 474.578125 369.238281 C 474.960938 370.503906 475.28125 371.785156 475.539062 373.082031 C 475.796875 374.378906 475.992188 375.6875 476.121094 377 C 476.25 378.316406 476.316406 379.636719 476.316406 380.960938 Z M 476.316406 380.960938 " clip-rule="nonzero"/></clipPath><clipPath id="60f6af62d7"><path d="M 462 749 L 507 749 L 507 793 L 462 793 Z M 462 749 " clip-rule="nonzero"/></clipPath><clipPath id="5562f1bf38"><path d="M 506.171875 770.792969 C 506.171875 771.503906 506.136719 772.21875 506.066406 772.925781 C 505.996094 773.636719 505.890625 774.339844 505.75 775.042969 C 505.613281 775.742188 505.441406 776.433594 505.234375 777.113281 C 505.027344 777.796875 504.785156 778.46875 504.511719 779.125 C 504.238281 779.785156 503.933594 780.429688 503.597656 781.058594 C 503.261719 781.6875 502.894531 782.300781 502.5 782.890625 C 502.101562 783.484375 501.679688 784.058594 501.226562 784.609375 C 500.773438 785.160156 500.296875 785.6875 499.792969 786.191406 C 499.285156 786.695312 498.757812 787.175781 498.207031 787.628906 C 497.65625 788.082031 497.082031 788.503906 496.492188 788.902344 C 495.898438 789.296875 495.285156 789.664062 494.65625 790 C 494.027344 790.335938 493.382812 790.640625 492.726562 790.914062 C 492.066406 791.1875 491.394531 791.425781 490.714844 791.632812 C 490.03125 791.839844 489.339844 792.015625 488.640625 792.152344 C 487.941406 792.292969 487.234375 792.398438 486.527344 792.46875 C 485.816406 792.535156 485.105469 792.570312 484.390625 792.570312 C 483.675781 792.570312 482.964844 792.535156 482.253906 792.46875 C 481.546875 792.398438 480.839844 792.292969 480.140625 792.152344 C 479.441406 792.015625 478.75 791.839844 478.066406 791.632812 C 477.386719 791.425781 476.714844 791.1875 476.054688 790.914062 C 475.398438 790.640625 474.753906 790.335938 474.125 790 C 473.496094 789.664062 472.882812 789.296875 472.289062 788.902344 C 471.699219 788.503906 471.125 788.082031 470.574219 787.628906 C 470.023438 787.175781 469.496094 786.695312 468.988281 786.191406 C 468.484375 785.6875 468.007812 785.160156 467.554688 784.609375 C 467.101562 784.058594 466.675781 783.484375 466.28125 782.890625 C 465.886719 782.300781 465.519531 781.6875 465.183594 781.058594 C 464.847656 780.429688 464.542969 779.785156 464.269531 779.125 C 463.996094 778.46875 463.753906 777.796875 463.546875 777.113281 C 463.339844 776.433594 463.167969 775.742188 463.03125 775.042969 C 462.890625 774.339844 462.785156 773.636719 462.714844 772.925781 C 462.644531 772.21875 462.609375 771.503906 462.609375 770.792969 C 462.609375 770.078125 462.644531 769.367188 462.714844 768.65625 C 462.785156 767.949219 462.890625 767.242188 463.03125 766.542969 C 463.167969 765.84375 463.339844 765.152344 463.546875 764.46875 C 463.753906 763.789062 463.996094 763.117188 464.269531 762.457031 C 464.542969 761.796875 464.847656 761.15625 465.183594 760.523438 C 465.519531 759.894531 465.886719 759.285156 466.28125 758.691406 C 466.675781 758.097656 467.101562 757.527344 467.554688 756.976562 C 468.007812 756.425781 468.484375 755.894531 468.988281 755.390625 C 469.496094 754.886719 470.023438 754.410156 470.574219 753.957031 C 471.125 753.503906 471.699219 753.078125 472.289062 752.683594 C 472.882812 752.285156 473.496094 751.921875 474.125 751.585938 C 474.753906 751.246094 475.398438 750.941406 476.054688 750.671875 C 476.714844 750.398438 477.386719 750.15625 478.066406 749.949219 C 478.75 749.742188 479.441406 749.570312 480.140625 749.429688 C 480.839844 749.292969 481.546875 749.1875 482.253906 749.117188 C 482.964844 749.046875 483.675781 749.011719 484.390625 749.011719 C 485.105469 749.011719 485.816406 749.046875 486.527344 749.117188 C 487.234375 749.1875 487.941406 749.292969 488.640625 749.429688 C 489.339844 749.570312 490.03125 749.742188 490.714844 749.949219 C 491.394531 750.15625 492.066406 750.398438 492.726562 750.671875 C 493.382812 750.941406 494.027344 751.246094 494.65625 751.585938 C 495.285156 751.921875 495.898438 752.285156 496.492188 752.683594 C 497.082031 753.078125 497.65625 753.503906 498.207031 753.957031 C 498.757812 754.410156 499.285156 754.886719 499.792969 755.390625 C 500.296875 755.894531 500.773438 756.425781 501.226562 756.976562 C 501.679688 757.527344 502.101562 758.097656 502.5 758.691406 C 502.894531 759.285156 503.261719 759.894531 503.597656 760.523438 C 503.933594 761.15625 504.238281 761.796875 504.511719 762.457031 C 504.785156 763.117188 505.027344 763.789062 505.234375 764.46875 C 505.441406 765.152344 505.613281 765.84375 505.75 766.542969 C 505.890625 767.242188 505.996094 767.949219 506.066406 768.65625 C 506.136719 769.367188 506.171875 770.078125 506.171875 770.792969 Z M 506.171875 770.792969 " clip-rule="nonzero"/></clipPath><clipPath id="33eda75060"><path d="M 52 616 L 107 616 L 107 671 L 52 671 Z M 52 616 " clip-rule="nonzero"/></clipPath><clipPath id="09c8a3dcd9"><path d="M 106.550781 643.785156 C 106.550781 644.667969 106.503906 645.546875 106.417969 646.421875 C 106.332031 647.300781 106.203125 648.171875 106.03125 649.035156 C 105.859375 649.902344 105.644531 650.753906 105.390625 651.597656 C 105.132812 652.441406 104.835938 653.269531 104.5 654.085938 C 104.164062 654.898438 103.785156 655.695312 103.371094 656.472656 C 102.953125 657.25 102.503906 658.007812 102.011719 658.738281 C 101.523438 659.472656 101 660.179688 100.4375 660.863281 C 99.878906 661.542969 99.289062 662.195312 98.664062 662.820312 C 98.042969 663.441406 97.390625 664.035156 96.707031 664.59375 C 96.027344 665.152344 95.320312 665.675781 94.585938 666.167969 C 93.851562 666.65625 93.097656 667.109375 92.320312 667.523438 C 91.542969 667.941406 90.746094 668.316406 89.929688 668.652344 C 89.117188 668.992188 88.289062 669.289062 87.445312 669.542969 C 86.601562 669.800781 85.746094 670.015625 84.882812 670.1875 C 84.015625 670.359375 83.144531 670.488281 82.269531 670.574219 C 81.390625 670.660156 80.511719 670.703125 79.628906 670.703125 C 78.75 670.703125 77.871094 670.660156 76.992188 670.574219 C 76.113281 670.488281 75.242188 670.359375 74.378906 670.1875 C 73.515625 670.015625 72.660156 669.800781 71.816406 669.542969 C 70.972656 669.289062 70.144531 668.992188 69.328125 668.652344 C 68.515625 668.316406 67.71875 667.941406 66.941406 667.523438 C 66.164062 667.109375 65.40625 666.65625 64.675781 666.167969 C 63.941406 665.675781 63.234375 665.152344 62.554688 664.59375 C 61.871094 664.035156 61.21875 663.441406 60.597656 662.820312 C 59.972656 662.195312 59.382812 661.542969 58.820312 660.863281 C 58.261719 660.179688 57.738281 659.472656 57.25 658.738281 C 56.757812 658.007812 56.304688 657.25 55.890625 656.472656 C 55.472656 655.695312 55.097656 654.898438 54.761719 654.085938 C 54.421875 653.269531 54.125 652.441406 53.871094 651.597656 C 53.613281 650.753906 53.402344 649.902344 53.230469 649.035156 C 53.058594 648.171875 52.925781 647.300781 52.839844 646.421875 C 52.753906 645.546875 52.710938 644.667969 52.710938 643.785156 C 52.710938 642.902344 52.753906 642.023438 52.839844 641.144531 C 52.925781 640.269531 53.058594 639.398438 53.230469 638.53125 C 53.402344 637.667969 53.613281 636.8125 53.871094 635.96875 C 54.125 635.125 54.421875 634.296875 54.761719 633.484375 C 55.097656 632.667969 55.472656 631.871094 55.890625 631.09375 C 56.304688 630.316406 56.757812 629.5625 57.25 628.828125 C 57.738281 628.097656 58.261719 627.390625 58.820312 626.707031 C 59.382812 626.027344 59.972656 625.375 60.597656 624.75 C 61.21875 624.125 61.871094 623.535156 62.554688 622.976562 C 63.234375 622.417969 63.941406 621.890625 64.675781 621.402344 C 65.40625 620.914062 66.164062 620.460938 66.941406 620.042969 C 67.71875 619.628906 68.515625 619.253906 69.328125 618.914062 C 70.144531 618.578125 70.972656 618.28125 71.816406 618.023438 C 72.660156 617.769531 73.515625 617.554688 74.378906 617.382812 C 75.242188 617.210938 76.113281 617.082031 76.992188 616.996094 C 77.871094 616.910156 78.75 616.867188 79.628906 616.867188 C 80.511719 616.867188 81.390625 616.910156 82.269531 616.996094 C 83.144531 617.082031 84.015625 617.210938 84.882812 617.382812 C 85.746094 617.554688 86.601562 617.769531 87.445312 618.023438 C 88.289062 618.28125 89.117188 618.578125 89.929688 618.914062 C 90.746094 619.253906 91.542969 619.628906 92.320312 620.042969 C 93.097656 620.460938 93.851562 620.914062 94.585938 621.402344 C 95.320312 621.890625 96.027344 622.417969 96.707031 622.976562 C 97.390625 623.535156 98.042969 624.125 98.664062 624.75 C 99.289062 625.375 99.878906 626.027344 100.4375 626.707031 C 100.996094 627.390625 101.523438 628.097656 102.011719 628.828125 C 102.503906 629.5625 102.953125 630.316406 103.371094 631.09375 C 103.785156 631.871094 104.164062 632.667969 104.5 633.484375 C 104.835938 634.296875 105.132812 635.125 105.390625 635.96875 C 105.644531 636.8125 105.859375 637.667969 106.03125 638.53125 C 106.203125 639.398438 106.332031 640.269531 106.417969 641.144531 C 106.503906 642.023438 106.550781 642.902344 106.550781 643.785156 Z M 106.550781 643.785156 " clip-rule="nonzero"/></clipPath><clipPath id="4723c3f4b1"><path d="M 112.359375 736 L 213 736 L 213 757 L 112.359375 757 Z M 112.359375 736 " clip-rule="nonzero"/></clipPath><clipPath id="17bfa63f0b"><path d="M 339 689 L 419.769531 689 L 419.769531 757 L 339 757 Z M 339 689 " clip-rule="nonzero"/></clipPath><clipPath id="8c4b5494b8"><path d="M 339 680 L 419.769531 680 L 419.769531 700 L 339 700 Z M 339 680 " clip-rule="nonzero"/></clipPath><clipPath id="42baadd77a"><path d="M 238 155 L 275 155 L 275 173 L 238 173 Z M 238 155 " clip-rule="nonzero"/></clipPath><clipPath id="b59ea66543"><path d="M 292.457031 97.289062 L 392.339844 303.003906 L 200.785156 396.007812 L 100.902344 190.292969 Z M 292.457031 97.289062 " clip-rule="nonzero"/></clipPath><clipPath id="94b413d8e8"><path d="M 292.457031 97.289062 L 392.339844 303.003906 L 200.785156 396.007812 L 100.902344 190.292969 Z M 292.457031 97.289062 " clip-rule="nonzero"/></clipPath><clipPath id="1498db1de0"><path d="M 247 145 L 266 145 L 266 182 L 247 182 Z M 247 145 " clip-rule="nonzero"/></clipPath><clipPath id="8f931e40b5"><path d="M 292.457031 97.289062 L 392.339844 303.003906 L 200.785156 396.007812 L 100.902344 190.292969 Z M 292.457031 97.289062 " clip-rule="nonzero"/></clipPath><clipPath id="511b62bec0"><path d="M 292.457031 97.289062 L 392.339844 303.003906 L 200.785156 396.007812 L 100.902344 190.292969 Z M 292.457031 97.289062 " clip-rule="nonzero"/></clipPath><clipPath id="4b190c7141"><path d="M 177 156 L 200 156 L 200 168 L 177 168 Z M 177 156 " clip-rule="nonzero"/></clipPath><clipPath id="4d81d5a37e"><path d="M 292.457031 97.289062 L 392.339844 303.003906 L 200.785156 396.007812 L 100.902344 190.292969 Z M 292.457031 97.289062 " clip-rule="nonzero"/></clipPath><clipPath id="88e998c2b0"><path d="M 292.457031 97.289062 L 392.339844 303.003906 L 200.785156 396.007812 L 100.902344 190.292969 Z M 292.457031 97.289062 " clip-rule="nonzero"/></clipPath><clipPath id="0a9f5c7602"><path d="M 182 150 L 195 150 L 195 174 L 182 174 Z M 182 150 " clip-rule="nonzero"/></clipPath><clipPath id="0562751996"><path d="M 292.457031 97.289062 L 392.339844 303.003906 L 200.785156 396.007812 L 100.902344 190.292969 Z M 292.457031 97.289062 " clip-rule="nonzero"/></clipPath><clipPath id="a0fe4320c2"><path d="M 292.457031 97.289062 L 392.339844 303.003906 L 200.785156 396.007812 L 100.902344 190.292969 Z M 292.457031 97.289062 " clip-rule="nonzero"/></clipPath><clipPath id="62817cd513"><path d="M 248 229 L 272 229 L 272 241 L 248 241 Z M 248 229 " clip-rule="nonzero"/></clipPath><clipPath id="851fa2ea6b"><path d="M 292.457031 97.289062 L 392.339844 303.003906 L 200.785156 396.007812 L 100.902344 190.292969 Z M 292.457031 97.289062 " clip-rule="nonzero"/></clipPath><clipPath id="6287a1e9c8"><path d="M 292.457031 97.289062 L 392.339844 303.003906 L 200.785156 396.007812 L 100.902344 190.292969 Z M 292.457031 97.289062 " clip-rule="nonzero"/></clipPath><clipPath id="d5a376180c"><path d="M 254 223 L 266 223 L 266 247 L 254 247 Z M 254 223 " clip-rule="nonzero"/></clipPath><clipPath id="f62681e0bb"><path d="M 292.457031 97.289062 L 392.339844 303.003906 L 200.785156 396.007812 L 100.902344 190.292969 Z M 292.457031 97.289062 " clip-rule="nonzero"/></clipPath><clipPath id="6a6c9f2388"><path d="M 292.457031 97.289062 L 392.339844 303.003906 L 200.785156 396.007812 L 100.902344 190.292969 Z M 292.457031 97.289062 " clip-rule="nonzero"/></clipPath><clipPath id="c0fbb9bd20"><path d="M 258 349 L 273 349 L 273 363 L 258 363 Z M 258 349 " clip-rule="nonzero"/></clipPath><clipPath id="a1d438d3db"><path d="M 292.457031 97.289062 L 392.339844 303.003906 L 200.785156 396.007812 L 100.902344 190.292969 Z M 292.457031 97.289062 " clip-rule="nonzero"/></clipPath><clipPath id="cf9165d4d4"><path d="M 292.457031 97.289062 L 392.339844 303.003906 L 200.785156 396.007812 L 100.902344 190.292969 Z M 292.457031 97.289062 " clip-rule="nonzero"/></clipPath><clipPath id="832852f990"><path d="M 262 330 L 273 330 L 273 341 L 262 341 Z M 262 330 " clip-rule="nonzero"/></clipPath><clipPath id="e7e48b193b"><path d="M 292.457031 97.289062 L 392.339844 303.003906 L 200.785156 396.007812 L 100.902344 190.292969 Z M 292.457031 97.289062 " clip-rule="nonzero"/></clipPath><clipPath id="6df4af5378"><path d="M 292.457031 97.289062 L 392.339844 303.003906 L 200.785156 396.007812 L 100.902344 190.292969 Z M 292.457031 97.289062 " clip-rule="nonzero"/></clipPath><clipPath id="bea9b05bbb"><path d="M 284 314 L 295 314 L 295 325 L 284 325 Z M 284 314 " clip-rule="nonzero"/></clipPath><clipPath id="3deab593f9"><path d="M 292.457031 97.289062 L 392.339844 303.003906 L 200.785156 396.007812 L 100.902344 190.292969 Z M 292.457031 97.289062 " clip-rule="nonzero"/></clipPath><clipPath id="5ef2f381eb"><path d="M 292.457031 97.289062 L 392.339844 303.003906 L 200.785156 396.007812 L 100.902344 190.292969 Z M 292.457031 97.289062 " clip-rule="nonzero"/></clipPath><clipPath id="6120efab74"><path d="M 237 345 L 245 345 L 245 354 L 237 354 Z M 237 345 " clip-rule="nonzero"/></clipPath><clipPath id="b119cfecdd"><path d="M 292.457031 97.289062 L 392.339844 303.003906 L 200.785156 396.007812 L 100.902344 190.292969 Z M 292.457031 97.289062 " clip-rule="nonzero"/></clipPath><clipPath id="51c7261d8b"><path d="M 292.457031 97.289062 L 392.339844 303.003906 L 200.785156 396.007812 L 100.902344 190.292969 Z M 292.457031 97.289062 " clip-rule="nonzero"/></clipPath><clipPath id="845252129e"><path d="M 210 336 L 217 336 L 217 343 L 210 343 Z M 210 336 " clip-rule="nonzero"/></clipPath><clipPath id="e02a537b77"><path d="M 292.457031 97.289062 L 392.339844 303.003906 L 200.785156 396.007812 L 100.902344 190.292969 Z M 292.457031 97.289062 " clip-rule="nonzero"/></clipPath><clipPath id="793d03f2fe"><path d="M 292.457031 97.289062 L 392.339844 303.003906 L 200.785156 396.007812 L 100.902344 190.292969 Z M 292.457031 97.289062 " clip-rule="nonzero"/></clipPath><clipPath id="087ec0f3d8"><path d="M 265 296 L 272 296 L 272 303 L 265 303 Z M 265 296 " clip-rule="nonzero"/></clipPath><clipPath id="71cca963d0"><path d="M 292.457031 97.289062 L 392.339844 303.003906 L 200.785156 396.007812 L 100.902344 190.292969 Z M 292.457031 97.289062 " clip-rule="nonzero"/></clipPath><clipPath id="bf42b564df"><path d="M 292.457031 97.289062 L 392.339844 303.003906 L 200.785156 396.007812 L 100.902344 190.292969 Z M 292.457031 97.289062 " clip-rule="nonzero"/></clipPath><clipPath id="0eb26fca7a"><path d="M 178 279 L 298 279 L 298 332 L 178 332 Z M 178 279 " clip-rule="nonzero"/></clipPath><clipPath id="6c82460ac5"><path d="M 292.457031 97.289062 L 392.339844 303.003906 L 200.785156 396.007812 L 100.902344 190.292969 Z M 292.457031 97.289062 " clip-rule="nonzero"/></clipPath><clipPath id="b87aee2e6e"><path d="M 292.457031 97.289062 L 392.339844 303.003906 L 200.785156 396.007812 L 100.902344 190.292969 Z M 292.457031 97.289062 " clip-rule="nonzero"/></clipPath><clipPath id="705298adc2"><path d="M 183 211 L 224 211 L 224 293 L 183 293 Z M 183 211 " clip-rule="nonzero"/></clipPath><clipPath id="0ce3700cf7"><path d="M 292.457031 97.289062 L 392.339844 303.003906 L 200.785156 396.007812 L 100.902344 190.292969 Z M 292.457031 97.289062 " clip-rule="nonzero"/></clipPath><clipPath id="f9e7345180"><path d="M 292.457031 97.289062 L 392.339844 303.003906 L 200.785156 396.007812 L 100.902344 190.292969 Z M 292.457031 97.289062 " clip-rule="nonzero"/></clipPath><clipPath id="b70c08fa2a"><path d="M 150 177 L 263 177 L 263 323 L 150 323 Z M 150 177 " clip-rule="nonzero"/></clipPath><clipPath id="defbfc97c1"><path d="M 292.457031 97.289062 L 392.339844 303.003906 L 200.785156 396.007812 L 100.902344 190.292969 Z M 292.457031 97.289062 " clip-rule="nonzero"/></clipPath><clipPath id="17b4a4d2f9"><path d="M 292.457031 97.289062 L 392.339844 303.003906 L 200.785156 396.007812 L 100.902344 190.292969 Z M 292.457031 97.289062 " clip-rule="nonzero"/></clipPath><clipPath id="0207c81274"><path d="M 205 173 L 227 173 L 227 230 L 205 230 Z M 205 173 " clip-rule="nonzero"/></clipPath><clipPath id="3494300ed9"><path d="M 292.457031 97.289062 L 392.339844 303.003906 L 200.785156 396.007812 L 100.902344 190.292969 Z M 292.457031 97.289062 " clip-rule="nonzero"/></clipPath><clipPath id="36af166819"><path d="M 292.457031 97.289062 L 392.339844 303.003906 L 200.785156 396.007812 L 100.902344 190.292969 Z M 292.457031 97.289062 " clip-rule="nonzero"/></clipPath><clipPath id="fdd85f29e8"><path d="M 206 169 L 230 169 L 230 239 L 206 239 Z M 206 169 " clip-rule="nonzero"/></clipPath><clipPath id="e4c8d5b39a"><path d="M 292.457031 97.289062 L 392.339844 303.003906 L 200.785156 396.007812 L 100.902344 190.292969 Z M 292.457031 97.289062 " clip-rule="nonzero"/></clipPath><clipPath id="89b00d4219"><path d="M 292.457031 97.289062 L 392.339844 303.003906 L 200.785156 396.007812 L 100.902344 190.292969 Z M 292.457031 97.289062 " clip-rule="nonzero"/></clipPath><clipPath id="69b599ce01"><path d="M 220 168 L 238 168 L 238 236 L 220 236 Z M 220 168 " clip-rule="nonzero"/></clipPath><clipPath id="c5ec031aa4"><path d="M 292.457031 97.289062 L 392.339844 303.003906 L 200.785156 396.007812 L 100.902344 190.292969 Z M 292.457031 97.289062 " clip-rule="nonzero"/></clipPath><clipPath id="46874ec33b"><path d="M 292.457031 97.289062 L 392.339844 303.003906 L 200.785156 396.007812 L 100.902344 190.292969 Z M 292.457031 97.289062 " clip-rule="nonzero"/></clipPath><clipPath id="90b634296f"><path d="M 229 179 L 334 179 L 334 207 L 229 207 Z M 229 179 " clip-rule="nonzero"/></clipPath><clipPath id="729018f9a5"><path d="M 292.457031 97.289062 L 392.339844 303.003906 L 200.785156 396.007812 L 100.902344 190.292969 Z M 292.457031 97.289062 " clip-rule="nonzero"/></clipPath><clipPath id="0693abe4ce"><path d="M 292.457031 97.289062 L 392.339844 303.003906 L 200.785156 396.007812 L 100.902344 190.292969 Z M 292.457031 97.289062 " clip-rule="nonzero"/></clipPath></defs><g clip-path="url(#5dff22eff2)"><g clip-path="url(#e69283aae8)"><path fill="#e0f2f1" d="M 27.996094 382.671875 L 27.996094 837.355469 L 605.019531 837.355469 L 605.019531 382.671875 Z M 27.996094 382.671875 " fill-opacity="1" fill-rule="nonzero"/></g></g><g clip-path="url(#dcf36bf30a)"><g clip-path="url(#4dc5315347)"><path fill="#e0f2f1" d="M 395.558594 340.582031 L 395.558594 421.335938 L 476.316406 421.335938 L 476.316406 340.582031 Z M 395.558594 340.582031 " fill-opacity="1" fill-rule="nonzero"/></g></g><g clip-path="url(#60f6af62d7)"><g clip-path="url(#5562f1bf38)"><path fill="#e0f2f1" d="M 462.609375 749.011719 L 462.609375 792.570312 L 506.171875 792.570312 L 506.171875 749.011719 Z M 462.609375 749.011719 " fill-opacity="1" fill-rule="nonzero"/></g></g><g clip-path="url(#33eda75060)"><g clip-path="url(#09c8a3dcd9)"><path fill="#e0f2f1" d="M 52.710938 616.867188 L 52.710938 670.703125 L 106.550781 670.703125 L 106.550781 616.867188 Z M 52.710938 616.867188 " fill-opacity="1" fill-rule="nonzero"/></g></g><path fill="#286359" d="M 292.609375 459.75 C 292.609375 459.75 293.640625 452.527344 300.597656 452.226562 C 307.554688 451.925781 320.167969 471.277344 332.28125 465.421875 C 344.394531 459.566406 357.4375 466.523438 357.4375 466.523438 C 357.4375 466.523438 357.105469 500.523438 340.640625 509.382812 C 340.640625 509.382812 340.523438 492.683594 327.160156 493.902344 C 313.777344 495.117188 307.738281 484.175781 306.121094 472.898438 C 304.503906 461.617188 301.632812 459.265625 295.542969 464.703125 Z M 292.609375 459.75 " fill-opacity="1" fill-rule="nonzero"/><path fill="#ffffff" d="M 282.277344 478.164062 L 293.023438 474.6875 L 299.523438 494.785156 L 288.777344 498.257812 Z M 282.277344 478.164062 " fill-opacity="1" fill-rule="nonzero"/><path fill="#286359" d="M 288.769531 498.921875 C 288.488281 498.921875 288.21875 498.738281 288.136719 498.457031 L 281.644531 478.367188 C 281.53125 478.019531 281.730469 477.632812 282.082031 477.535156 L 292.824219 474.0625 C 293.175781 473.949219 293.558594 474.148438 293.660156 474.5 L 300.148438 494.585938 C 300.265625 494.933594 300.066406 495.320312 299.714844 495.417969 C 288.769531 498.957031 288.9375 498.921875 288.769531 498.921875 Z M 283.113281 478.601562 L 289.203125 497.421875 L 298.679688 494.351562 L 292.589844 475.53125 Z M 283.113281 478.601562 " fill-opacity="1" fill-rule="nonzero"/><path fill="#286359" d="M 255.085938 716.773438 L 246.828125 757 L 165.980469 757 C 165.980469 757 165.78125 738.847656 185.367188 736.894531 C 204.96875 734.925781 224.140625 716.792969 224.140625 716.792969 Z M 255.085938 716.773438 " fill-opacity="1" fill-rule="nonzero"/><path fill="#286359" d="M 337.035156 716.773438 L 340.207031 757 L 281.695312 757 C 281.695312 757 284.03125 746.335938 293.660156 740.632812 C 303.285156 734.925781 307.6875 716.773438 307.6875 716.773438 Z M 337.035156 716.773438 " fill-opacity="1" fill-rule="nonzero"/><path fill="#ffffff" d="M 347.09375 489.328125 C 340.9375 486.410156 337.550781 484.824219 333.765625 483.757812 C 322.703125 480.65625 311.710938 484.390625 290.171875 491.980469 C 261.042969 502.257812 258.875 506.8125 251.550781 521.027344 C 246.160156 531.503906 243.042969 540.730469 241.207031 547.15625 L 268.851562 559.082031 L 279.445312 539.679688 C 286.085938 548.503906 291.605469 554.144531 291.605469 554.144531 L 340.023438 554.144531 C 338.886719 541.648438 337.734375 529.152344 336.585938 516.640625 C 339.539062 518.191406 342.472656 519.742188 345.410156 521.296875 C 353.101562 514.6875 360.792969 508.082031 368.484375 501.476562 C 363.578125 498.171875 356.339844 493.699219 347.09375 489.328125 Z M 347.09375 489.328125 " fill-opacity="1" fill-rule="nonzero"/><path fill="#286359" d="M 268.851562 559.75 C 268.632812 559.75 268.816406 559.800781 240.9375 547.753906 C 240.636719 547.621094 240.472656 547.289062 240.554688 546.953125 C 243.125 537.945312 246.609375 529.101562 250.949219 520.710938 C 258.304688 506.429688 260.609375 501.691406 289.9375 491.347656 C 310.910156 483.957031 322.453125 479.886719 333.933594 483.105469 C 337.769531 484.191406 341.171875 485.792969 347.363281 488.710938 C 353.085938 491.582031 359.339844 494.519531 368.867188 500.890625 C 369.234375 501.140625 369.269531 501.660156 368.933594 501.960938 L 345.859375 521.777344 C 345.660156 521.960938 345.359375 521.996094 345.109375 521.863281 L 337.367188 517.792969 L 340.6875 554.0625 C 340.722656 554.445312 340.421875 554.796875 340.023438 554.796875 L 291.605469 554.796875 C 291.421875 554.796875 291.257812 554.730469 291.121094 554.59375 C 290.90625 554.363281 285.765625 549.074219 279.542969 540.882812 L 269.433594 559.382812 C 269.316406 559.617188 269.101562 559.75 268.851562 559.75 Z M 242.023438 546.769531 L 268.566406 558.230469 L 278.878906 539.347656 C 279.109375 538.914062 279.710938 538.878906 279.996094 539.261719 C 285.851562 547.054688 290.855469 552.375 291.90625 553.460938 L 339.289062 553.460938 L 335.917969 516.691406 C 335.867188 516.15625 336.433594 515.789062 336.886719 516.039062 L 345.328125 520.476562 L 367.382812 501.523438 C 360.84375 497.1875 353.917969 493.300781 346.796875 489.929688 C 341.855469 487.59375 337.621094 485.542969 333.582031 484.40625 C 322.953125 481.421875 312.660156 484.773438 290.386719 492.617188 C 267.847656 500.558594 262.761719 505.128906 259.492188 509.117188 C 256.65625 512.570312 254.953125 515.871094 252.148438 521.328125 C 247.945312 529.46875 244.542969 538.027344 242.023438 546.769531 Z M 242.023438 546.769531 " fill-opacity="1" fill-rule="nonzero"/><path fill="#60afbd" d="M 340.871094 545.851562 C 343.890625 548.789062 348.347656 553.726562 351.933594 560.785156 C 359.222656 575.117188 358.324219 589.078125 357.671875 597.039062 C 355.90625 618.828125 350.582031 664.023438 340.855469 723.0625 L 297.277344 723.0625 C 305.121094 678.351562 312.960938 633.640625 320.820312 588.929688 C 299.816406 633.640625 278.792969 678.351562 257.789062 723.0625 L 210.523438 723.0625 L 286.199219 571.246094 L 287.800781 556.195312 Z M 340.871094 545.851562 " fill-opacity="1" fill-rule="nonzero"/><path fill="#60afbd" d="M 292.425781 566.15625 L 279.460938 539.664062 C 279.460938 539.664062 264.195312 512.402344 270.71875 499.207031 L 276.359375 496.554688 C 275.941406 501.523438 276.257812 506.511719 277.277344 511.402344 C 278.511719 517.324219 284.734375 520.746094 290.4375 518.726562 C 295.777344 516.824219 301.117188 514.9375 306.453125 513.035156 C 311.726562 511.167969 314.445312 505.3125 312.425781 500.105469 C 310.558594 495.300781 308.925781 490.414062 307.503906 485.460938 C 307.503906 485.460938 312.160156 484.058594 315.214844 483.339844 C 315.214844 483.339844 327.007812 517.089844 337.753906 520.878906 L 343.191406 552.84375 Z M 292.425781 566.15625 " fill-opacity="1" fill-rule="nonzero"/><path fill="#ffffff" d="M 345.425781 521.296875 L 352.699219 525.75 C 342.675781 535.476562 332.648438 545.21875 322.636719 554.945312 C 323.90625 560.652344 325.171875 566.355469 326.457031 572.0625 C 347.8125 563.472656 363.011719 553.378906 372.90625 545.738281 C 381.648438 538.980469 385.699219 534.542969 386.269531 528.71875 C 387.601562 515.039062 368.734375 504.09375 366.75 502.960938 C 359.640625 509.082031 352.535156 515.1875 345.425781 521.296875 Z M 345.425781 521.296875 " fill-opacity="1" fill-rule="nonzero"/><path fill="#286359" d="M 325.808594 572.214844 L 321.988281 555.097656 C 321.9375 554.863281 322.003906 554.628906 322.171875 554.476562 L 351.632812 525.867188 L 345.09375 521.863281 C 344.710938 521.628906 344.660156 521.078125 345.011719 520.777344 L 366.316406 502.460938 C 366.53125 502.277344 366.832031 502.242188 367.082031 502.375 C 369.25 503.609375 388.304688 514.789062 386.933594 528.769531 C 386.316406 535.074219 381.664062 539.78125 373.304688 546.238281 C 359.574219 556.863281 343.890625 565.757812 326.707031 572.664062 C 326.324219 572.832031 325.890625 572.613281 325.808594 572.214844 Z M 323.371094 555.164062 L 326.941406 571.160156 C 343.726562 564.339844 359.058594 555.613281 372.503906 545.21875 C 380.5625 538.980469 385.050781 534.507812 385.617188 528.667969 C 386.835938 516.15625 370.234375 505.78125 366.832031 503.792969 L 346.5625 521.195312 L 353.066406 525.183594 C 353.433594 525.414062 353.5 525.933594 353.183594 526.234375 Z M 323.371094 555.164062 " fill-opacity="1" fill-rule="nonzero"/><path fill="#ffffff" d="M 243.910156 548.304688 C 242.707031 551.125 241.171875 555.546875 240.773438 561.117188 C 240.386719 566.558594 241.1875 571.613281 243.273438 578.070312 C 248.328125 593.667969 257.839844 608.050781 262.144531 614.171875 C 267.097656 611.820312 272.070312 609.449219 277.023438 607.097656 C 273.539062 591.464844 270.035156 575.832031 266.546875 560.199219 C 266.816406 559.601562 267.082031 559.015625 267.347656 558.414062 C 259.523438 555.046875 251.714844 551.675781 243.910156 548.304688 Z M 243.910156 548.304688 " fill-opacity="1" fill-rule="nonzero"/><path fill="#286359" d="M 262.144531 614.839844 C 261.925781 614.839844 261.726562 614.738281 261.59375 614.554688 C 255.46875 605.8125 247.210938 592.417969 242.640625 578.269531 C 240.472656 571.59375 239.722656 566.457031 240.105469 561.070312 C 240.421875 556.628906 241.488281 552.242188 243.292969 548.039062 C 243.441406 547.703125 243.824219 547.539062 244.175781 547.6875 L 267.617188 557.796875 C 267.78125 557.863281 267.914062 558 267.964844 558.164062 C 268.097656 558.5 268 558.582031 267.25 560.25 L 277.675781 606.929688 C 277.742188 607.230469 277.59375 607.546875 277.308594 607.683594 C 262.175781 614.90625 262.378906 614.839844 262.144531 614.839844 Z M 244.257812 549.191406 C 242.675781 553.058594 241.722656 557.082031 241.4375 561.167969 C 241.074219 566.375 241.804688 571.363281 243.910156 577.867188 C 248.363281 591.617188 256.335938 604.664062 262.359375 613.335938 L 276.257812 606.730469 C 265.796875 559.96875 265.78125 560.25 265.929688 559.933594 L 266.449219 558.765625 Z M 244.257812 549.191406 " fill-opacity="1" fill-rule="nonzero"/><path fill="#ffffff" d="M 285.75 488.945312 C 287.484375 493.550781 286.285156 490.148438 291.539062 505.394531 C 293.574219 499.90625 295.59375 494.417969 297.613281 488.945312 C 297.128906 487.460938 296.660156 485.992188 296.175781 484.507812 Z M 285.75 488.945312 " fill-opacity="1" fill-rule="nonzero"/><path fill="#286359" d="M 290.921875 505.628906 C 285.699219 490.496094 286.933594 493.949219 285.132812 489.195312 C 285 488.847656 285.183594 488.460938 285.515625 488.328125 C 285.867188 488.195312 286.25 488.378906 286.382812 488.710938 C 288.1875 493.46875 287.101562 490.449219 291.574219 503.410156 L 296.929688 488.929688 L 295.558594 484.707031 C 295.445312 484.359375 295.644531 483.972656 295.996094 483.875 C 296.34375 483.757812 296.726562 483.957031 296.828125 484.308594 C 298.363281 489.046875 298.363281 488.863281 298.261719 489.179688 L 292.191406 505.628906 C 291.957031 506.230469 291.121094 506.214844 290.921875 505.628906 Z M 290.921875 505.628906 " fill-opacity="1" fill-rule="nonzero"/><path fill="#ffffff" d="M 276.242188 474.898438 C 275.925781 473.164062 276.292969 471.378906 277.273438 469.910156 C 278.242188 468.492188 279.746094 466.855469 281.945312 465.824219 C 282.964844 465.355469 285.199219 464.320312 288.070312 464.855469 C 288.21875 464.886719 291.023438 465.4375 292.941406 467.425781 C 293.675781 468.191406 294.242188 469.144531 294.625 470.195312 C 295.59375 469.875 296.613281 469.992188 297.296875 470.609375 C 299.0625 472.210938 297.644531 475.664062 294.992188 476.332031 C 294.476562 479.167969 293.441406 481.121094 291.988281 482.707031 C 290.421875 484.425781 287.570312 486.976562 284.183594 487.511719 C 279.460938 488.277344 277.675781 482.523438 276.242188 474.898438 Z M 276.242188 474.898438 " fill-opacity="1" fill-rule="nonzero"/><path fill="#286359" d="M 283.382812 488.261719 C 278.492188 488.261719 276.839844 481.738281 275.589844 475.015625 C 275.222656 473.097656 275.640625 471.160156 276.742188 469.542969 C 278.058594 467.589844 279.726562 466.140625 281.695312 465.222656 C 282.714844 464.738281 285.117188 463.621094 288.21875 464.203125 C 288.351562 464.222656 291.355469 464.804688 293.457031 466.972656 C 294.125 467.65625 294.660156 468.492188 295.078125 469.425781 C 298.496094 468.84375 300.066406 472.78125 297.546875 475.566406 C 297.011719 476.167969 296.34375 476.617188 295.628906 476.882812 C 295.042969 479.6875 293.992188 481.605469 292.539062 483.191406 C 290.238281 485.675781 286.769531 488.261719 283.382812 488.261719 Z M 286.484375 465.371094 C 283.683594 465.371094 280.128906 466.90625 277.84375 470.277344 C 276.941406 471.59375 276.609375 473.195312 276.910156 474.765625 C 277.109375 475.816406 277.109375 475.816406 276.910156 474.765625 C 278.394531 482.691406 280.128906 487.496094 284.117188 486.859375 C 287.367188 486.359375 290.15625 483.773438 291.539062 482.273438 C 292.875 480.804688 293.875 478.984375 294.375 476.234375 C 294.425781 475.984375 294.609375 475.765625 294.859375 475.699219 C 295.476562 475.550781 296.0625 475.183594 296.527344 474.664062 C 298.328125 472.664062 297.261719 470.042969 294.84375 470.84375 C 294.492188 470.960938 294.125 470.777344 294.007812 470.445312 C 293.640625 469.441406 293.125 468.59375 292.472656 467.90625 C 291.171875 466.539062 288.820312 465.371094 286.484375 465.371094 Z M 286.484375 465.371094 " fill-opacity="1" fill-rule="nonzero"/><path fill="#286359" d="M 292.023438 482.738281 C 292.023438 482.738281 290.707031 489.179688 286.199219 490.363281 L 285.214844 487.34375 C 285.234375 487.328125 289.855469 486.191406 292.023438 482.738281 Z M 292.023438 482.738281 " fill-opacity="1" fill-rule="nonzero"/><path fill="#286359" d="M 294.644531 470.210938 C 294.644531 470.210938 292.691406 473.097656 289.488281 473.03125 C 286.285156 472.964844 282.714844 468.089844 282.714844 468.089844 C 282.714844 468.089844 279.945312 470.746094 282.714844 474.863281 L 274.605469 478.46875 C 274.605469 478.46875 270.800781 472.011719 271.503906 467.339844 C 272.203125 462.667969 283.03125 461.21875 283.03125 461.21875 C 283.03125 461.21875 293.359375 455.546875 296.929688 459.816406 C 300.5 464.085938 297.960938 471.613281 297.960938 471.613281 C 297.960938 471.613281 295.976562 468.808594 294.644531 470.210938 Z M 294.644531 470.210938 " fill-opacity="1" fill-rule="nonzero"/><path fill="#ffffff" d="M 285.234375 488.195312 C 284.316406 490.398438 283.414062 492.617188 282.496094 494.820312 C 282.613281 500.308594 282.730469 505.78125 282.847656 511.269531 L 287.484375 502.425781 L 291.539062 505.414062 Z M 285.234375 488.195312 " fill-opacity="1" fill-rule="nonzero"/><path fill="#286359" d="M 282.179688 511.285156 C 281.8125 494.601562 281.796875 494.769531 281.878906 494.566406 L 284.617188 487.945312 C 284.851562 487.394531 285.652344 487.394531 285.851562 487.960938 L 292.171875 505.164062 C 292.40625 505.78125 291.691406 506.332031 291.15625 505.929688 L 287.734375 503.410156 L 283.449219 511.570312 C 283.132812 512.1875 282.195312 511.96875 282.179688 511.285156 Z M 283.164062 494.953125 L 283.464844 508.664062 L 286.902344 502.109375 C 287.101562 501.742188 287.570312 501.640625 287.886719 501.875 L 290.15625 503.542969 L 285.183594 490.03125 Z M 283.164062 494.953125 " fill-opacity="1" fill-rule="nonzero"/><path fill="#ffffff" d="M 300.566406 488.378906 C 298.980469 486.695312 297.394531 485.023438 295.8125 483.339844 L 291.539062 505.414062 C 293.359375 503.328125 295.175781 501.242188 296.996094 499.15625 C 299.398438 500.574219 301.800781 501.992188 304.203125 503.410156 C 302.984375 498.390625 301.785156 493.382812 300.566406 488.378906 Z M 300.566406 488.378906 " fill-opacity="1" fill-rule="nonzero"/><path fill="#286359" d="M 290.890625 505.277344 L 295.160156 483.207031 C 295.261719 482.671875 295.925781 482.472656 296.292969 482.875 L 301.050781 487.910156 C 301.234375 488.113281 301.132812 487.894531 304.851562 503.242188 C 304.988281 503.828125 304.371094 504.277344 303.867188 503.976562 L 297.144531 500.007812 L 292.058594 505.847656 C 291.605469 506.347656 290.773438 505.945312 290.890625 505.277344 Z M 296.210938 484.742188 L 292.675781 503.09375 L 296.496094 498.707031 C 296.710938 498.457031 297.0625 498.40625 297.34375 498.574219 L 303.183594 502.027344 L 299.964844 488.695312 Z M 296.210938 484.742188 " fill-opacity="1" fill-rule="nonzero"/><path fill="#ffffff" d="M 211.726562 756.246094 L 113.128906 756.246094 L 118.882812 737.230469 L 205.988281 737.230469 Z M 211.726562 756.246094 " fill-opacity="1" fill-rule="nonzero"/><g clip-path="url(#4723c3f4b1)"><path fill="#286359" d="M 211.726562 756.914062 L 113.128906 756.914062 C 112.675781 756.914062 112.359375 756.480469 112.492188 756.046875 L 118.25 737.027344 C 118.332031 736.746094 118.597656 736.5625 118.882812 736.5625 L 205.988281 736.5625 C 206.289062 736.5625 206.539062 736.761719 206.621094 737.027344 L 212.375 756.046875 C 212.492188 756.480469 212.175781 756.914062 211.726562 756.914062 Z M 114.027344 755.582031 L 210.824219 755.582031 L 205.488281 737.894531 L 119.367188 737.894531 Z M 114.027344 755.582031 " fill-opacity="1" fill-rule="nonzero"/></g><g clip-path="url(#17bfa63f0b)"><path fill="#60afbd" d="M 413.027344 756.980469 L 346.5625 756.980469 L 339.703125 689.78125 L 419.886719 689.78125 Z M 413.027344 756.980469 " fill-opacity="1" fill-rule="nonzero"/></g><g clip-path="url(#8c4b5494b8)"><path fill="#286359" d="M 419.886719 689.78125 C 419.886719 690.09375 419.820312 690.410156 419.691406 690.722656 C 419.5625 691.035156 419.371094 691.347656 419.113281 691.65625 C 418.859375 691.964844 418.539062 692.269531 418.160156 692.570312 C 417.777344 692.871094 417.335938 693.167969 416.832031 693.457031 C 416.332031 693.75 415.769531 694.035156 415.152344 694.3125 C 414.53125 694.589844 413.859375 694.859375 413.128906 695.121094 C 412.398438 695.382812 411.617188 695.632812 410.785156 695.878906 C 409.953125 696.121094 409.070312 696.351562 408.144531 696.574219 C 407.214844 696.796875 406.242188 697.007812 405.226562 697.210938 C 404.214844 697.410156 403.160156 697.597656 402.066406 697.769531 C 400.976562 697.945312 399.851562 698.109375 398.695312 698.257812 C 397.535156 698.402344 396.351562 698.539062 395.136719 698.660156 C 393.921875 698.78125 392.6875 698.886719 391.433594 698.976562 C 390.175781 699.066406 388.902344 699.144531 387.617188 699.207031 C 386.328125 699.265625 385.03125 699.3125 383.722656 699.34375 C 382.417969 699.375 381.109375 699.390625 379.796875 699.390625 C 378.480469 699.390625 377.171875 699.375 375.867188 699.34375 C 374.558594 699.3125 373.261719 699.265625 371.972656 699.207031 C 370.6875 699.144531 369.414062 699.066406 368.15625 698.976562 C 366.902344 698.886719 365.667969 698.78125 364.453125 698.660156 C 363.238281 698.539062 362.054688 698.402344 360.898438 698.257812 C 359.738281 698.109375 358.613281 697.945312 357.523438 697.769531 C 356.429688 697.597656 355.375 697.410156 354.363281 697.210938 C 353.347656 697.007812 352.375 696.796875 351.445312 696.574219 C 350.519531 696.351562 349.636719 696.121094 348.804688 695.878906 C 347.972656 695.632812 347.191406 695.382812 346.460938 695.121094 C 345.730469 694.859375 345.058594 694.589844 344.4375 694.3125 C 343.820312 694.035156 343.257812 693.75 342.757812 693.457031 C 342.253906 693.167969 341.8125 692.871094 341.429688 692.570312 C 341.050781 692.269531 340.730469 691.964844 340.476562 691.65625 C 340.21875 691.347656 340.027344 691.035156 339.898438 690.722656 C 339.769531 690.410156 339.703125 690.09375 339.703125 689.78125 C 339.703125 689.464844 339.769531 689.152344 339.898438 688.839844 C 340.027344 688.527344 340.21875 688.214844 340.476562 687.90625 C 340.730469 687.597656 341.050781 687.292969 341.429688 686.992188 C 341.8125 686.691406 342.253906 686.394531 342.757812 686.101562 C 343.257812 685.8125 343.820312 685.527344 344.4375 685.25 C 345.058594 684.972656 345.730469 684.703125 346.460938 684.441406 C 347.191406 684.179688 347.972656 683.929688 348.804688 683.683594 C 349.636719 683.441406 350.519531 683.207031 351.445312 682.984375 C 352.375 682.761719 353.347656 682.550781 354.363281 682.351562 C 355.375 682.152344 356.429688 681.964844 357.523438 681.789062 C 358.613281 681.617188 359.738281 681.453125 360.898438 681.304688 C 362.054688 681.15625 363.238281 681.023438 364.453125 680.902344 C 365.667969 680.78125 366.902344 680.675781 368.15625 680.585938 C 369.414062 680.492188 370.6875 680.417969 371.972656 680.355469 C 373.261719 680.292969 374.558594 680.25 375.867188 680.21875 C 377.171875 680.1875 378.480469 680.171875 379.796875 680.171875 C 381.109375 680.171875 382.417969 680.1875 383.722656 680.21875 C 385.03125 680.25 386.328125 680.292969 387.617188 680.355469 C 388.902344 680.417969 390.175781 680.492188 391.433594 680.585938 C 392.6875 680.675781 393.921875 680.78125 395.136719 680.902344 C 396.351562 681.023438 397.535156 681.15625 398.695312 681.304688 C 399.851562 681.453125 400.976562 681.617188 402.066406 681.789062 C 403.160156 681.964844 404.214844 682.152344 405.226562 682.351562 C 406.242188 682.550781 407.214844 682.761719 408.144531 682.984375 C 409.070312 683.207031 409.953125 683.441406 410.785156 683.683594 C 411.617188 683.929688 412.398438 684.179688 413.128906 684.441406 C 413.859375 684.703125 414.53125 684.972656 415.152344 685.25 C 415.769531 685.527344 416.332031 685.8125 416.832031 686.101562 C 417.335938 686.394531 417.777344 686.691406 418.160156 686.992188 C 418.539062 687.292969 418.859375 687.597656 419.113281 687.90625 C 419.371094 688.214844 419.5625 688.527344 419.691406 688.839844 C 419.820312 689.152344 419.886719 689.464844 419.886719 689.78125 Z M 419.886719 689.78125 " fill-opacity="1" fill-rule="nonzero"/></g><path fill="#ffffff" d="M 342.539062 749.707031 C 341.421875 749.707031 340.304688 749.558594 339.203125 749.257812 C 334.617188 747.972656 331.714844 745.488281 330.578125 741.867188 C 327.542969 732.105469 339.453125 717.707031 339.972656 717.109375 C 340.621094 716.324219 341.789062 716.222656 342.574219 716.875 C 343.359375 717.527344 343.457031 718.691406 342.808594 719.476562 C 339.703125 723.199219 332.097656 734.257812 334.117188 740.765625 C 334.851562 743.132812 336.835938 744.753906 340.1875 745.6875 C 354.101562 749.574219 374.273438 717.507812 380.863281 704.828125 C 381.328125 703.929688 382.449219 703.5625 383.347656 704.046875 C 384.25 704.511719 384.617188 705.628906 384.132812 706.53125 C 383.183594 708.417969 361.476562 749.722656 342.539062 749.707031 Z M 342.539062 749.707031 " fill-opacity="1" fill-rule="nonzero"/><path fill="#286359" d="M 342.539062 750.375 C 341.339844 750.375 340.15625 750.207031 339.019531 749.890625 C 334.199219 748.539062 331.144531 745.902344 329.945312 742.050781 C 326.808594 731.941406 338.9375 717.273438 339.453125 716.65625 C 339.886719 716.140625 340.488281 715.824219 341.15625 715.773438 C 343.359375 715.574219 344.742188 718.175781 343.308594 719.894531 C 340.472656 723.28125 332.816406 734.375 334.734375 740.566406 C 335.402344 742.699219 337.234375 744.167969 340.355469 745.035156 C 353.753906 748.773438 373.773438 716.992188 380.261719 704.511719 C 380.894531 703.277344 382.429688 702.792969 383.648438 703.445312 C 384.882812 704.078125 385.367188 705.613281 384.714844 706.832031 C 383.816406 708.632812 361.910156 750.390625 342.539062 750.375 Z M 341.390625 717.109375 C 341.039062 717.109375 340.707031 717.257812 340.488281 717.527344 C 339.988281 718.125 328.292969 732.222656 331.230469 741.667969 C 332.28125 745.054688 335.035156 747.390625 339.386719 748.605469 C 350.332031 751.660156 362.777344 737.460938 369.566406 728.417969 C 377.558594 717.757812 383.332031 706.699219 383.566406 706.230469 C 383.867188 705.648438 383.632812 704.929688 383.066406 704.628906 C 382.480469 704.328125 381.761719 704.5625 381.464844 705.128906 C 374.65625 718.210938 354.4375 750.339844 340.023438 746.320312 C 331.261719 743.867188 331.914062 736.777344 335.949219 728.769531 C 337.9375 724.816406 340.621094 721.0625 342.308594 719.042969 C 342.941406 718.277344 342.375 717.109375 341.390625 717.109375 Z M 341.390625 717.109375 " fill-opacity="1" fill-rule="nonzero"/><path fill="#ffffff" d="M 381.347656 696.054688 L 382.3125 696.054688 C 384.765625 696.054688 386.769531 698.039062 386.769531 700.507812 L 386.769531 706.632812 C 386.769531 709.082031 384.785156 711.085938 382.3125 711.085938 L 381.347656 711.085938 C 378.894531 711.085938 376.890625 709.101562 376.890625 706.632812 L 376.890625 700.507812 C 376.890625 698.039062 378.878906 696.054688 381.347656 696.054688 Z M 381.347656 696.054688 " fill-opacity="1" fill-rule="nonzero"/><path fill="#286359" d="M 382.3125 711.753906 L 381.347656 711.753906 C 378.527344 711.753906 376.226562 709.449219 376.226562 706.632812 L 376.226562 700.507812 C 376.226562 697.6875 378.527344 695.386719 381.347656 695.386719 L 382.3125 695.386719 C 385.132812 695.386719 387.4375 697.6875 387.4375 700.507812 L 387.4375 706.632812 C 387.4375 709.449219 385.132812 711.753906 382.3125 711.753906 Z M 381.347656 696.722656 C 379.261719 696.722656 377.558594 698.421875 377.558594 700.507812 L 377.558594 706.632812 C 377.558594 708.714844 379.261719 710.417969 381.347656 710.417969 L 382.3125 710.417969 C 384.398438 710.417969 386.101562 708.714844 386.101562 706.632812 L 386.101562 700.507812 C 386.101562 698.421875 384.398438 696.722656 382.3125 696.722656 Z M 381.347656 696.722656 " fill-opacity="1" fill-rule="nonzero"/><path fill="#286359" d="M 342.574219 717.542969 C 342.242188 717.542969 341.941406 717.292969 341.90625 716.941406 L 339.519531 693.101562 C 339.488281 692.734375 339.753906 692.398438 340.121094 692.367188 C 340.488281 692.332031 340.824219 692.601562 340.855469 692.96875 L 343.242188 716.808594 C 343.273438 717.207031 342.976562 717.542969 342.574219 717.542969 Z M 342.574219 717.542969 " fill-opacity="1" fill-rule="nonzero"/><path fill="#286359" d="M 336.601562 517.308594 C 336.367188 517.308594 336.152344 517.191406 336.019531 516.972656 C 335.96875 516.890625 331.230469 508.648438 328.511719 496.238281 C 328.425781 495.871094 328.660156 495.519531 329.027344 495.4375 C 329.378906 495.351562 329.746094 495.585938 329.828125 495.9375 C 332.515625 508.132812 337.152344 516.207031 337.183594 516.289062 C 337.4375 516.757812 337.101562 517.308594 336.601562 517.308594 Z M 336.601562 517.308594 " fill-opacity="1" fill-rule="nonzero"/><path fill="#ffffff" d="M 285.71875 530.371094 C 297.378906 528.351562 308.558594 524.25 318.734375 518.226562 C 319.71875 520.144531 321.003906 522.847656 322.269531 526.167969 C 325.941406 535.757812 328.007812 541.164062 326.425781 546.136719 C 323.457031 555.511719 308.039062 561.570312 300.113281 557.082031 C 297.496094 555.597656 295.492188 551.625 291.589844 543.734375 C 288.902344 538.277344 286.984375 533.625 285.71875 530.371094 Z M 285.71875 530.371094 " fill-opacity="1" fill-rule="nonzero"/><path fill="#60afbd" d="M 299.796875 557.664062 C 296.945312 556.046875 294.828125 551.777344 291.007812 544.035156 C 288.835938 539.648438 286.851562 535.125 285.101562 530.605469 C 284.949219 530.222656 285.199219 529.769531 285.617188 529.703125 C 297.027344 527.734375 308.15625 523.699219 318.417969 517.640625 C 318.75 517.441406 319.183594 517.574219 319.351562 517.910156 C 320.667969 520.496094 321.871094 523.195312 322.921875 525.917969 C 326.675781 535.726562 328.742188 541.132812 327.09375 546.335938 C 323.921875 556.230469 308.007812 562.320312 299.796875 557.664062 Z M 286.636719 530.886719 C 288.304688 535.109375 290.171875 539.328125 292.207031 543.449219 C 296.195312 551.527344 298.0625 555.164062 300.464844 556.515625 C 308.007812 560.785156 322.953125 554.929688 325.808594 545.953125 C 327.308594 541.199219 325.308594 535.960938 321.652344 526.417969 C 320.703125 523.949219 319.632812 521.511719 318.464844 519.160156 C 308.808594 524.765625 298.078125 528.800781 286.636719 530.886719 Z M 286.636719 530.886719 " fill-opacity="1" fill-rule="nonzero"/><path fill="#286359" d="M 365.8125 511.601562 L 366.332031 512.085938 C 367.667969 513.304688 367.75 515.371094 366.53125 516.691406 L 159.507812 738.832031 C 158.289062 740.164062 156.21875 740.25 154.902344 739.03125 L 154.386719 738.546875 C 153.050781 737.328125 152.96875 735.261719 154.183594 733.941406 L 361.226562 511.800781 C 362.425781 510.484375 364.496094 510.382812 365.8125 511.601562 Z M 365.8125 511.601562 " fill-opacity="1" fill-rule="nonzero"/><path fill="#ffffff" d="M 274.640625 600.992188 C 274.640625 600.992188 267.082031 598.289062 268.96875 604.09375 C 268.96875 604.09375 261.808594 604.027344 264.246094 607.949219 C 264.246094 607.949219 257.355469 609.066406 260.410156 612.601562 C 260.410156 612.601562 255.152344 614.539062 256.820312 617.457031 C 258.472656 620.378906 268.667969 627.417969 271.738281 625.632812 C 274.804688 623.847656 268.03125 619.09375 268.03125 619.09375 C 268.03125 619.09375 271.921875 623.515625 274.65625 621.246094 C 277.390625 618.976562 269.933594 613.753906 269.933594 613.753906 C 269.933594 613.753906 274.722656 618.542969 277.558594 616.523438 C 280.394531 614.503906 272.90625 609.101562 272.90625 609.101562 C 273.203125 609.417969 278.359375 614.753906 281.511719 613.1875 C 281.679688 613.105469 282.179688 612.855469 282.464844 612.335938 C 284.03125 609.433594 275.90625 602.109375 274.640625 600.992188 Z M 274.640625 600.992188 " fill-opacity="1" fill-rule="nonzero"/><path fill="#286359" d="M 256.238281 617.792969 C 254.917969 615.457031 256.953125 613.488281 259.390625 612.320312 C 257.921875 609.816406 260.425781 608.164062 263.261719 607.464844 C 262.976562 606.699219 263.011719 606.011719 263.34375 605.394531 C 264.179688 603.910156 266.730469 603.527344 268.097656 603.445312 C 267.296875 599.507812 271.050781 598.988281 274.855469 600.359375 C 274.941406 600.390625 275.007812 600.425781 275.074219 600.492188 C 279.027344 603.996094 286.5 611.402344 281.78125 613.769531 C 280.746094 614.289062 279.5625 614.203125 278.410156 613.804688 C 279.195312 615.304688 278.84375 616.40625 277.925781 617.058594 C 277.023438 617.707031 275.972656 617.792969 274.941406 617.574219 C 275.492188 618.359375 275.875 619.160156 275.90625 619.910156 C 275.972656 621.597656 274.207031 622.695312 272.570312 622.546875 C 273.65625 624.265625 273.253906 625.515625 272.085938 626.199219 C 268.601562 628.234375 258.054688 621.011719 256.238281 617.792969 Z M 268.898438 604.761719 C 267.464844 604.761719 265.0625 605.113281 264.527344 606.0625 C 264.328125 606.429688 264.429688 606.949219 264.828125 607.597656 C 265.078125 608 264.847656 608.53125 264.363281 608.617188 C 263.011719 608.832031 260.742188 609.566406 260.359375 610.617188 C 260.207031 611.035156 260.390625 611.570312 260.925781 612.1875 C 261.226562 612.535156 261.09375 613.085938 260.660156 613.253906 C 259.875 613.554688 257.738281 614.589844 257.273438 615.875 C 257.121094 616.308594 257.15625 616.707031 257.421875 617.175781 C 258.972656 619.925781 268.867188 626.585938 271.417969 625.097656 C 271.820312 624.867188 271.886719 624.632812 271.886719 624.464844 C 271.921875 623.765625 271.101562 622.695312 270.085938 621.695312 C 268.667969 620.828125 267.632812 619.675781 267.550781 619.578125 C 267.03125 618.992188 267.800781 618.140625 268.433594 618.59375 C 268.816406 618.859375 269.902344 619.660156 270.953125 620.660156 C 272.019531 621.277344 273.253906 621.597656 274.238281 620.777344 C 275.492188 619.742188 273.054688 617.292969 271.871094 616.207031 C 270.535156 615.324219 269.566406 614.355469 269.46875 614.273438 C 269.21875 614.023438 269.199219 613.636719 269.433594 613.371094 C 269.652344 613.105469 270.050781 613.054688 270.335938 613.253906 C 270.570312 613.421875 271.621094 614.171875 272.738281 615.1875 C 274.238281 616.15625 276.007812 616.875 277.191406 616.039062 C 277.441406 615.855469 277.558594 615.671875 277.558594 615.40625 C 277.558594 614.621094 276.726562 613.488281 275.640625 612.371094 C 273.988281 611.21875 272.703125 609.902344 272.4375 609.617188 C 272.203125 609.367188 272.1875 608.984375 272.421875 608.714844 C 272.652344 608.464844 273.039062 608.414062 273.304688 608.617188 C 273.605469 608.832031 275.089844 609.917969 276.457031 611.300781 C 278.09375 612.4375 279.945312 613.269531 281.230469 612.636719 C 281.628906 612.4375 281.796875 612.21875 281.878906 612.070312 C 282.679688 610.601562 279.578125 606.332031 274.324219 601.640625 C 272.921875 601.160156 270.519531 600.742188 269.699219 601.542969 C 269.167969 602.058594 269.367188 603.144531 269.632812 603.960938 C 269.734375 604.296875 269.5 604.777344 268.898438 604.761719 Z M 268.898438 604.761719 " fill-opacity="1" fill-rule="nonzero"/><path fill="#ffffff" d="M 330.179688 549.257812 C 330.179688 549.257812 336.851562 553.710938 331.0625 555.664062 C 331.0625 555.664062 335.382812 561.367188 330.796875 561.753906 C 330.796875 561.753906 334.015625 567.941406 329.34375 567.609375 C 329.34375 567.609375 330.914062 572.980469 327.59375 573.398438 C 324.273438 573.816406 312.527344 569.828125 312.128906 566.308594 C 311.726562 562.785156 319.601562 565.371094 319.601562 565.371094 C 319.601562 565.371094 313.730469 564.90625 313.914062 561.351562 C 314.097656 557.816406 322.738281 560.667969 322.738281 560.667969 C 322.738281 560.667969 316.03125 559.683594 315.964844 556.195312 C 315.898438 552.710938 324.707031 555.496094 324.707031 555.496094 C 324.273438 555.445312 316.914062 554.496094 316.296875 551.023438 C 316.265625 550.859375 316.164062 550.289062 316.414062 549.757812 C 317.800781 546.738281 328.511719 548.90625 330.179688 549.257812 Z M 330.179688 549.257812 " fill-opacity="1" fill-rule="nonzero"/><path fill="#286359" d="M 327.042969 574.082031 C 323.070312 574.082031 311.910156 570.328125 311.460938 566.355469 C 311.308594 565.003906 312.058594 563.9375 314.09375 563.789062 C 312.996094 562.554688 312.828125 560.484375 314.230469 559.535156 C 314.847656 559.117188 315.714844 558.933594 316.679688 558.917969 C 315.878906 558.214844 315.332031 557.332031 315.3125 556.214844 C 315.296875 555.078125 315.949219 554.160156 317.648438 553.878906 C 315.582031 552.476562 315.296875 550.625 315.8125 549.507812 C 317.230469 546.402344 325.507812 547.621094 330.3125 548.621094 C 330.394531 548.640625 330.480469 548.671875 330.546875 548.722656 C 333.898438 550.957031 335.734375 554.277344 332.097656 555.996094 C 332.847656 557.148438 334.066406 559.417969 333.363281 560.984375 C 333.082031 561.617188 332.546875 562.050781 331.761719 562.285156 C 332.914062 565.039062 333.046875 567.976562 330.195312 568.292969 C 330.777344 571.296875 330.179688 574.082031 327.042969 574.082031 Z M 313.027344 565.457031 C 312.894531 565.574219 312.746094 565.757812 312.792969 566.207031 C 313.128906 569.144531 324.339844 573.113281 327.507812 572.714844 C 328.027344 572.648438 328.375 572.445312 328.644531 572.0625 C 329.394531 570.910156 328.945312 568.59375 328.710938 567.792969 C 328.578125 567.359375 328.910156 566.90625 329.394531 566.941406 C 330.210938 566.992188 330.746094 566.839844 330.996094 566.457031 C 331.679688 565.421875 330.628906 562.871094 330.210938 562.050781 C 329.996094 561.636719 330.277344 561.117188 330.746094 561.085938 C 331.511719 561.019531 331.980469 560.785156 332.148438 560.417969 C 332.597656 559.398438 331.394531 557.214844 330.527344 556.078125 C 330.246094 555.714844 330.410156 555.195312 330.847656 555.046875 C 331.664062 554.777344 332.648438 554.292969 332.746094 553.5625 C 332.898438 552.425781 331.128906 550.757812 329.910156 549.90625 C 323.003906 548.488281 317.714844 548.554688 317.03125 550.074219 C 316.964844 550.242188 316.898438 550.507812 316.964844 550.941406 C 317.214844 552.34375 319 553.328125 320.886719 553.976562 C 322.804688 554.246094 324.574219 554.796875 324.921875 554.894531 C 325.257812 554.996094 325.441406 555.328125 325.375 555.679688 C 325.308594 556.011719 324.972656 556.246094 324.640625 556.195312 C 324.238281 556.148438 322.4375 555.914062 320.535156 555.277344 C 319 555.078125 317.582031 555.078125 316.949219 555.546875 C 316.730469 555.714844 316.648438 555.914062 316.648438 556.214844 C 316.679688 557.664062 318.316406 558.664062 319.984375 559.285156 C 321.46875 559.582031 322.6875 559.96875 322.972656 560.066406 C 323.304688 560.183594 323.488281 560.519531 323.40625 560.851562 C 323.320312 561.183594 323.003906 561.402344 322.652344 561.351562 C 322.519531 561.335938 321.1875 561.136719 319.667969 560.585938 C 318.066406 560.269531 314.664062 559.785156 314.578125 561.402344 C 314.511719 562.6875 315.515625 563.472656 316.632812 563.972656 C 318.066406 564.203125 319.351562 564.605469 319.800781 564.753906 C 320.117188 564.855469 320.320312 565.1875 320.25 565.523438 C 320.183594 565.855469 319.867188 566.089844 319.550781 566.058594 C 319.417969 566.039062 317.867188 565.90625 316.332031 565.289062 C 315.480469 565.121094 313.695312 564.921875 313.027344 565.457031 Z M 313.027344 565.457031 " fill-opacity="1" fill-rule="nonzero"/><path fill="#60afbd" d="M 169.75 717.441406 L 174.320312 720.84375 C 175.671875 721.847656 175.957031 723.765625 174.9375 725.117188 L 167.046875 735.695312 C 166.046875 737.046875 164.128906 737.328125 162.777344 736.3125 L 158.207031 732.90625 C 156.855469 731.90625 156.570312 729.988281 157.589844 728.636719 L 165.480469 718.058594 C 166.496094 716.707031 168.398438 716.425781 169.75 717.441406 Z M 169.75 717.441406 " fill-opacity="1" fill-rule="nonzero"/><path fill="#60afbd" d="M 120.183594 727.453125 L 204.667969 727.453125 C 206.703125 727.453125 208.355469 729.105469 208.355469 731.140625 L 208.355469 737.410156 C 208.355469 739.449219 206.703125 741.097656 204.667969 741.097656 L 120.183594 741.097656 C 118.148438 741.097656 116.496094 739.449219 116.496094 737.410156 L 116.496094 731.140625 C 116.496094 729.105469 118.148438 727.453125 120.183594 727.453125 Z M 120.183594 727.453125 " fill-opacity="1" fill-rule="nonzero"/><path fill="#e0f2f1" d="M 179.925781 672.746094 C 169.46875 672.746094 160.941406 681.238281 160.941406 691.734375 C 160.941406 681.253906 152.449219 672.746094 141.957031 672.746094 C 152.433594 672.746094 160.941406 664.253906 160.941406 653.761719 C 160.941406 664.253906 169.449219 672.746094 179.925781 672.746094 Z M 179.925781 672.746094 " fill-opacity="1" fill-rule="nonzero"/><path fill="#e0f2f1" d="M 196.078125 639.699219 C 189.652344 639.699219 184.414062 644.917969 184.414062 651.375 C 184.414062 644.9375 179.195312 639.699219 172.753906 639.699219 C 179.195312 639.699219 184.414062 634.476562 184.414062 628.035156 C 184.398438 634.476562 189.636719 639.699219 196.078125 639.699219 Z M 196.078125 639.699219 " fill-opacity="1" fill-rule="nonzero"/><path fill="#e0f2f1" d="M 157.972656 629.605469 C 153.632812 629.605469 150.082031 633.125 150.082031 637.496094 C 150.082031 633.140625 146.542969 629.605469 142.191406 629.605469 C 146.542969 629.605469 150.082031 626.066406 150.082031 621.710938 C 150.097656 626.082031 153.617188 629.605469 157.972656 629.605469 Z M 157.972656 629.605469 " fill-opacity="1" fill-rule="nonzero"/><g clip-path="url(#42baadd77a)"><g clip-path="url(#b59ea66543)"><g clip-path="url(#94b413d8e8)"><path fill="#286359" d="M 274.625 155.066406 L 257.941406 166.796875 L 238.402344 172.65625 L 255.089844 160.925781 Z M 274.625 155.066406 " fill-opacity="1" fill-rule="nonzero"/></g></g></g><g clip-path="url(#1498db1de0)"><g clip-path="url(#8f931e40b5)"><g clip-path="url(#511b62bec0)"><path fill="#286359" d="M 247.722656 145.75 L 259.449219 162.4375 L 265.308594 181.972656 L 253.582031 165.285156 Z M 247.722656 145.75 " fill-opacity="1" fill-rule="nonzero"/></g></g></g><g clip-path="url(#4b190c7141)"><g clip-path="url(#4d81d5a37e)"><g clip-path="url(#88e998c2b0)"><path fill="#286359" d="M 199.9375 156.328125 L 189.421875 163.714844 L 177.113281 167.40625 L 187.628906 160.019531 Z M 199.9375 156.328125 " fill-opacity="1" fill-rule="nonzero"/></g></g></g><g clip-path="url(#0a9f5c7602)"><g clip-path="url(#0562751996)"><g clip-path="url(#a0fe4320c2)"><path fill="#286359" d="M 182.984375 150.457031 L 190.375 160.96875 L 194.066406 173.277344 L 186.675781 162.765625 Z M 182.984375 150.457031 " fill-opacity="1" fill-rule="nonzero"/></g></g></g><g clip-path="url(#62817cd513)"><g clip-path="url(#851fa2ea6b)"><g clip-path="url(#6287a1e9c8)"><path fill="#286359" d="M 271.769531 229.195312 L 261.253906 236.585938 L 248.945312 240.277344 L 259.460938 232.886719 Z M 271.769531 229.195312 " fill-opacity="1" fill-rule="nonzero"/></g></g></g><g clip-path="url(#d5a376180c)"><g clip-path="url(#f62681e0bb)"><g clip-path="url(#6a6c9f2388)"><path fill="#286359" d="M 254.816406 223.324219 L 262.207031 233.839844 L 265.898438 246.148438 L 258.507812 235.632812 Z M 254.816406 223.324219 " fill-opacity="1" fill-rule="nonzero"/></g></g></g><g clip-path="url(#c0fbb9bd20)"><g clip-path="url(#a1d438d3db)"><g clip-path="url(#cf9165d4d4)"><path fill="#286359" d="M 258.765625 355.746094 C 258.734375 359.410156 261.683594 362.40625 265.339844 362.4375 C 269.003906 362.472656 272.007812 359.539062 272.035156 355.875 C 272.074219 352.210938 269.136719 349.210938 265.472656 349.179688 C 261.804688 349.140625 258.808594 352.082031 258.765625 355.746094 Z M 261.160156 353.105469 C 262.074219 360.164062 269.582031 358.582031 269.582031 358.582031 C 267.171875 361.5 262.625 360.894531 261.179688 358.289062 C 259.734375 355.679688 261.160156 353.105469 261.160156 353.105469 Z M 261.160156 353.105469 " fill-opacity="1" fill-rule="nonzero"/></g></g></g><g clip-path="url(#832852f990)"><g clip-path="url(#e7e48b193b)"><g clip-path="url(#6df4af5378)"><path fill="#286359" d="M 262.355469 335.394531 C 262.328125 338.324219 264.683594 340.722656 267.613281 340.75 C 270.546875 340.777344 272.945312 338.429688 272.96875 335.5 C 273 332.566406 270.652344 330.167969 267.722656 330.140625 C 264.785156 330.109375 262.390625 332.460938 262.355469 335.394531 Z M 264.269531 333.28125 C 265 338.929688 271.007812 337.664062 271.007812 337.664062 C 269.082031 340 265.441406 339.515625 264.285156 337.429688 C 263.128906 335.339844 264.269531 333.28125 264.269531 333.28125 Z M 264.269531 333.28125 " fill-opacity="1" fill-rule="nonzero"/></g></g></g><g clip-path="url(#bea9b05bbb)"><g clip-path="url(#3deab593f9)"><g clip-path="url(#5ef2f381eb)"><path fill="#286359" d="M 289.65625 324.753906 C 286.863281 324.730469 284.632812 322.449219 284.65625 319.660156 C 284.6875 316.875 286.96875 314.640625 289.753906 314.671875 C 292.535156 314.695312 294.773438 316.980469 294.746094 319.761719 C 294.71875 322.546875 292.4375 324.785156 289.65625 324.753906 Z M 289.65625 324.753906 " fill-opacity="1" fill-rule="nonzero"/></g></g></g><g clip-path="url(#6120efab74)"><g clip-path="url(#b119cfecdd)"><g clip-path="url(#51c7261d8b)"><path fill="#286359" d="M 237.246094 349.6875 C 237.265625 347.550781 239.015625 345.839844 241.152344 345.859375 C 243.289062 345.878906 245.003906 347.632812 244.984375 349.765625 C 244.964844 351.90625 243.214844 353.617188 241.078125 353.597656 C 238.941406 353.582031 237.226562 351.828125 237.246094 349.6875 Z M 237.246094 349.6875 " fill-opacity="1" fill-rule="nonzero"/></g></g></g><g clip-path="url(#845252129e)"><g clip-path="url(#e02a537b77)"><g clip-path="url(#793d03f2fe)"><path fill="#286359" d="M 213.5625 336.011719 C 215.261719 336.039062 216.621094 337.429688 216.601562 339.125 C 216.585938 340.820312 215.199219 342.179688 213.503906 342.164062 C 211.808594 342.148438 210.449219 340.757812 210.46875 339.058594 C 210.480469 337.371094 211.875 336.007812 213.5625 336.011719 Z M 213.5625 336.011719 " fill-opacity="1" fill-rule="nonzero"/></g></g></g><g clip-path="url(#087ec0f3d8)"><g clip-path="url(#71cca963d0)"><g clip-path="url(#bf42b564df)"><path fill="#286359" d="M 268.324219 296.191406 C 270.019531 296.210938 271.378906 297.597656 271.359375 299.292969 C 271.34375 300.988281 269.953125 302.347656 268.257812 302.332031 C 266.5625 302.316406 265.203125 300.925781 265.222656 299.234375 C 265.238281 297.535156 266.628906 296.175781 268.324219 296.191406 Z M 268.324219 296.191406 " fill-opacity="1" fill-rule="nonzero"/></g></g></g><g clip-path="url(#0eb26fca7a)"><g clip-path="url(#6c82460ac5)"><g clip-path="url(#b87aee2e6e)"><path fill="#286359" d="M 288.355469 285.414062 C 282.636719 296.96875 248.476562 350.28125 178.761719 314.757812 C 178.761719 314.757812 194.242188 328.128906 222.636719 331.207031 C 251.039062 334.289062 281.234375 316.96875 292.628906 298.667969 C 304.015625 280.363281 294.070312 273.859375 288.355469 285.414062 Z M 272.03125 315.765625 C 280.367188 308.671875 289.203125 294.199219 290.449219 290.878906 C 291.695312 287.558594 293.6875 288.304688 293.6875 288.304688 C 291.445312 303.363281 272.03125 315.765625 272.03125 315.765625 Z M 272.03125 315.765625 " fill-opacity="1" fill-rule="nonzero"/></g></g></g><g clip-path="url(#705298adc2)"><g clip-path="url(#0ce3700cf7)"><g clip-path="url(#f9e7345180)"><path fill="#286359" d="M 219.734375 211.308594 C 219.734375 211.308594 204.519531 214.875 194.585938 227.847656 C 183.894531 241.800781 175.898438 265.140625 195.640625 292.5625 C 195.640625 292.5625 186.226562 277.828125 191.570312 254.546875 C 196.042969 235.0625 210.523438 227.429688 223.105469 225.867188 Z M 219.734375 211.308594 " fill-opacity="1" fill-rule="nonzero"/></g></g></g><g clip-path="url(#b70c08fa2a)"><g clip-path="url(#defbfc97c1)"><g clip-path="url(#17b4a4d2f9)"><path fill="#286359" d="M 258.894531 311.066406 C 261.015625 309.066406 262.941406 305.660156 261.554688 304.011719 C 260.15625 302.351562 257.433594 302.480469 256.007812 303.316406 C 251.558594 307.167969 244.125 312.558594 235.089844 313.578125 C 200.355469 317.503906 161.832031 272.289062 185.71875 231.949219 C 193.839844 218.238281 206.90625 209.820312 221.332031 206.386719 L 220.394531 201.269531 C 198.355469 206.144531 179.738281 220.59375 175.066406 243.054688 C 167.921875 277.421875 188.925781 298.847656 188.925781 298.847656 C 163.902344 278.980469 157.886719 239.675781 187.371094 213.148438 C 197.640625 203.910156 209.164062 199.734375 219.832031 198.214844 L 217.09375 177.121094 C 160.675781 181.960938 131.976562 253.859375 163.207031 295.25 C 188.035156 328.148438 235.914062 328.4375 258.894531 311.066406 Z M 159.585938 269.722656 C 150.753906 232.003906 177.617188 203.980469 191.671875 199.714844 C 191.671875 199.714844 170.714844 211.910156 163.484375 244.535156 C 156.863281 274.433594 180.046875 305.96875 209.976562 316.265625 C 209.976562 316.265625 168.425781 307.453125 159.585938 269.722656 Z M 159.585938 269.722656 " fill-opacity="1" fill-rule="nonzero"/></g></g></g><g clip-path="url(#0207c81274)"><g clip-path="url(#3494300ed9)"><g clip-path="url(#36af166819)"><path fill="#ffffff" d="M 205.148438 177.996094 L 213.925781 229.285156 L 226.570312 226.730469 L 218.355469 173.828125 Z M 205.148438 177.996094 " fill-opacity="1" fill-rule="nonzero"/></g></g></g><g clip-path="url(#fdd85f29e8)"><g clip-path="url(#e4c8d5b39a)"><g clip-path="url(#89b00d4219)"><path fill="#286359" d="M 206.199219 169.875 L 217.910156 238.90625 L 229.546875 233.019531 L 224.546875 203.316406 L 224.550781 203.316406 L 224.207031 201.285156 L 224.203125 201.285156 L 219.125 171.59375 Z M 206.199219 169.875 " fill-opacity="1" fill-rule="nonzero"/></g></g></g><g clip-path="url(#69b599ce01)"><g clip-path="url(#c5ec031aa4)"><g clip-path="url(#46874ec33b)"><path fill="#286359" d="M 224.472656 168.257812 L 220.800781 168.882812 L 232.023438 235.027344 L 235.691406 234.40625 C 235.691406 234.40625 237.683594 234.203125 237.4375 231.953125 L 226.925781 170.003906 C 226.414062 167.792969 224.472656 168.257812 224.472656 168.257812 Z M 224.472656 168.257812 " fill-opacity="1" fill-rule="nonzero"/></g></g></g><g clip-path="url(#90b634296f)"><g clip-path="url(#729018f9a5)"><g clip-path="url(#0693abe4ce)"><path fill="#286359" d="M 229.816406 195.128906 L 230.605469 200.78125 L 230.597656 200.785156 L 230.628906 200.941406 L 230.652344 201.101562 L 230.660156 201.101562 L 231.78125 206.699219 C 243.535156 199.667969 300.652344 193.933594 318.253906 191.667969 C 333.449219 189.710938 334.078125 184.863281 333.964844 183.574219 C 333.964844 183.574219 333.964844 183.515625 333.945312 183.414062 C 333.929688 183.308594 333.910156 183.253906 333.910156 183.253906 C 333.59375 182 331.398438 177.632812 316.410156 180.796875 C 299.046875 184.460938 243.234375 197.890625 229.816406 195.128906 Z M 229.816406 195.128906 " fill-opacity="1" fill-rule="nonzero"/></g></g></g><g fill="#286359" fill-opacity="1"><g transform="translate(76.479073, 147.029589)"><g><path d="M 84.03125 -39.09375 L 84.03125 -2.96875 C 84.03125 -1.976562 83.34375 -1.132812 81.96875 -0.4375 C 80.601562 0.257812 78.929688 0.609375 76.953125 0.609375 C 75.023438 0.609375 73.375 0.257812 72 -0.4375 C 70.632812 -1.132812 69.953125 -1.976562 69.953125 -2.96875 L 69.953125 -39.09375 C 69.953125 -40.707031 69.835938 -42.445312 69.609375 -44.3125 C 69.390625 -46.175781 68.988281 -47.925781 68.40625 -49.5625 C 67.820312 -51.207031 66.976562 -52.554688 65.875 -53.609375 C 64.769531 -54.660156 63.34375 -55.1875 61.59375 -55.1875 C 58.175781 -55.1875 55.710938 -53.914062 54.203125 -51.375 C 52.703125 -48.84375 51.910156 -44.75 51.828125 -39.09375 L 51.828125 -2.96875 C 51.828125 -1.976562 51.148438 -1.132812 49.796875 -0.4375 C 48.453125 0.257812 46.8125 0.609375 44.875 0.609375 C 42.851562 0.609375 41.179688 0.257812 39.859375 -0.4375 C 38.535156 -1.132812 37.875 -1.976562 37.875 -2.96875 L 37.875 -39.09375 C 37.875 -44.65625 37.117188 -48.726562 35.609375 -51.3125 C 34.109375 -53.894531 31.582031 -55.1875 28.03125 -55.1875 C 26.375 -55.1875 24.992188 -54.691406 23.890625 -53.703125 C 22.785156 -52.722656 21.941406 -51.445312 21.359375 -49.875 C 20.773438 -48.300781 20.359375 -46.566406 20.109375 -44.671875 C 19.867188 -42.785156 19.75 -40.925781 19.75 -39.09375 L 19.75 -2.96875 C 19.75 -1.976562 19.0625 -1.132812 17.6875 -0.4375 C 16.320312 0.257812 14.671875 0.609375 12.734375 0.609375 C 10.804688 0.609375 9.15625 0.257812 7.78125 -0.4375 C 6.414062 -1.132812 5.734375 -1.976562 5.734375 -2.96875 L 5.734375 -39.09375 C 5.734375 -41.601562 5.929688 -44.125 6.328125 -46.65625 C 6.734375 -49.195312 7.429688 -51.625 8.421875 -53.9375 C 9.410156 -56.257812 10.742188 -58.316406 12.421875 -60.109375 C 14.109375 -61.910156 16.234375 -63.335938 18.796875 -64.390625 C 21.359375 -65.441406 24.4375 -65.96875 28.03125 -65.96875 C 31.757812 -65.96875 34.984375 -65.53125 37.703125 -64.65625 C 40.421875 -63.78125 42.789062 -62.332031 44.8125 -60.3125 C 46.75 -62.15625 49.164062 -63.554688 52.0625 -64.515625 C 54.957031 -65.484375 58.132812 -65.96875 61.59375 -65.96875 C 65.945312 -65.96875 69.570312 -65.210938 72.46875 -63.703125 C 75.375 -62.203125 77.664062 -60.171875 79.34375 -57.609375 C 81.03125 -55.054688 82.234375 -52.171875 82.953125 -48.953125 C 83.671875 -45.742188 84.03125 -42.457031 84.03125 -39.09375 Z M 84.03125 -39.09375 "/></g></g><g transform="translate(166.241637, 147.029589)"><g><path d="M 55.125 -4.3125 C 55.351562 -3.320312 54.859375 -2.421875 53.640625 -1.609375 C 52.429688 -0.804688 50.90625 -0.25 49.0625 0.0625 C 47.257812 0.25 45.617188 0.128906 44.140625 -0.296875 C 42.660156 -0.722656 41.785156 -1.390625 41.515625 -2.296875 L 41.3125 -3.09375 C 37.132812 -0.664062 32.210938 0.546875 26.546875 0.546875 C 22.597656 0.546875 19.1875 -0.160156 16.3125 -1.578125 C 13.4375 -2.992188 11.066406 -4.914062 9.203125 -7.34375 C 7.335938 -9.769531 5.953125 -12.53125 5.046875 -15.625 C 4.148438 -18.726562 3.703125 -21.96875 3.703125 -25.34375 C 3.703125 -29.113281 4.101562 -32.769531 4.90625 -36.3125 C 5.71875 -39.863281 7.113281 -43.054688 9.09375 -45.890625 C 11.070312 -48.722656 13.78125 -50.96875 17.21875 -52.625 C 20.65625 -54.289062 25.023438 -55.125 30.328125 -55.125 C 34.734375 -55.125 38.648438 -54.328125 42.078125 -52.734375 C 45.515625 -51.140625 48.222656 -48.847656 50.203125 -45.859375 C 52.179688 -42.867188 53.171875 -39.285156 53.171875 -35.109375 L 53.171875 -20.546875 C 53.171875 -19.609375 53.226562 -18.382812 53.34375 -16.875 C 53.457031 -15.375 53.601562 -13.8125 53.78125 -12.1875 C 53.957031 -10.570312 54.164062 -9.054688 54.40625 -7.640625 C 54.65625 -6.234375 54.894531 -5.125 55.125 -4.3125 Z M 27.09375 -10.3125 C 28.664062 -10.175781 30.28125 -10.363281 31.9375 -10.875 C 33.601562 -11.394531 35.109375 -12.21875 36.453125 -13.34375 C 37.804688 -14.46875 38.796875 -15.859375 39.421875 -17.515625 L 39.421875 -35.109375 C 39.421875 -38.078125 38.625 -40.390625 37.03125 -42.046875 C 35.4375 -43.710938 33.203125 -44.546875 30.328125 -44.546875 C 27.535156 -44.546875 25.304688 -44.015625 23.640625 -42.953125 C 21.984375 -41.898438 20.738281 -40.460938 19.90625 -38.640625 C 19.082031 -36.828125 18.523438 -34.75 18.234375 -32.40625 C 17.941406 -30.070312 17.769531 -27.648438 17.71875 -25.140625 C 17.675781 -22.929688 17.957031 -20.710938 18.5625 -18.484375 C 19.164062 -16.265625 20.164062 -14.390625 21.5625 -12.859375 C 22.957031 -11.335938 24.800781 -10.488281 27.09375 -10.3125 Z M 27.09375 -10.3125 "/></g></g><g transform="translate(224.80295, 147.029589)"><g><path d="M 22.578125 -51.6875 L 22.578125 -3.171875 C 22.578125 -2.179688 21.96875 -1.300781 20.75 -0.53125 C 19.539062 0.226562 17.859375 0.609375 15.703125 0.609375 C 13.765625 0.609375 12.125 0.257812 10.78125 -0.4375 C 9.4375 -1.132812 8.765625 -1.953125 8.765625 -2.890625 L 8.765625 -51.6875 C 8.765625 -52.582031 9.4375 -53.378906 10.78125 -54.078125 C 12.125 -54.773438 13.765625 -55.125 15.703125 -55.125 C 17.546875 -55.125 19.148438 -54.773438 20.515625 -54.078125 C 21.890625 -53.378906 22.578125 -52.582031 22.578125 -51.6875 Z M 6.671875 -70.625 C 6.671875 -72.289062 7.070312 -73.804688 7.875 -75.171875 C 8.6875 -76.546875 9.773438 -77.632812 11.140625 -78.4375 C 12.515625 -79.25 14.035156 -79.65625 15.703125 -79.65625 C 17.367188 -79.65625 18.882812 -79.25 20.25 -78.4375 C 21.625 -77.632812 22.722656 -76.546875 23.546875 -75.171875 C 24.378906 -73.804688 24.796875 -72.289062 24.796875 -70.625 C 24.796875 -68.957031 24.378906 -67.4375 23.546875 -66.0625 C 22.722656 -64.695312 21.625 -63.597656 20.25 -62.765625 C 18.882812 -61.941406 17.367188 -61.53125 15.703125 -61.53125 C 14.035156 -61.53125 12.515625 -61.941406 11.140625 -62.765625 C 9.773438 -63.597656 8.6875 -64.695312 7.875 -66.0625 C 7.070312 -67.4375 6.671875 -68.957031 6.671875 -70.625 Z M 6.671875 -70.625 "/></g></g><g transform="translate(256.13898, 147.029589)"><g><path d="M 28.296875 -55.0625 C 30.234375 -55.0625 32.164062 -54.898438 34.09375 -54.578125 C 36.03125 -54.265625 37.804688 -53.75 39.421875 -53.03125 L 39.421875 -70.6875 C 39.421875 -71.59375 40.101562 -72.390625 41.46875 -73.078125 C 42.84375 -73.773438 44.453125 -74.125 46.296875 -74.125 C 48.179688 -74.125 49.796875 -73.773438 51.140625 -73.078125 C 52.492188 -72.390625 53.171875 -71.59375 53.171875 -70.6875 L 53.171875 -20.546875 C 53.171875 -17.804688 53.347656 -15.03125 53.703125 -12.21875 C 54.066406 -9.414062 54.519531 -6.757812 55.0625 -4.25 C 55.28125 -3.300781 54.796875 -2.429688 53.609375 -1.640625 C 52.421875 -0.859375 50.90625 -0.289062 49.0625 0.0625 C 47.257812 0.289062 45.617188 0.179688 44.140625 -0.265625 C 42.660156 -0.710938 41.785156 -1.390625 41.515625 -2.296875 L 41.375 -2.703125 C 39.445312 -1.617188 37.414062 -0.796875 35.28125 -0.234375 C 33.144531 0.328125 30.816406 0.609375 28.296875 0.609375 C 23.984375 0.609375 20.265625 -0.175781 17.140625 -1.75 C 14.023438 -3.320312 11.476562 -5.390625 9.5 -7.953125 C 7.519531 -10.515625 6.054688 -13.351562 5.109375 -16.46875 C 4.171875 -19.59375 3.703125 -22.707031 3.703125 -25.8125 C 3.703125 -29.539062 4.09375 -33.144531 4.875 -36.625 C 5.664062 -40.101562 6.984375 -43.234375 8.828125 -46.015625 C 10.671875 -48.804688 13.1875 -51.007812 16.375 -52.625 C 19.5625 -54.25 23.535156 -55.0625 28.296875 -55.0625 Z M 17.59375 -26.015625 C 17.59375 -23.179688 17.953125 -20.5625 18.671875 -18.15625 C 19.390625 -15.757812 20.554688 -13.84375 22.171875 -12.40625 C 23.785156 -10.96875 25.941406 -10.25 28.640625 -10.25 C 31.066406 -10.25 33.1875 -10.929688 35 -12.296875 C 36.820312 -13.671875 38.316406 -15.390625 39.484375 -17.453125 C 39.441406 -18.035156 39.421875 -18.664062 39.421875 -19.34375 C 39.421875 -20.019531 39.421875 -20.648438 39.421875 -21.234375 L 39.421875 -37.203125 C 38.023438 -39.578125 36.492188 -41.359375 34.828125 -42.546875 C 33.171875 -43.742188 31.109375 -44.34375 28.640625 -44.34375 C 26.078125 -44.34375 24.039062 -43.78125 22.53125 -42.65625 C 21.03125 -41.53125 19.929688 -40.046875 19.234375 -38.203125 C 18.546875 -36.367188 18.097656 -34.382812 17.890625 -32.25 C 17.691406 -30.113281 17.59375 -28.035156 17.59375 -26.015625 Z M 17.59375 -26.015625 "/></g></g></g><g fill="#286359" fill-opacity="1"><g transform="translate(234.872475, 283.675623)"><g><path d="M 29.015625 -55.0625 C 33.546875 -55.0625 37.460938 -54.351562 40.765625 -52.9375 C 44.066406 -51.53125 46.789062 -49.566406 48.9375 -47.046875 C 51.09375 -44.535156 52.695312 -41.585938 53.75 -38.203125 C 54.8125 -34.816406 55.34375 -31.171875 55.34375 -27.265625 C 55.34375 -21.296875 54.296875 -16.242188 52.203125 -12.109375 C 50.117188 -7.984375 47.113281 -4.84375 43.1875 -2.6875 C 39.257812 -0.539062 34.535156 0.53125 29.015625 0.53125 C 20.578125 0.53125 14.101562 -1.910156 9.59375 -6.796875 C 5.082031 -11.691406 2.828125 -18.515625 2.828125 -27.265625 C 2.828125 -36.242188 5.140625 -43.117188 9.765625 -47.890625 C 14.390625 -52.671875 20.804688 -55.0625 29.015625 -55.0625 Z M 29.015625 -10.09375 C 32.203125 -10.09375 34.710938 -10.851562 36.546875 -12.375 C 38.390625 -13.90625 39.703125 -15.972656 40.484375 -18.578125 C 41.273438 -21.179688 41.671875 -24.078125 41.671875 -27.265625 C 41.671875 -33.054688 40.648438 -37.375 38.609375 -40.21875 C 36.566406 -43.070312 33.367188 -44.5 29.015625 -44.5 C 24.660156 -44.5 21.484375 -43.070312 19.484375 -40.21875 C 17.492188 -37.375 16.5 -33.054688 16.5 -27.265625 C 16.5 -21.566406 17.492188 -17.28125 19.484375 -14.40625 C 21.484375 -11.53125 24.660156 -10.09375 29.015625 -10.09375 Z M 29.015625 -10.09375 "/></g></g><g transform="translate(293.036786, 283.675623)"><g><path d="M 57.015625 -2.96875 C 57.015625 -2.019531 56.34375 -1.195312 55 -0.5 C 53.65625 0.1875 52.039062 0.53125 50.15625 0.53125 C 48.269531 0.53125 46.648438 0.1875 45.296875 -0.5 C 43.953125 -1.195312 43.28125 -2.019531 43.28125 -2.96875 L 43.28125 -28.671875 C 43.28125 -34.421875 42.335938 -38.492188 40.453125 -40.890625 C 38.578125 -43.296875 35.484375 -44.5 31.171875 -44.5 C 26.816406 -44.5 23.71875 -43.296875 21.875 -40.890625 C 20.039062 -38.492188 19.125 -34.421875 19.125 -28.671875 L 19.125 -2.96875 C 19.125 -2.019531 18.4375 -1.195312 17.0625 -0.5 C 15.695312 0.1875 14.09375 0.53125 12.25 0.53125 C 10.363281 0.53125 8.75 0.1875 7.40625 -0.5 C 6.0625 -1.195312 5.390625 -2.019531 5.390625 -2.96875 L 5.390625 -28.671875 C 5.390625 -33.472656 5.984375 -37.46875 7.171875 -40.65625 C 8.359375 -43.84375 9.914062 -46.398438 11.84375 -48.328125 C 13.78125 -50.265625 15.890625 -51.710938 18.171875 -52.671875 C 20.460938 -53.640625 22.753906 -54.28125 25.046875 -54.59375 C 27.335938 -54.90625 29.378906 -55.0625 31.171875 -55.0625 C 37.140625 -55.0625 42.019531 -53.984375 45.8125 -51.828125 C 49.601562 -49.679688 52.414062 -46.628906 54.25 -42.671875 C 56.09375 -38.722656 57.015625 -34.054688 57.015625 -28.671875 Z M 57.015625 -2.96875 "/></g></g><g transform="translate(355.442246, 283.675623)"><g><path d="M 57.015625 -2.96875 C 57.015625 -2.019531 56.34375 -1.195312 55 -0.5 C 53.65625 0.1875 52.039062 0.53125 50.15625 0.53125 C 48.269531 0.53125 46.648438 0.1875 45.296875 -0.5 C 43.953125 -1.195312 43.28125 -2.019531 43.28125 -2.96875 L 43.28125 -28.671875 C 43.28125 -34.421875 42.335938 -38.492188 40.453125 -40.890625 C 38.578125 -43.296875 35.484375 -44.5 31.171875 -44.5 C 26.816406 -44.5 23.71875 -43.296875 21.875 -40.890625 C 20.039062 -38.492188 19.125 -34.421875 19.125 -28.671875 L 19.125 -2.96875 C 19.125 -2.019531 18.4375 -1.195312 17.0625 -0.5 C 15.695312 0.1875 14.09375 0.53125 12.25 0.53125 C 10.363281 0.53125 8.75 0.1875 7.40625 -0.5 C 6.0625 -1.195312 5.390625 -2.019531 5.390625 -2.96875 L 5.390625 -28.671875 C 5.390625 -33.472656 5.984375 -37.46875 7.171875 -40.65625 C 8.359375 -43.84375 9.914062 -46.398438 11.84375 -48.328125 C 13.78125 -50.265625 15.890625 -51.710938 18.171875 -52.671875 C 20.460938 -53.640625 22.753906 -54.28125 25.046875 -54.59375 C 27.335938 -54.90625 29.378906 -55.0625 31.171875 -55.0625 C 37.140625 -55.0625 42.019531 -53.984375 45.8125 -51.828125 C 49.601562 -49.679688 52.414062 -46.628906 54.25 -42.671875 C 56.09375 -38.722656 57.015625 -34.054688 57.015625 -28.671875 Z M 57.015625 -2.96875 "/></g></g><g transform="translate(417.847706, 283.675623)"><g><path d="M 51.296875 -32.375 L 51.296875 -27.796875 C 51.296875 -26.992188 51.023438 -26.164062 50.484375 -25.3125 C 49.953125 -24.457031 49.191406 -23.75 48.203125 -23.1875 C 47.210938 -22.625 46.046875 -22.34375 44.703125 -22.34375 L 16.765625 -22.34375 C 17.078125 -19.925781 17.601562 -17.796875 18.34375 -15.953125 C 19.082031 -14.109375 20.210938 -12.679688 21.734375 -11.671875 C 23.265625 -10.671875 25.351562 -10.171875 28 -10.171875 C 29.800781 -10.171875 31.597656 -10.628906 33.390625 -11.546875 C 35.179688 -12.460938 36.503906 -13.953125 37.359375 -16.015625 C 37.722656 -16.867188 38.394531 -17.441406 39.375 -17.734375 C 40.363281 -18.023438 41.40625 -18.132812 42.5 -18.0625 C 43.601562 -18 44.539062 -17.835938 45.3125 -17.578125 C 46.925781 -17.117188 48.25 -16.40625 49.28125 -15.4375 C 50.3125 -14.476562 50.671875 -13.597656 50.359375 -12.796875 C 49.015625 -9.828125 47.441406 -7.46875 45.640625 -5.71875 C 43.847656 -3.96875 41.941406 -2.644531 39.921875 -1.75 C 37.898438 -0.851562 35.867188 -0.257812 33.828125 0.03125 C 31.785156 0.320312 29.84375 0.46875 28 0.46875 C 23.289062 0.46875 19.332031 -0.203125 16.125 -1.546875 C 12.914062 -2.890625 10.332031 -4.804688 8.375 -7.296875 C 6.425781 -9.796875 5.015625 -12.738281 4.140625 -16.125 C 3.265625 -19.507812 2.828125 -23.222656 2.828125 -27.265625 C 2.828125 -30.859375 3.226562 -34.300781 4.03125 -37.59375 C 4.84375 -40.894531 6.164062 -43.867188 8 -46.515625 C 9.84375 -49.160156 12.347656 -51.242188 15.515625 -52.765625 C 18.679688 -54.296875 22.617188 -55.0625 27.328125 -55.0625 C 30.335938 -55.0625 33.265625 -54.613281 36.109375 -53.71875 C 38.960938 -52.820312 41.535156 -51.453125 43.828125 -49.609375 C 46.117188 -47.773438 47.9375 -45.421875 49.28125 -42.546875 C 50.625 -39.671875 51.296875 -36.28125 51.296875 -32.375 Z M 27.328125 -44.5 C 23.921875 -44.5 21.441406 -43.398438 19.890625 -41.203125 C 18.347656 -39.003906 17.304688 -36.039062 16.765625 -32.3125 L 37.5625 -32.3125 L 37.5625 -32.375 C 37.5625 -35.164062 37.144531 -37.378906 36.3125 -39.015625 C 35.488281 -40.648438 34.492188 -41.859375 33.328125 -42.640625 C 32.160156 -43.429688 31.015625 -43.9375 29.890625 -44.15625 C 28.765625 -44.382812 27.910156 -44.5 27.328125 -44.5 Z M 27.328125 -44.5 "/></g></g><g transform="translate(471.97283, 283.675623)"><g><path d="M 45.3125 -17.578125 C 47.007812 -17.117188 48.363281 -16.40625 49.375 -15.4375 C 50.382812 -14.476562 50.734375 -13.570312 50.421875 -12.71875 C 48.765625 -8.226562 46.003906 -4.90625 42.140625 -2.75 C 38.285156 -0.601562 33.570312 0.46875 28 0.46875 C 23.332031 0.46875 19.382812 -0.203125 16.15625 -1.546875 C 12.925781 -2.890625 10.332031 -4.804688 8.375 -7.296875 C 6.425781 -9.796875 5.015625 -12.738281 4.140625 -16.125 C 3.265625 -19.507812 2.828125 -23.222656 2.828125 -27.265625 C 2.828125 -31.035156 3.253906 -34.59375 4.109375 -37.9375 C 4.960938 -41.28125 6.34375 -44.238281 8.25 -46.8125 C 10.15625 -49.394531 12.734375 -51.414062 15.984375 -52.875 C 19.242188 -54.332031 23.25 -55.0625 28 -55.0625 C 31.28125 -55.0625 34.390625 -54.578125 37.328125 -53.609375 C 40.265625 -52.648438 42.851562 -51.226562 45.09375 -49.34375 C 47.34375 -47.457031 49.050781 -45.125 50.21875 -42.34375 C 50.53125 -41.625 50.257812 -40.75 49.40625 -39.71875 C 48.5625 -38.6875 47.421875 -37.8125 45.984375 -37.09375 C 45.347656 -36.820312 44.4375 -36.609375 43.25 -36.453125 C 42.0625 -36.296875 40.925781 -36.316406 39.84375 -36.515625 C 38.769531 -36.722656 38.035156 -37.207031 37.640625 -37.96875 C 36.515625 -40.125 35.195312 -41.75 33.6875 -42.84375 C 32.1875 -43.945312 30.289062 -44.5 28 -44.5 C 24.8125 -44.5 22.398438 -43.742188 20.765625 -42.234375 C 19.128906 -40.734375 18.03125 -38.679688 17.46875 -36.078125 C 16.90625 -33.484375 16.625 -30.546875 16.625 -27.265625 C 16.625 -24.972656 16.75 -22.804688 17 -20.765625 C 17.25 -18.722656 17.765625 -16.90625 18.546875 -15.3125 C 19.328125 -13.71875 20.46875 -12.460938 21.96875 -11.546875 C 23.476562 -10.628906 25.488281 -10.171875 28 -10.171875 C 29.84375 -10.171875 31.671875 -10.617188 33.484375 -11.515625 C 35.304688 -12.410156 36.625 -13.890625 37.4375 -15.953125 C 37.789062 -16.804688 38.4375 -17.378906 39.375 -17.671875 C 40.320312 -17.960938 41.34375 -18.070312 42.4375 -18 C 43.539062 -17.9375 44.5 -17.796875 45.3125 -17.578125 Z M 45.3125 -17.578125 "/></g></g><g transform="translate(524.616918, 283.675623)"><g><path d="M 44.90625 -14.40625 C 44.90625 -11.394531 44.160156 -8.769531 42.671875 -6.53125 C 41.191406 -4.289062 39.128906 -2.550781 36.484375 -1.3125 C 33.835938 -0.0820312 30.742188 0.53125 27.203125 0.53125 C 21.492188 0.53125 17.113281 -0.992188 14.0625 -4.046875 C 11.019531 -7.097656 9.5 -11.40625 9.5 -16.96875 L 9.5 -43.359375 L 5.515625 -43.359375 C 4.128906 -43.359375 3.175781 -43.835938 2.65625 -44.796875 C 2.144531 -45.765625 1.890625 -46.945312 1.890625 -48.34375 C 1.890625 -49.6875 2.144531 -50.828125 2.65625 -51.765625 C 3.175781 -52.710938 4.128906 -53.1875 5.515625 -53.1875 L 9.5 -53.1875 L 9.5 -63.078125 C 9.5 -63.972656 10.191406 -64.757812 11.578125 -65.4375 C 12.972656 -66.113281 14.566406 -66.453125 16.359375 -66.453125 C 18.203125 -66.453125 19.804688 -66.113281 21.171875 -65.4375 C 22.535156 -64.757812 23.21875 -63.972656 23.21875 -63.078125 L 23.21875 -53.1875 L 31.375 -53.1875 C 32.71875 -53.1875 33.632812 -52.710938 34.125 -51.765625 C 34.625 -50.828125 34.875 -49.6875 34.875 -48.34375 C 34.875 -46.945312 34.625 -45.765625 34.125 -44.796875 C 33.632812 -43.835938 32.71875 -43.359375 31.375 -43.359375 L 23.21875 -43.359375 L 23.21875 -16.96875 C 23.21875 -15.882812 23.296875 -14.816406 23.453125 -13.765625 C 23.617188 -12.710938 23.976562 -11.835938 24.53125 -11.140625 C 25.09375 -10.441406 25.984375 -10.09375 27.203125 -10.09375 C 28.546875 -10.09375 29.484375 -10.375 30.015625 -10.9375 C 30.554688 -11.5 30.882812 -12.113281 31 -12.78125 C 31.113281 -13.457031 31.171875 -13.976562 31.171875 -14.34375 C 31.171875 -15.28125 31.796875 -16.082031 33.046875 -16.75 C 34.304688 -17.425781 35.96875 -17.765625 38.03125 -17.765625 C 39.914062 -17.765625 41.53125 -17.441406 42.875 -16.796875 C 44.226562 -16.148438 44.90625 -15.351562 44.90625 -14.40625 Z M 44.90625 -14.40625 "/></g></g></g></svg>