<svg xmlns="http://www.w3.org/2000/svg" xmlns:xlink="http://www.w3.org/1999/xlink" width="2118" zoomAndPan="magnify" viewBox="0 0 1588.5 613.499987" height="818" preserveAspectRatio="xMidYMid meet" version="1.0"><defs><g/><clipPath id="7f973bac0f"><path d="M 836 118 L 912 118 L 912 155 L 836 155 Z M 836 118 " clip-rule="nonzero"/></clipPath><clipPath id="1662f24615"><path d="M 947.816406 0 L 1152.714844 422.003906 L 759.699219 612.828125 L 554.800781 190.824219 Z M 947.816406 0 " clip-rule="nonzero"/></clipPath><clipPath id="13acebaf40"><path d="M 947.816406 0 L 1152.714844 422.003906 L 759.699219 612.828125 L 554.800781 190.824219 Z M 947.816406 0 " clip-rule="nonzero"/></clipPath><clipPath id="b4ecec24c3"><path d="M 855 99 L 893 99 L 893 174 L 855 174 Z M 855 99 " clip-rule="nonzero"/></clipPath><clipPath id="a45751a56c"><path d="M 947.816406 0 L 1152.714844 422.003906 L 759.699219 612.828125 L 554.800781 190.824219 Z M 947.816406 0 " clip-rule="nonzero"/></clipPath><clipPath id="9857a0b307"><path d="M 947.816406 0 L 1152.714844 422.003906 L 759.699219 612.828125 L 554.800781 190.824219 Z M 947.816406 0 " clip-rule="nonzero"/></clipPath><clipPath id="60149148dc"><path d="M 711 121 L 758 121 L 758 144 L 711 144 Z M 711 121 " clip-rule="nonzero"/></clipPath><clipPath id="16ae0c5e1d"><path d="M 947.816406 0 L 1152.714844 422.003906 L 759.699219 612.828125 L 554.800781 190.824219 Z M 947.816406 0 " clip-rule="nonzero"/></clipPath><clipPath id="b8c8a3fef5"><path d="M 947.816406 0 L 1152.714844 422.003906 L 759.699219 612.828125 L 554.800781 190.824219 Z M 947.816406 0 " clip-rule="nonzero"/></clipPath><clipPath id="00578f5ecf"><path d="M 723 109 L 746 109 L 746 157 L 723 157 Z M 723 109 " clip-rule="nonzero"/></clipPath><clipPath id="398b7f9652"><path d="M 947.816406 0 L 1152.714844 422.003906 L 759.699219 612.828125 L 554.800781 190.824219 Z M 947.816406 0 " clip-rule="nonzero"/></clipPath><clipPath id="246a2d2dcc"><path d="M 947.816406 0 L 1152.714844 422.003906 L 759.699219 612.828125 L 554.800781 190.824219 Z M 947.816406 0 " clip-rule="nonzero"/></clipPath><clipPath id="81d072cf81"><path d="M 858 270 L 906 270 L 906 294 L 858 294 Z M 858 270 " clip-rule="nonzero"/></clipPath><clipPath id="64da4c6c49"><path d="M 947.816406 0 L 1152.714844 422.003906 L 759.699219 612.828125 L 554.800781 190.824219 Z M 947.816406 0 " clip-rule="nonzero"/></clipPath><clipPath id="df61df64de"><path d="M 947.816406 0 L 1152.714844 422.003906 L 759.699219 612.828125 L 554.800781 190.824219 Z M 947.816406 0 " clip-rule="nonzero"/></clipPath><clipPath id="41138c17f3"><path d="M 870 258 L 894 258 L 894 306 L 870 306 Z M 870 258 " clip-rule="nonzero"/></clipPath><clipPath id="b309f2b3a0"><path d="M 947.816406 0 L 1152.714844 422.003906 L 759.699219 612.828125 L 554.800781 190.824219 Z M 947.816406 0 " clip-rule="nonzero"/></clipPath><clipPath id="d6d8b84dcc"><path d="M 947.816406 0 L 1152.714844 422.003906 L 759.699219 612.828125 L 554.800781 190.824219 Z M 947.816406 0 " clip-rule="nonzero"/></clipPath><clipPath id="0e49799c5b"><path d="M 878 517 L 906 517 L 906 545 L 878 545 Z M 878 517 " clip-rule="nonzero"/></clipPath><clipPath id="f9341ec924"><path d="M 947.816406 0 L 1152.714844 422.003906 L 759.699219 612.828125 L 554.800781 190.824219 Z M 947.816406 0 " clip-rule="nonzero"/></clipPath><clipPath id="aa47e0ea59"><path d="M 947.816406 0 L 1152.714844 422.003906 L 759.699219 612.828125 L 554.800781 190.824219 Z M 947.816406 0 " clip-rule="nonzero"/></clipPath><clipPath id="a299516276"><path d="M 886 478 L 908 478 L 908 500 L 886 500 Z M 886 478 " clip-rule="nonzero"/></clipPath><clipPath id="edfe473fb0"><path d="M 947.816406 0 L 1152.714844 422.003906 L 759.699219 612.828125 L 554.800781 190.824219 Z M 947.816406 0 " clip-rule="nonzero"/></clipPath><clipPath id="92e728bb2d"><path d="M 947.816406 0 L 1152.714844 422.003906 L 759.699219 612.828125 L 554.800781 190.824219 Z M 947.816406 0 " clip-rule="nonzero"/></clipPath><clipPath id="9fb040d3bb"><path d="M 931 446 L 953 446 L 953 468 L 931 468 Z M 931 446 " clip-rule="nonzero"/></clipPath><clipPath id="f6dc1ad607"><path d="M 947.816406 0 L 1152.714844 422.003906 L 759.699219 612.828125 L 554.800781 190.824219 Z M 947.816406 0 " clip-rule="nonzero"/></clipPath><clipPath id="a4d415b206"><path d="M 947.816406 0 L 1152.714844 422.003906 L 759.699219 612.828125 L 554.800781 190.824219 Z M 947.816406 0 " clip-rule="nonzero"/></clipPath><clipPath id="bf46ea0b48"><path d="M 834 510 L 851 510 L 851 527 L 834 527 Z M 834 510 " clip-rule="nonzero"/></clipPath><clipPath id="1fd1117004"><path d="M 947.816406 0 L 1152.714844 422.003906 L 759.699219 612.828125 L 554.800781 190.824219 Z M 947.816406 0 " clip-rule="nonzero"/></clipPath><clipPath id="e15e7d681f"><path d="M 947.816406 0 L 1152.714844 422.003906 L 759.699219 612.828125 L 554.800781 190.824219 Z M 947.816406 0 " clip-rule="nonzero"/></clipPath><clipPath id="ba748aaaca"><path d="M 779 490 L 793 490 L 793 503 L 779 503 Z M 779 490 " clip-rule="nonzero"/></clipPath><clipPath id="d34cb3397f"><path d="M 947.816406 0 L 1152.714844 422.003906 L 759.699219 612.828125 L 554.800781 190.824219 Z M 947.816406 0 " clip-rule="nonzero"/></clipPath><clipPath id="c22278ea9e"><path d="M 947.816406 0 L 1152.714844 422.003906 L 759.699219 612.828125 L 554.800781 190.824219 Z M 947.816406 0 " clip-rule="nonzero"/></clipPath><clipPath id="cadaf5cb28"><path d="M 891 408 L 905 408 L 905 421 L 891 421 Z M 891 408 " clip-rule="nonzero"/></clipPath><clipPath id="aa2a136af2"><path d="M 947.816406 0 L 1152.714844 422.003906 L 759.699219 612.828125 L 554.800781 190.824219 Z M 947.816406 0 " clip-rule="nonzero"/></clipPath><clipPath id="c5c1b63c6d"><path d="M 947.816406 0 L 1152.714844 422.003906 L 759.699219 612.828125 L 554.800781 190.824219 Z M 947.816406 0 " clip-rule="nonzero"/></clipPath><clipPath id="5ef8371e01"><path d="M 714 374 L 959 374 L 959 481 L 714 481 Z M 714 374 " clip-rule="nonzero"/></clipPath><clipPath id="5a6317a3eb"><path d="M 947.816406 0 L 1152.714844 422.003906 L 759.699219 612.828125 L 554.800781 190.824219 Z M 947.816406 0 " clip-rule="nonzero"/></clipPath><clipPath id="ff70da72e3"><path d="M 947.816406 0 L 1152.714844 422.003906 L 759.699219 612.828125 L 554.800781 190.824219 Z M 947.816406 0 " clip-rule="nonzero"/></clipPath><clipPath id="80634325d9"><path d="M 724 234 L 806 234 L 806 401 L 724 401 Z M 724 234 " clip-rule="nonzero"/></clipPath><clipPath id="f8bd9a268d"><path d="M 947.816406 0 L 1152.714844 422.003906 L 759.699219 612.828125 L 554.800781 190.824219 Z M 947.816406 0 " clip-rule="nonzero"/></clipPath><clipPath id="b41c8ab8b1"><path d="M 947.816406 0 L 1152.714844 422.003906 L 759.699219 612.828125 L 554.800781 190.824219 Z M 947.816406 0 " clip-rule="nonzero"/></clipPath><clipPath id="3852cbbe16"><path d="M 656 163 L 886 163 L 886 463 L 656 463 Z M 656 163 " clip-rule="nonzero"/></clipPath><clipPath id="dcdf5f2132"><path d="M 947.816406 0 L 1152.714844 422.003906 L 759.699219 612.828125 L 554.800781 190.824219 Z M 947.816406 0 " clip-rule="nonzero"/></clipPath><clipPath id="35f3f0b62d"><path d="M 947.816406 0 L 1152.714844 422.003906 L 759.699219 612.828125 L 554.800781 190.824219 Z M 947.816406 0 " clip-rule="nonzero"/></clipPath><clipPath id="6e7d1f6c1c"><path d="M 768 157 L 813 157 L 813 272 L 768 272 Z M 768 157 " clip-rule="nonzero"/></clipPath><clipPath id="dfa9694a2b"><path d="M 947.816406 0 L 1152.714844 422.003906 L 759.699219 612.828125 L 554.800781 190.824219 Z M 947.816406 0 " clip-rule="nonzero"/></clipPath><clipPath id="5e0e7e54f2"><path d="M 947.816406 0 L 1152.714844 422.003906 L 759.699219 612.828125 L 554.800781 190.824219 Z M 947.816406 0 " clip-rule="nonzero"/></clipPath><clipPath id="d7701c9059"><path d="M 770 149 L 819 149 L 819 291 L 770 291 Z M 770 149 " clip-rule="nonzero"/></clipPath><clipPath id="e6ca72c8eb"><path d="M 947.816406 0 L 1152.714844 422.003906 L 759.699219 612.828125 L 554.800781 190.824219 Z M 947.816406 0 " clip-rule="nonzero"/></clipPath><clipPath id="31af0188ea"><path d="M 947.816406 0 L 1152.714844 422.003906 L 759.699219 612.828125 L 554.800781 190.824219 Z M 947.816406 0 " clip-rule="nonzero"/></clipPath><clipPath id="dd6086b299"><path d="M 800 145 L 835 145 L 835 283 L 800 283 Z M 800 145 " clip-rule="nonzero"/></clipPath><clipPath id="8f56eced89"><path d="M 947.816406 0 L 1152.714844 422.003906 L 759.699219 612.828125 L 554.800781 190.824219 Z M 947.816406 0 " clip-rule="nonzero"/></clipPath><clipPath id="0097792d50"><path d="M 947.816406 0 L 1152.714844 422.003906 L 759.699219 612.828125 L 554.800781 190.824219 Z M 947.816406 0 " clip-rule="nonzero"/></clipPath><clipPath id="071f116608"><path d="M 819 169 L 1034 169 L 1034 225 L 819 225 Z M 819 169 " clip-rule="nonzero"/></clipPath><clipPath id="bc06ceab1f"><path d="M 947.816406 0 L 1152.714844 422.003906 L 759.699219 612.828125 L 554.800781 190.824219 Z M 947.816406 0 " clip-rule="nonzero"/></clipPath><clipPath id="7ce4ce1d94"><path d="M 947.816406 0 L 1152.714844 422.003906 L 759.699219 612.828125 L 554.800781 190.824219 Z M 947.816406 0 " clip-rule="nonzero"/></clipPath></defs><g clip-path="url(#7f973bac0f)"><g clip-path="url(#1662f24615)"><g clip-path="url(#13acebaf40)"><path fill="#ffffff" d="M 911.210938 118.625 L 876.953125 142.707031 L 836.839844 154.738281 L 871.101562 130.65625 Z M 911.210938 118.625 " fill-opacity="1" fill-rule="nonzero"/></g></g></g><g clip-path="url(#b4ecec24c3)"><g clip-path="url(#a45751a56c)"><g clip-path="url(#9857a0b307)"><path fill="#ffffff" d="M 855.96875 99.496094 L 880.050781 133.753906 L 892.082031 173.867188 L 868 139.605469 Z M 855.96875 99.496094 " fill-opacity="1" fill-rule="nonzero"/></g></g></g><g clip-path="url(#60149148dc)"><g clip-path="url(#16ae0c5e1d)"><g clip-path="url(#b8c8a3fef5)"><path fill="#ffffff" d="M 757.863281 121.214844 L 736.277344 136.382812 L 711.007812 143.964844 L 732.589844 128.792969 Z M 757.863281 121.214844 " fill-opacity="1" fill-rule="nonzero"/></g></g></g><g clip-path="url(#00578f5ecf)"><g clip-path="url(#398b7f9652)"><g clip-path="url(#246a2d2dcc)"><path fill="#ffffff" d="M 723.058594 109.160156 L 738.230469 130.746094 L 745.808594 156.015625 L 730.640625 134.433594 Z M 723.058594 109.160156 " fill-opacity="1" fill-rule="nonzero"/></g></g></g><g clip-path="url(#81d072cf81)"><g clip-path="url(#64da4c6c49)"><g clip-path="url(#df61df64de)"><path fill="#ffffff" d="M 905.339844 270.820312 L 883.753906 285.992188 L 858.488281 293.570312 L 880.070312 278.402344 Z M 905.339844 270.820312 " fill-opacity="1" fill-rule="nonzero"/></g></g></g><g clip-path="url(#41138c17f3)"><g clip-path="url(#b309f2b3a0)"><g clip-path="url(#d6d8b84dcc)"><path fill="#ffffff" d="M 870.539062 258.769531 L 885.707031 280.355469 L 893.289062 305.625 L 878.117188 284.039062 Z M 870.539062 258.769531 " fill-opacity="1" fill-rule="nonzero"/></g></g></g><g clip-path="url(#0e49799c5b)"><g clip-path="url(#f9341ec924)"><g clip-path="url(#aa47e0ea59)"><path fill="#ffffff" d="M 878.648438 530.644531 C 878.585938 538.171875 884.632812 544.316406 892.144531 544.386719 C 899.667969 544.460938 905.832031 538.433594 905.894531 530.910156 C 905.972656 523.390625 899.941406 517.230469 892.417969 517.164062 C 884.890625 517.082031 878.738281 523.121094 878.648438 530.644531 Z M 883.5625 525.226562 C 885.441406 539.71875 900.855469 536.464844 900.855469 536.464844 C 895.910156 542.460938 886.566406 541.21875 883.601562 535.871094 C 880.632812 530.507812 883.5625 525.226562 883.5625 525.226562 Z M 883.5625 525.226562 " fill-opacity="1" fill-rule="nonzero"/></g></g></g><g clip-path="url(#a299516276)"><g clip-path="url(#edfe473fb0)"><g clip-path="url(#92e728bb2d)"><path fill="#ffffff" d="M 886.015625 488.859375 C 885.964844 494.878906 890.800781 499.796875 896.8125 499.855469 C 902.832031 499.914062 907.761719 495.089844 907.8125 489.074219 C 907.871094 483.054688 903.050781 478.128906 897.035156 478.074219 C 891.007812 478.007812 886.085938 482.84375 886.015625 488.859375 Z M 889.945312 484.523438 C 891.449219 496.117188 903.78125 493.519531 903.78125 493.519531 C 899.824219 498.316406 892.351562 497.320312 889.976562 493.039062 C 887.601562 488.75 889.945312 484.523438 889.945312 484.523438 Z M 889.945312 484.523438 " fill-opacity="1" fill-rule="nonzero"/></g></g></g><g clip-path="url(#9fb040d3bb)"><g clip-path="url(#f6dc1ad607)"><g clip-path="url(#a4d415b206)"><path fill="#ffffff" d="M 942.066406 467.019531 C 936.335938 466.964844 931.753906 462.285156 931.808594 456.5625 C 931.867188 450.84375 936.554688 446.253906 942.273438 446.3125 C 947.980469 446.363281 952.578125 451.054688 952.519531 456.769531 C 952.460938 462.488281 947.777344 467.082031 942.066406 467.019531 Z M 942.066406 467.019531 " fill-opacity="1" fill-rule="nonzero"/></g></g></g><g clip-path="url(#bf46ea0b48)"><g clip-path="url(#1fd1117004)"><g clip-path="url(#e15e7d681f)"><path fill="#ffffff" d="M 834.460938 518.210938 C 834.507812 513.824219 838.097656 510.304688 842.484375 510.34375 C 846.875 510.390625 850.394531 513.984375 850.351562 518.363281 C 850.316406 522.765625 846.71875 526.277344 842.328125 526.234375 C 837.941406 526.207031 834.425781 522.601562 834.460938 518.210938 Z M 834.460938 518.210938 " fill-opacity="1" fill-rule="nonzero"/></g></g></g><g clip-path="url(#ba748aaaca)"><g clip-path="url(#d34cb3397f)"><g clip-path="url(#c22278ea9e)"><path fill="#ffffff" d="M 785.839844 490.132812 C 789.324219 490.1875 792.117188 493.039062 792.078125 496.519531 C 792.042969 500 789.199219 502.796875 785.71875 502.757812 C 782.234375 502.726562 779.445312 499.871094 779.488281 496.386719 C 779.515625 492.917969 782.375 490.121094 785.839844 490.132812 Z M 785.839844 490.132812 " fill-opacity="1" fill-rule="nonzero"/></g></g></g><g clip-path="url(#cadaf5cb28)"><g clip-path="url(#aa2a136af2)"><g clip-path="url(#c5c1b63c6d)"><path fill="#ffffff" d="M 898.273438 408.371094 C 901.75 408.410156 904.542969 411.257812 904.503906 414.742188 C 904.472656 418.21875 901.617188 421.007812 898.132812 420.976562 C 894.65625 420.945312 891.867188 418.09375 891.902344 414.621094 C 891.9375 411.132812 894.789062 408.339844 898.273438 408.371094 Z M 898.273438 408.371094 " fill-opacity="1" fill-rule="nonzero"/></g></g></g><g clip-path="url(#5ef8371e01)"><g clip-path="url(#5a6317a3eb)"><g clip-path="url(#ff70da72e3)"><path fill="#ffffff" d="M 939.398438 386.246094 C 927.65625 409.964844 857.519531 519.425781 714.390625 446.488281 C 714.390625 446.488281 746.171875 473.941406 804.46875 480.265625 C 862.78125 486.59375 924.78125 451.035156 948.171875 413.457031 C 971.550781 375.878906 951.132812 362.527344 939.398438 386.246094 Z M 905.878906 448.558594 C 923 434 941.136719 404.28125 943.695312 397.46875 C 946.253906 390.648438 950.34375 392.183594 950.34375 392.183594 C 945.742188 423.097656 905.878906 448.558594 905.878906 448.558594 Z M 905.878906 448.558594 " fill-opacity="1" fill-rule="nonzero"/></g></g></g><g clip-path="url(#80634325d9)"><g clip-path="url(#f8bd9a268d)"><g clip-path="url(#b41c8ab8b1)"><path fill="#ffffff" d="M 798.511719 234.101562 C 798.511719 234.101562 767.273438 241.421875 746.875 268.050781 C 724.925781 296.703125 708.507812 344.617188 749.042969 400.921875 C 749.042969 400.921875 729.714844 370.671875 740.691406 322.867188 C 749.871094 282.867188 779.601562 267.195312 805.433594 263.984375 Z M 798.511719 234.101562 " fill-opacity="1" fill-rule="nonzero"/></g></g></g><g clip-path="url(#3852cbbe16)"><g clip-path="url(#dcdf5f2132)"><g clip-path="url(#35f3f0b62d)"><path fill="#ffffff" d="M 878.914062 438.910156 C 883.265625 434.8125 887.21875 427.816406 884.375 424.425781 C 881.503906 421.023438 875.914062 421.289062 872.984375 423.003906 C 863.851562 430.90625 848.585938 441.980469 830.039062 444.070312 C 758.726562 452.132812 679.625 359.292969 728.671875 276.476562 C 745.34375 248.324219 772.171875 231.042969 801.789062 223.992188 L 799.863281 213.488281 C 754.617188 223.496094 716.394531 253.164062 706.804688 299.277344 C 692.132812 369.835938 735.253906 413.824219 735.253906 413.824219 C 683.878906 373.035156 671.527344 292.34375 732.066406 237.871094 C 753.144531 218.90625 776.8125 210.335938 798.710938 207.210938 L 793.09375 163.90625 C 677.257812 173.847656 618.335938 321.460938 682.457031 406.4375 C 733.425781 473.984375 831.726562 474.574219 878.914062 438.910156 Z M 675.019531 354.03125 C 656.882812 276.585938 712.039062 219.050781 740.894531 210.296875 C 740.894531 210.296875 697.863281 235.328125 683.023438 302.320312 C 669.425781 363.699219 717.03125 428.445312 778.476562 449.589844 C 778.476562 449.589844 693.164062 431.492188 675.019531 354.03125 Z M 675.019531 354.03125 " fill-opacity="1" fill-rule="nonzero"/></g></g></g><g clip-path="url(#6e7d1f6c1c)"><g clip-path="url(#dfa9694a2b)"><g clip-path="url(#5e0e7e54f2)"><path fill="#ffffff" d="M 768.5625 165.707031 L 786.582031 271.007812 L 812.542969 265.757812 L 795.675781 157.140625 Z M 768.5625 165.707031 " fill-opacity="1" fill-rule="nonzero"/></g></g></g><g clip-path="url(#d7701c9059)"><g clip-path="url(#e6ca72c8eb)"><g clip-path="url(#31af0188ea)"><path fill="#ffffff" d="M 770.722656 149.03125 L 794.769531 290.757812 L 818.65625 278.671875 L 808.394531 217.6875 L 808.402344 217.6875 L 808.042969 215.601562 L 807.691406 213.515625 L 807.6875 213.515625 L 797.257812 152.5625 Z M 770.722656 149.03125 " fill-opacity="1" fill-rule="nonzero"/></g></g></g><g clip-path="url(#dd6086b299)"><g clip-path="url(#8f56eced89)"><g clip-path="url(#0097792d50)"><path fill="#ffffff" d="M 808.234375 145.710938 L 800.699219 146.992188 L 823.738281 282.796875 L 831.277344 281.515625 C 831.277344 281.515625 835.363281 281.101562 834.855469 276.480469 L 813.273438 149.289062 C 812.226562 144.757812 808.234375 145.710938 808.234375 145.710938 Z M 808.234375 145.710938 " fill-opacity="1" fill-rule="nonzero"/></g></g></g><g clip-path="url(#071f116608)"><g clip-path="url(#bc06ceab1f)"><g clip-path="url(#7ce4ce1d94)"><path fill="#ffffff" d="M 819.210938 200.878906 L 820.832031 212.484375 L 820.8125 212.488281 L 820.875 212.816406 L 820.925781 213.144531 L 820.945312 213.144531 L 823.242188 224.632812 C 847.378906 210.195312 964.648438 198.425781 1000.785156 193.769531 C 1031.980469 189.75 1033.269531 179.800781 1033.042969 177.15625 C 1033.042969 177.15625 1033.039062 177.035156 1033 176.824219 C 1032.96875 176.613281 1032.929688 176.5 1032.929688 176.5 L 1032.933594 176.5 C 1032.277344 173.925781 1027.773438 164.957031 996.996094 171.453125 C 961.347656 178.976562 846.757812 206.546875 819.210938 200.878906 Z M 819.210938 200.878906 " fill-opacity="1" fill-rule="nonzero"/></g></g></g><g fill="#ffffff" fill-opacity="1"><g transform="translate(157.228616, 381.753834)"><g><path d="M 172.53125 -80.25 L 172.53125 -6.09375 C 172.53125 -4.0625 171.117188 -2.328125 168.296875 -0.890625 C 165.484375 0.535156 162.050781 1.25 158 1.25 C 154.03125 1.25 150.640625 0.535156 147.828125 -0.890625 C 145.015625 -2.328125 143.609375 -4.0625 143.609375 -6.09375 L 143.609375 -80.25 C 143.609375 -83.5625 143.375 -87.128906 142.90625 -90.953125 C 142.445312 -94.785156 141.617188 -98.382812 140.421875 -101.75 C 139.222656 -105.125 137.492188 -107.894531 135.234375 -110.0625 C 132.972656 -112.226562 130.046875 -113.3125 126.453125 -113.3125 C 119.441406 -113.3125 114.390625 -110.703125 111.296875 -105.484375 C 108.210938 -100.273438 106.578125 -91.863281 106.390625 -80.25 L 106.390625 -6.09375 C 106.390625 -4.0625 105.003906 -2.328125 102.234375 -0.890625 C 99.472656 0.535156 96.109375 1.25 92.140625 1.25 C 87.992188 1.25 84.554688 0.535156 81.828125 -0.890625 C 79.109375 -2.328125 77.75 -4.0625 77.75 -6.09375 L 77.75 -80.25 C 77.75 -91.6875 76.203125 -100.054688 73.109375 -105.359375 C 70.023438 -110.660156 64.835938 -113.3125 57.546875 -113.3125 C 54.140625 -113.3125 51.304688 -112.296875 49.046875 -110.265625 C 46.785156 -108.234375 45.054688 -105.601562 43.859375 -102.375 C 42.660156 -99.144531 41.804688 -95.59375 41.296875 -91.71875 C 40.785156 -87.851562 40.53125 -84.03125 40.53125 -80.25 L 40.53125 -6.09375 C 40.53125 -4.0625 39.125 -2.328125 36.3125 -0.890625 C 33.5 0.535156 30.109375 1.25 26.140625 1.25 C 22.179688 1.25 18.796875 0.535156 15.984375 -0.890625 C 13.171875 -2.328125 11.765625 -4.0625 11.765625 -6.09375 L 11.765625 -80.25 C 11.765625 -85.40625 12.175781 -90.585938 13 -95.796875 C 13.832031 -101.015625 15.265625 -106 17.296875 -110.75 C 19.328125 -115.5 22.070312 -119.71875 25.53125 -123.40625 C 28.988281 -127.09375 33.34375 -130.019531 38.59375 -132.1875 C 43.851562 -134.363281 50.171875 -135.453125 57.546875 -135.453125 C 65.203125 -135.453125 71.820312 -134.550781 77.40625 -132.75 C 82.988281 -130.945312 87.851562 -127.972656 92 -123.828125 C 95.96875 -127.609375 100.925781 -130.488281 106.875 -132.46875 C 112.820312 -134.457031 119.347656 -135.453125 126.453125 -135.453125 C 135.398438 -135.453125 142.847656 -133.90625 148.796875 -130.8125 C 154.742188 -127.71875 159.445312 -123.539062 162.90625 -118.28125 C 166.363281 -113.03125 168.832031 -107.109375 170.3125 -100.515625 C 171.789062 -93.921875 172.53125 -87.164062 172.53125 -80.25 Z M 172.53125 -80.25 "/></g></g><g transform="translate(341.517805, 381.753834)"><g><path d="M 113.171875 -8.859375 C 113.628906 -6.828125 112.613281 -4.976562 110.125 -3.3125 C 107.632812 -1.65625 104.5 -0.503906 100.71875 0.140625 C 97.03125 0.503906 93.660156 0.25 90.609375 -0.625 C 87.566406 -1.5 85.769531 -2.859375 85.21875 -4.703125 L 84.8125 -6.359375 C 76.226562 -1.378906 66.128906 1.109375 54.515625 1.109375 C 46.390625 1.109375 39.375 -0.34375 33.46875 -3.25 C 27.570312 -6.15625 22.707031 -10.097656 18.875 -15.078125 C 15.050781 -20.054688 12.21875 -25.726562 10.375 -32.09375 C 8.53125 -38.457031 7.609375 -45.097656 7.609375 -52.015625 C 7.609375 -59.765625 8.4375 -67.28125 10.09375 -74.5625 C 11.757812 -81.851562 14.617188 -88.40625 18.671875 -94.21875 C 22.734375 -100.03125 28.289062 -104.640625 35.34375 -108.046875 C 42.40625 -111.460938 51.378906 -113.171875 62.265625 -113.171875 C 71.296875 -113.171875 79.335938 -111.53125 86.390625 -108.25 C 93.453125 -104.976562 99.007812 -100.273438 103.0625 -94.140625 C 107.125 -88.015625 109.15625 -80.660156 109.15625 -72.078125 L 109.15625 -42.203125 C 109.15625 -40.265625 109.269531 -37.75 109.5 -34.65625 C 109.726562 -31.5625 110.023438 -28.351562 110.390625 -25.03125 C 110.765625 -21.71875 111.207031 -18.609375 111.71875 -15.703125 C 112.226562 -12.796875 112.710938 -10.515625 113.171875 -8.859375 Z M 55.625 -21.171875 C 58.84375 -20.890625 62.160156 -21.28125 65.578125 -22.34375 C 68.992188 -23.40625 72.082031 -25.085938 74.84375 -27.390625 C 77.613281 -29.703125 79.644531 -32.5625 80.9375 -35.96875 L 80.9375 -72.078125 C 80.9375 -78.171875 79.296875 -82.921875 76.015625 -86.328125 C 72.742188 -89.742188 68.160156 -91.453125 62.265625 -91.453125 C 56.546875 -91.453125 51.976562 -90.367188 48.5625 -88.203125 C 45.144531 -86.035156 42.582031 -83.082031 40.875 -79.34375 C 39.175781 -75.601562 38.023438 -71.335938 37.421875 -66.546875 C 36.828125 -61.753906 36.484375 -56.773438 36.390625 -51.609375 C 36.296875 -47.085938 36.867188 -42.539062 38.109375 -37.96875 C 39.359375 -33.40625 41.410156 -29.554688 44.265625 -26.421875 C 47.128906 -23.285156 50.914062 -21.535156 55.625 -21.171875 Z M 55.625 -21.171875 "/></g></g><g transform="translate(461.748515, 381.753834)"><g><path d="M 46.34375 -106.109375 L 46.34375 -6.5 C 46.34375 -4.46875 45.097656 -2.664062 42.609375 -1.09375 C 40.117188 0.46875 36.660156 1.25 32.234375 1.25 C 28.265625 1.25 24.894531 0.535156 22.125 -0.890625 C 19.363281 -2.328125 17.984375 -4.015625 17.984375 -5.953125 L 17.984375 -106.109375 C 17.984375 -107.953125 19.363281 -109.585938 22.125 -111.015625 C 24.894531 -112.453125 28.265625 -113.171875 32.234375 -113.171875 C 36.015625 -113.171875 39.3125 -112.453125 42.125 -111.015625 C 44.9375 -109.585938 46.34375 -107.953125 46.34375 -106.109375 Z M 13.703125 -145 C 13.703125 -148.40625 14.53125 -151.515625 16.1875 -154.328125 C 17.84375 -157.140625 20.078125 -159.375 22.890625 -161.03125 C 25.703125 -162.695312 28.816406 -163.53125 32.234375 -163.53125 C 35.648438 -163.53125 38.765625 -162.695312 41.578125 -161.03125 C 44.390625 -159.375 46.644531 -157.140625 48.34375 -154.328125 C 50.050781 -151.515625 50.90625 -148.40625 50.90625 -145 C 50.90625 -141.582031 50.050781 -138.46875 48.34375 -135.65625 C 46.644531 -132.84375 44.390625 -130.582031 41.578125 -128.875 C 38.765625 -127.164062 35.648438 -126.3125 32.234375 -126.3125 C 28.816406 -126.3125 25.703125 -127.164062 22.890625 -128.875 C 20.078125 -130.582031 17.84375 -132.84375 16.1875 -135.65625 C 14.53125 -138.46875 13.703125 -141.582031 13.703125 -145 Z M 13.703125 -145 "/></g></g><g transform="translate(526.083704, 381.753834)"><g><path d="M 58.109375 -113.03125 C 62.078125 -113.03125 66.039062 -112.707031 70 -112.0625 C 73.96875 -111.414062 77.613281 -110.351562 80.9375 -108.875 L 80.9375 -145.125 C 80.9375 -146.96875 82.34375 -148.601562 85.15625 -150.03125 C 87.96875 -151.46875 91.265625 -152.1875 95.046875 -152.1875 C 98.921875 -152.1875 102.238281 -151.46875 105 -150.03125 C 107.769531 -148.601562 109.15625 -146.96875 109.15625 -145.125 L 109.15625 -42.203125 C 109.15625 -36.566406 109.523438 -30.867188 110.265625 -25.109375 C 111.003906 -19.347656 111.925781 -13.882812 113.03125 -8.71875 C 113.488281 -6.78125 112.492188 -5.003906 110.046875 -3.390625 C 107.609375 -1.773438 104.5 -0.597656 100.71875 0.140625 C 97.03125 0.597656 93.660156 0.367188 90.609375 -0.546875 C 87.566406 -1.472656 85.769531 -2.859375 85.21875 -4.703125 L 84.953125 -5.53125 C 80.984375 -3.320312 76.804688 -1.640625 72.421875 -0.484375 C 68.046875 0.671875 63.273438 1.25 58.109375 1.25 C 49.253906 1.25 41.617188 -0.363281 35.203125 -3.59375 C 28.796875 -6.820312 23.5625 -11.066406 19.5 -16.328125 C 15.445312 -21.585938 12.453125 -27.421875 10.515625 -33.828125 C 8.578125 -40.234375 7.609375 -46.617188 7.609375 -52.984375 C 7.609375 -60.640625 8.414062 -68.039062 10.03125 -75.1875 C 11.644531 -82.34375 14.34375 -88.78125 18.125 -94.5 C 21.90625 -100.21875 27.066406 -104.734375 33.609375 -108.046875 C 40.160156 -111.367188 48.328125 -113.03125 58.109375 -113.03125 Z M 36.109375 -53.40625 C 36.109375 -47.59375 36.84375 -42.21875 38.3125 -37.28125 C 39.789062 -32.351562 42.191406 -28.410156 45.515625 -25.453125 C 48.835938 -22.503906 53.265625 -21.03125 58.796875 -21.03125 C 63.773438 -21.03125 68.132812 -22.4375 71.875 -25.25 C 75.613281 -28.0625 78.679688 -31.585938 81.078125 -35.828125 C 80.984375 -37.023438 80.9375 -38.316406 80.9375 -39.703125 C 80.9375 -41.085938 80.9375 -42.378906 80.9375 -43.578125 L 80.9375 -76.375 C 78.070312 -81.257812 74.929688 -84.921875 71.515625 -87.359375 C 68.109375 -89.804688 63.867188 -91.03125 58.796875 -91.03125 C 53.535156 -91.03125 49.359375 -89.878906 46.265625 -87.578125 C 43.179688 -85.273438 40.925781 -82.226562 39.5 -78.4375 C 38.070312 -74.65625 37.148438 -70.570312 36.734375 -66.1875 C 36.316406 -61.8125 36.109375 -57.550781 36.109375 -53.40625 Z M 36.109375 -53.40625 "/></g></g></g><g fill="#ffffff" fill-opacity="1"><g transform="translate(829.586669, 382.668952)"><g><path d="M 59.5625 -113.0625 C 68.875 -113.0625 76.914062 -111.609375 83.6875 -108.703125 C 90.457031 -105.804688 96.050781 -101.773438 100.46875 -96.609375 C 104.894531 -91.453125 108.191406 -85.394531 110.359375 -78.4375 C 112.523438 -71.476562 113.609375 -63.992188 113.609375 -55.984375 C 113.609375 -43.722656 111.46875 -33.351562 107.1875 -24.875 C 102.90625 -16.394531 96.734375 -9.941406 88.671875 -5.515625 C 80.609375 -1.097656 70.90625 1.109375 59.5625 1.109375 C 42.25 1.109375 28.960938 -3.910156 19.703125 -13.953125 C 10.441406 -24.003906 5.8125 -38.015625 5.8125 -55.984375 C 5.8125 -74.410156 10.554688 -88.53125 20.046875 -98.34375 C 29.535156 -108.15625 42.707031 -113.0625 59.5625 -113.0625 Z M 59.5625 -20.734375 C 66.113281 -20.734375 71.273438 -22.296875 75.046875 -25.421875 C 78.828125 -28.554688 81.519531 -32.796875 83.125 -38.140625 C 84.738281 -43.484375 85.546875 -49.429688 85.546875 -55.984375 C 85.546875 -67.867188 83.453125 -76.734375 79.265625 -82.578125 C 75.078125 -88.429688 68.507812 -91.359375 59.5625 -91.359375 C 50.625 -91.359375 44.101562 -88.429688 40 -82.578125 C 35.90625 -76.734375 33.859375 -67.867188 33.859375 -55.984375 C 33.859375 -44.273438 35.90625 -35.472656 40 -29.578125 C 44.101562 -23.679688 50.625 -20.734375 59.5625 -20.734375 Z M 59.5625 -20.734375 "/></g></g><g transform="translate(949.002307, 382.668952)"><g><path d="M 117.0625 -6.078125 C 117.0625 -4.140625 115.679688 -2.457031 112.921875 -1.03125 C 110.160156 0.394531 106.84375 1.109375 102.96875 1.109375 C 99.101562 1.109375 95.785156 0.394531 93.015625 -1.03125 C 90.253906 -2.457031 88.875 -4.140625 88.875 -6.078125 L 88.875 -58.875 C 88.875 -70.675781 86.9375 -79.039062 83.0625 -83.96875 C 79.195312 -88.894531 72.84375 -91.359375 64 -91.359375 C 55.0625 -91.359375 48.703125 -88.894531 44.921875 -83.96875 C 41.140625 -79.039062 39.25 -70.675781 39.25 -58.875 L 39.25 -6.078125 C 39.25 -4.140625 37.84375 -2.457031 35.03125 -1.03125 C 32.226562 0.394531 28.9375 1.109375 25.15625 1.109375 C 21.28125 1.109375 17.960938 0.394531 15.203125 -1.03125 C 12.441406 -2.457031 11.0625 -4.140625 11.0625 -6.078125 L 11.0625 -58.875 C 11.0625 -68.738281 12.28125 -76.941406 14.71875 -83.484375 C 17.15625 -90.023438 20.351562 -95.273438 24.3125 -99.234375 C 28.28125 -103.203125 32.613281 -106.175781 37.3125 -108.15625 C 42.007812 -110.132812 46.707031 -111.445312 51.40625 -112.09375 C 56.113281 -112.738281 60.3125 -113.0625 64 -113.0625 C 76.25 -113.0625 86.265625 -110.847656 94.046875 -106.421875 C 101.835938 -102.003906 107.617188 -95.738281 111.390625 -87.625 C 115.171875 -79.519531 117.0625 -69.9375 117.0625 -58.875 Z M 117.0625 -6.078125 "/></g></g><g transform="translate(1077.125336, 382.668952)"><g><path d="M 117.0625 -6.078125 C 117.0625 -4.140625 115.679688 -2.457031 112.921875 -1.03125 C 110.160156 0.394531 106.84375 1.109375 102.96875 1.109375 C 99.101562 1.109375 95.785156 0.394531 93.015625 -1.03125 C 90.253906 -2.457031 88.875 -4.140625 88.875 -6.078125 L 88.875 -58.875 C 88.875 -70.675781 86.9375 -79.039062 83.0625 -83.96875 C 79.195312 -88.894531 72.84375 -91.359375 64 -91.359375 C 55.0625 -91.359375 48.703125 -88.894531 44.921875 -83.96875 C 41.140625 -79.039062 39.25 -70.675781 39.25 -58.875 L 39.25 -6.078125 C 39.25 -4.140625 37.84375 -2.457031 35.03125 -1.03125 C 32.226562 0.394531 28.9375 1.109375 25.15625 1.109375 C 21.28125 1.109375 17.960938 0.394531 15.203125 -1.03125 C 12.441406 -2.457031 11.0625 -4.140625 11.0625 -6.078125 L 11.0625 -58.875 C 11.0625 -68.738281 12.28125 -76.941406 14.71875 -83.484375 C 17.15625 -90.023438 20.351562 -95.273438 24.3125 -99.234375 C 28.28125 -103.203125 32.613281 -106.175781 37.3125 -108.15625 C 42.007812 -110.132812 46.707031 -111.445312 51.40625 -112.09375 C 56.113281 -112.738281 60.3125 -113.0625 64 -113.0625 C 76.25 -113.0625 86.265625 -110.847656 94.046875 -106.421875 C 101.835938 -102.003906 107.617188 -95.738281 111.390625 -87.625 C 115.171875 -79.519531 117.0625 -69.9375 117.0625 -58.875 Z M 117.0625 -6.078125 "/></g></g><g transform="translate(1205.248364, 382.668952)"><g><path d="M 105.3125 -66.484375 L 105.3125 -57.078125 C 105.3125 -55.421875 104.757812 -53.71875 103.65625 -51.96875 C 102.550781 -50.21875 100.984375 -48.765625 98.953125 -47.609375 C 96.929688 -46.460938 94.539062 -45.890625 91.78125 -45.890625 L 34.421875 -45.890625 C 35.066406 -40.910156 36.144531 -36.53125 37.65625 -32.75 C 39.175781 -28.976562 41.503906 -26.054688 44.640625 -23.984375 C 47.773438 -21.910156 52.0625 -20.875 57.5 -20.875 C 61.1875 -20.875 64.867188 -21.816406 68.546875 -23.703125 C 72.234375 -25.585938 74.953125 -28.648438 76.703125 -32.890625 C 77.441406 -34.640625 78.820312 -35.8125 80.84375 -36.40625 C 82.875 -37.007812 85.019531 -37.242188 87.28125 -37.109375 C 89.539062 -36.972656 91.453125 -36.628906 93.015625 -36.078125 C 96.335938 -35.148438 99.054688 -33.695312 101.171875 -31.71875 C 103.296875 -29.738281 104.035156 -27.921875 103.390625 -26.265625 C 100.617188 -20.179688 97.390625 -15.34375 93.703125 -11.75 C 90.023438 -8.15625 86.109375 -5.4375 81.953125 -3.59375 C 77.804688 -1.75 73.632812 -0.53125 69.4375 0.0625 C 65.25 0.664062 61.269531 0.96875 57.5 0.96875 C 47.820312 0.96875 39.6875 -0.410156 33.09375 -3.171875 C 26.507812 -5.941406 21.210938 -9.882812 17.203125 -15 C 13.203125 -20.113281 10.300781 -26.144531 8.5 -33.09375 C 6.707031 -40.050781 5.8125 -47.679688 5.8125 -55.984375 C 5.8125 -63.347656 6.640625 -70.414062 8.296875 -77.1875 C 9.953125 -83.957031 12.664062 -90.0625 16.4375 -95.5 C 20.21875 -100.9375 25.359375 -105.222656 31.859375 -108.359375 C 38.359375 -111.492188 46.441406 -113.0625 56.109375 -113.0625 C 62.285156 -113.0625 68.296875 -112.140625 74.140625 -110.296875 C 79.992188 -108.453125 85.269531 -105.640625 89.96875 -101.859375 C 94.675781 -98.085938 98.410156 -93.25 101.171875 -87.34375 C 103.929688 -81.445312 105.3125 -74.492188 105.3125 -66.484375 Z M 56.109375 -91.359375 C 49.109375 -91.359375 44.019531 -89.097656 40.84375 -84.578125 C 37.664062 -80.066406 35.523438 -73.988281 34.421875 -66.34375 L 77.125 -66.34375 L 77.125 -66.484375 C 77.125 -72.191406 76.269531 -76.726562 74.5625 -80.09375 C 72.863281 -83.457031 70.816406 -85.945312 68.421875 -87.5625 C 66.023438 -89.175781 63.671875 -90.210938 61.359375 -90.671875 C 59.054688 -91.128906 57.304688 -91.359375 56.109375 -91.359375 Z M 56.109375 -91.359375 "/></g></g><g transform="translate(1316.371251, 382.668952)"><g><path d="M 93.015625 -36.078125 C 96.515625 -35.148438 99.300781 -33.695312 101.375 -31.71875 C 103.445312 -29.738281 104.160156 -27.875 103.515625 -26.125 C 100.109375 -16.90625 94.441406 -10.082031 86.515625 -5.65625 C 78.597656 -1.238281 68.925781 0.96875 57.5 0.96875 C 47.914062 0.96875 39.804688 -0.410156 33.171875 -3.171875 C 26.535156 -5.941406 21.210938 -9.882812 17.203125 -15 C 13.203125 -20.113281 10.300781 -26.144531 8.5 -33.09375 C 6.707031 -40.050781 5.8125 -47.679688 5.8125 -55.984375 C 5.8125 -63.722656 6.6875 -71.023438 8.4375 -77.890625 C 10.1875 -84.753906 13.019531 -90.832031 16.9375 -96.125 C 20.851562 -101.425781 26.148438 -105.570312 32.828125 -108.5625 C 39.503906 -111.5625 47.726562 -113.0625 57.5 -113.0625 C 64.226562 -113.0625 70.609375 -112.066406 76.640625 -110.078125 C 82.671875 -108.097656 87.988281 -105.171875 92.59375 -101.296875 C 97.207031 -97.429688 100.710938 -92.644531 103.109375 -86.9375 C 103.753906 -85.457031 103.203125 -83.660156 101.453125 -81.546875 C 99.703125 -79.429688 97.351562 -77.632812 94.40625 -76.15625 C 93.113281 -75.601562 91.242188 -75.164062 88.796875 -74.84375 C 86.359375 -74.519531 84.03125 -74.566406 81.8125 -74.984375 C 79.601562 -75.398438 78.085938 -76.390625 77.265625 -77.953125 C 74.960938 -82.378906 72.265625 -85.71875 69.171875 -87.96875 C 66.085938 -90.226562 62.195312 -91.359375 57.5 -91.359375 C 50.957031 -91.359375 46.003906 -89.8125 42.640625 -86.71875 C 39.273438 -83.632812 37.015625 -79.421875 35.859375 -74.078125 C 34.710938 -68.734375 34.140625 -62.703125 34.140625 -55.984375 C 34.140625 -51.273438 34.390625 -46.820312 34.890625 -42.625 C 35.398438 -38.4375 36.460938 -34.707031 38.078125 -31.4375 C 39.691406 -28.164062 42.039062 -25.585938 45.125 -23.703125 C 48.207031 -21.816406 52.332031 -20.875 57.5 -20.875 C 61.269531 -20.875 65.019531 -21.796875 68.75 -23.640625 C 72.488281 -25.484375 75.1875 -28.519531 76.84375 -32.75 C 77.582031 -34.507812 78.914062 -35.6875 80.84375 -36.28125 C 82.78125 -36.875 84.878906 -37.101562 87.140625 -36.96875 C 89.398438 -36.832031 91.359375 -36.535156 93.015625 -36.078125 Z M 93.015625 -36.078125 "/></g></g><g transform="translate(1424.453461, 382.668952)"><g><path d="M 92.1875 -29.578125 C 92.1875 -23.398438 90.664062 -18.007812 87.625 -13.40625 C 84.582031 -8.800781 80.34375 -5.226562 74.90625 -2.6875 C 69.46875 -0.15625 63.113281 1.109375 55.84375 1.109375 C 44.132812 1.109375 35.144531 -2.019531 28.875 -8.28125 C 22.613281 -14.550781 19.484375 -23.398438 19.484375 -34.828125 L 19.484375 -89.015625 L 11.328125 -89.015625 C 8.472656 -89.015625 6.515625 -90.003906 5.453125 -91.984375 C 4.398438 -93.960938 3.875 -96.378906 3.875 -99.234375 C 3.875 -102.003906 4.398438 -104.351562 5.453125 -106.28125 C 6.515625 -108.21875 8.472656 -109.1875 11.328125 -109.1875 L 19.484375 -109.1875 L 19.484375 -129.5 C 19.484375 -131.34375 20.910156 -132.957031 23.765625 -134.34375 C 26.628906 -135.726562 29.90625 -136.421875 33.59375 -136.421875 C 37.363281 -136.421875 40.65625 -135.726562 43.46875 -134.34375 C 46.28125 -132.957031 47.6875 -131.34375 47.6875 -129.5 L 47.6875 -109.1875 L 64.40625 -109.1875 C 67.164062 -109.1875 69.050781 -108.21875 70.0625 -106.28125 C 71.082031 -104.351562 71.59375 -102.003906 71.59375 -99.234375 C 71.59375 -96.378906 71.082031 -93.960938 70.0625 -91.984375 C 69.050781 -90.003906 67.164062 -89.015625 64.40625 -89.015625 L 47.6875 -89.015625 L 47.6875 -34.828125 C 47.6875 -32.617188 47.847656 -30.429688 48.171875 -28.265625 C 48.492188 -26.097656 49.226562 -24.300781 50.375 -22.875 C 51.53125 -21.445312 53.351562 -20.734375 55.84375 -20.734375 C 58.601562 -20.734375 60.535156 -21.304688 61.640625 -22.453125 C 62.742188 -23.609375 63.410156 -24.875 63.640625 -26.25 C 63.878906 -27.632812 64 -28.695312 64 -29.4375 C 64 -31.375 65.285156 -33.03125 67.859375 -34.40625 C 70.441406 -35.789062 73.851562 -36.484375 78.09375 -36.484375 C 81.957031 -36.484375 85.269531 -35.816406 88.03125 -34.484375 C 90.800781 -33.148438 92.1875 -31.515625 92.1875 -29.578125 Z M 92.1875 -29.578125 "/></g></g></g></svg>